<?xml version="1.0" encoding="utf-8"?>
<!-- Generator: Adobe Illustrator 16.0.0, SVG Export Plug-In . SVG Version: 6.00 Build 0)  -->
<!DOCTYPE svg PUBLIC "-//W3C//DTD SVG 1.1//EN" "http://www.w3.org/Graphics/SVG/1.1/DTD/svg11.dtd">
<svg version="1.1" id="Layer_1" xmlns="http://www.w3.org/2000/svg" xmlns:xlink="http://www.w3.org/1999/xlink" x="0px" y="0px"
	 width="200px" height="200px" viewBox="0 0 200 200" enable-background="new 0 0 200 200" xml:space="preserve">
<path fill="#FFFFFF" d="M143.785,72.415c-5.551-0.227-18.077-1.897-26.684,0.684c-3.038,0.911-7.832,3.295-12.979,6.211
	c-0.262-0.941-0.404-1.795-0.363-2.467c0.229-3.582-5.365-2.654-5.536,0.524c0,0,0.913,1.984,2.029,4.195
	c-1.282,0.764-2.564,1.547-3.826,2.334c-2.513-1.904-6.034-4.125-10.415-4.771c-7.435-1.098-25.279-5.669-36.015,5.844
	c-10.736,11.513-8.071,17.811-8.071,17.811s1.665-3.584,11.305-3.723c5.77-0.083,16.451-0.617,25.116-1.234
	c-11.378,14.781-12.383,43.995,7.044,61.124c20.787,18.327,39.472,19.513,43.011,18.925c3.539-0.587,5.798-5.635,5.798-5.635
	c0.881-0.069,9.486,1.289,14.696-0.006c5.21-1.296,14.622-11.642,14.622-11.642c4.521,0.662,9.011-6.995,10.616-9.645
	c1.606-2.65,4.284-27.118,1.64-45.546C173.128,86.97,149.336,72.642,143.785,72.415z"/>
</svg>
