<?xml version="1.0" encoding="utf-8"?>
<!-- Generator: Adobe Illustrator 16.0.0, SVG Export Plug-In . SVG Version: 6.00 Build 0)  -->
<!DOCTYPE svg PUBLIC "-//W3C//DTD SVG 1.1//EN" "http://www.w3.org/Graphics/SVG/1.1/DTD/svg11.dtd">
<svg version="1.1" xmlns="http://www.w3.org/2000/svg" xmlns:xlink="http://www.w3.org/1999/xlink" x="0px" y="0px"
	 width="720.271px" height="720.271px" viewBox="0 0 720.271 720.271" enable-background="new 0 0 720.271 720.271"
	 xml:space="preserve">
<g id="Layer_3">
	
		<rect x="0.136" y="0.136" fill="#B9BDE0" stroke="#000000" stroke-width="0.2713" stroke-miterlimit="10" width="720" height="720"/>
</g>
<g id="Layer_2">
	<g display="none">
		<g display="inline">
			<g>
				<path fill="#F8D3BD" d="M360.136-71.864v0.25c0.857,0,1.714,0.011,2.571,0.013L360.136-71.864z"/>
				<path fill="#61C5BB" d="M360.136,72.302v143.917L488.175,78.073C446.651,74.227,403.395,72.302,360.136,72.302z"/>
				<path fill="#F8D3BD" d="M448.417-62.83c-22.271-4.625-45.172-7.532-68.557-8.583c-5.714-0.116-11.434-0.173-17.153-0.188
					c-0.857-0.002-1.714-0.013-2.571-0.013V72.302c43.259,0,86.516,1.925,128.039,5.771C478.945,9.119,465.693-42.795,448.417-62.83
					z"/>
			</g>
			<g>
				<path fill="#B9BDE0" d="M448.417-62.83l-87.773,277.442L488.175,78.073C478.945,9.119,465.693-42.795,448.417-62.83z"/>
				<path fill="#61C5BB" d="M621.418,98.854c-40.4-9.45-85.685-16.375-133.243-20.78L360.644,214.612l-0.508,1.606L621.418,98.854z"
					/>
				<path fill="#F8D3BD" d="M582.829-10.11c-40.88-24.641-86.171-42.703-134.412-52.72c17.276,20.035,30.528,71.949,39.758,140.903
					c47.559,4.405,92.843,11.33,133.243,20.78C611.394,56,598.53,18.644,582.829-10.11z"/>
			</g>
			<g>
				<path fill="#B9BDE0" d="M582.829-10.11L360.136,360.136l4.947-2.976L621.418,98.854C611.394,56,598.53,18.644,582.829-10.11z"/>
				<path fill="#61C5BB" d="M621.418,98.854L365.083,357.16l365.299-219.718C701.627,121.741,664.271,108.878,621.418,98.854z"/>
				<path fill="#F8D3BD" d="M582.829-10.11C598.53,18.644,611.394,56,621.418,98.854c42.854,10.024,80.209,22.888,108.964,38.588
					C693.979,77.05,643.221,26.292,582.829-10.11z"/>
			</g>
			<g>
				<path fill="#61C5BB" d="M360.136,216.219v143.917l140.427-140.427C455.292,217.383,407.715,216.219,360.136,216.219z"/>
				<path fill="#F8D3BD" d="M488.175,78.073c-41.523-3.846-84.78-5.771-128.039-5.771v143.917c47.579,0,95.156,1.164,140.427,3.49
					C497.927,168.413,493.797,120.083,488.175,78.073z"/>
			</g>
			<g>
				<path fill="#B9BDE0" d="M488.175,78.073L360.136,360.136l4.231-1.921l136.195-138.506
					C497.927,168.413,493.797,120.083,488.175,78.073z"/>
				<path fill="#61C5BB" d="M500.562,219.709L364.367,358.215l277.831-126.118C600.188,226.474,551.858,222.345,500.562,219.709z"/>
				<path fill="#F8D3BD" d="M621.418,98.854c-40.4-9.45-85.685-16.375-133.243-20.78c5.622,42.009,9.752,90.34,12.388,141.636
					c51.296,2.636,99.626,6.765,141.636,12.388C637.794,184.538,630.868,139.253,621.418,98.854z"/>
			</g>
			<g>
				<path fill="#B9BDE0" d="M621.418,98.854L360.136,360.136l5.787-1.208l276.275-126.831
					C637.794,184.538,630.868,139.253,621.418,98.854z"/>
				<path fill="#61C5BB" d="M642.198,232.097L365.923,358.928l417.179-87.074C763.066,254.578,711.152,241.326,642.198,232.097z"/>
				<path fill="#F8D3BD" d="M730.382,137.442c-28.755-15.701-66.11-28.564-108.964-38.588c9.45,40.4,16.376,85.685,20.78,133.243
					c68.954,9.229,120.868,22.481,140.903,39.757C773.085,223.613,755.022,178.322,730.382,137.442z"/>
			</g>
			<path fill="#F8D3BD" d="M500.562,219.709c-45.271-2.326-92.848-3.49-140.427-3.49v143.917h143.916
				C504.052,312.557,502.889,264.979,500.562,219.709z"/>
			<g>
				<path fill="#B9BDE0" d="M360.136,360.136h143.916c0-47.579-1.163-95.156-3.489-140.427L360.136,360.136z"/>
				<path fill="#F8D3BD" d="M642.198,232.097c-42.01-5.623-90.34-9.752-141.636-12.388c2.326,45.271,3.489,92.848,3.489,140.427
					H647.97C647.97,316.877,646.044,273.62,642.198,232.097z"/>
			</g>
			<g>
				<path fill="#B9BDE0" d="M360.136,360.136H647.97c0-43.259-1.926-86.516-5.771-128.039L360.136,360.136z"/>
				<path fill="#F8D3BD" d="M791.885,359.921c-0.002-6.506-0.067-13.011-0.2-19.51c-1.051-23.384-3.958-46.285-8.583-68.557
					c-20.035-17.276-71.949-30.528-140.903-39.757c3.846,41.523,5.771,84.78,5.771,128.039h143.916h0.25L791.885,359.921z"/>
			</g>
		</g>
		<g display="inline">
			<g>
				<path fill="#F8D3BD" d="M360.006-71.864v0.25c-0.857,0-1.714,0.011-2.571,0.013L360.006-71.864z"/>
				<path fill="#61C5BB" d="M360.006,72.302v143.917L231.967,78.073C273.49,74.227,316.747,72.302,360.006,72.302z"/>
				<path fill="#F8D3BD" d="M271.725-62.83c22.271-4.625,45.172-7.532,68.557-8.583c5.714-0.116,11.434-0.173,17.153-0.188
					c0.857-0.002,1.714-0.013,2.571-0.013V72.302c-43.259,0-86.516,1.925-128.039,5.771C241.196,9.119,254.448-42.795,271.725-62.83
					z"/>
			</g>
			<g>
				<path fill="#B9BDE0" d="M271.725-62.83l87.773,277.442L231.967,78.073C241.196,9.119,254.448-42.795,271.725-62.83z"/>
				<path fill="#61C5BB" d="M98.724,98.854c40.4-9.45,85.685-16.375,133.243-20.78l127.531,136.539l0.508,1.606L98.724,98.854z"/>
				<path fill="#F8D3BD" d="M137.312-10.11c40.88-24.641,86.171-42.703,134.412-52.72c-17.276,20.035-30.528,71.949-39.758,140.903
					c-47.559,4.405-92.843,11.33-133.243,20.78C108.748,56,121.611,18.644,137.312-10.11z"/>
			</g>
			<g>
				<path fill="#B9BDE0" d="M137.312-10.11l222.693,370.246l-4.947-2.976L98.724,98.854C108.748,56,121.611,18.644,137.312-10.11z"
					/>
				<path fill="#61C5BB" d="M98.724,98.854L355.059,357.16L-10.24,137.442C18.515,121.741,55.87,108.878,98.724,98.854z"/>
				<path fill="#F8D3BD" d="M137.312-10.11C121.611,18.644,108.748,56,98.724,98.854C55.87,108.878,18.515,121.741-10.24,137.442
					C26.162,77.05,76.921,26.292,137.312-10.11z"/>
			</g>
			<g>
				<path fill="#61C5BB" d="M360.006,216.219v143.917L219.579,219.709C264.85,217.383,312.427,216.219,360.006,216.219z"/>
				<path fill="#F8D3BD" d="M231.967,78.073c41.523-3.846,84.78-5.771,128.039-5.771v143.917c-47.579,0-95.156,1.164-140.427,3.49
					C222.215,168.413,226.345,120.083,231.967,78.073z"/>
			</g>
			<g>
				<path fill="#B9BDE0" d="M231.967,78.073l128.039,282.062l-4.231-1.921L219.579,219.709
					C222.215,168.413,226.345,120.083,231.967,78.073z"/>
				<path fill="#61C5BB" d="M219.579,219.709l136.195,138.506L77.943,232.097C119.953,226.474,168.283,222.345,219.579,219.709z"/>
				<path fill="#F8D3BD" d="M98.724,98.854c40.4-9.45,85.685-16.375,133.243-20.78c-5.622,42.009-9.752,90.34-12.388,141.636
					c-51.296,2.636-99.626,6.765-141.636,12.388C82.348,184.538,89.273,139.253,98.724,98.854z"/>
			</g>
			<g>
				<path fill="#B9BDE0" d="M98.724,98.854l261.282,261.282l-5.787-1.208L77.943,232.097
					C82.348,184.538,89.273,139.253,98.724,98.854z"/>
				<path fill="#61C5BB" d="M77.943,232.097l276.275,126.831L-62.96,271.854C-42.925,254.578,8.989,241.326,77.943,232.097z"/>
				<path fill="#F8D3BD" d="M-10.24,137.442c28.755-15.701,66.11-28.564,108.964-38.588c-9.45,40.4-16.376,85.685-20.78,133.243
					C8.989,241.326-42.925,254.578-62.96,271.854C-52.943,223.613-34.881,178.322-10.24,137.442z"/>
			</g>
			<path fill="#F8D3BD" d="M219.579,219.709c45.271-2.326,92.848-3.49,140.427-3.49v143.917H216.09
				C216.09,312.557,217.253,264.979,219.579,219.709z"/>
			<g>
				<path fill="#B9BDE0" d="M360.006,360.136H216.09c0-47.579,1.163-95.156,3.489-140.427L360.006,360.136z"/>
				<path fill="#F8D3BD" d="M77.943,232.097c42.01-5.623,90.34-9.752,141.636-12.388c-2.326,45.271-3.489,92.848-3.489,140.427
					H72.172C72.172,316.877,74.098,273.62,77.943,232.097z"/>
			</g>
			<g>
				<path fill="#B9BDE0" d="M360.006,360.136H72.172c0-43.259,1.926-86.516,5.771-128.039L360.006,360.136z"/>
				<path fill="#F8D3BD" d="M-71.743,359.921c0.002-6.506,0.067-13.011,0.2-19.51c1.051-23.384,3.958-46.285,8.583-68.557
					c20.035-17.276,71.949-30.528,140.903-39.757c-3.846,41.523-5.771,84.78-5.771,128.039H-71.744h-0.25L-71.743,359.921z"/>
			</g>
		</g>
		<g display="inline">
			<g>
				<path fill="#F8D3BD" d="M360.136,792.136v-0.25c0.857,0,1.714-0.011,2.571-0.013L360.136,792.136z"/>
				<path fill="#61C5BB" d="M360.136,647.97V504.053l128.039,138.146C446.651,646.045,403.395,647.97,360.136,647.97z"/>
				<path fill="#F8D3BD" d="M448.417,783.102c-22.271,4.625-45.172,7.532-68.557,8.583c-5.714,0.116-11.434,0.173-17.153,0.188
					c-0.857,0.002-1.714,0.013-2.571,0.013V647.97c43.259,0,86.516-1.925,128.039-5.771
					C478.945,711.152,465.693,763.066,448.417,783.102z"/>
			</g>
			<g>
				<path fill="#B9BDE0" d="M448.417,783.102l-87.773-277.442l127.531,136.539C478.945,711.152,465.693,763.066,448.417,783.102z"/>
				<path fill="#61C5BB" d="M621.418,621.418c-40.4,9.45-85.685,16.375-133.243,20.78L360.644,505.659l-0.508-1.606L621.418,621.418
					z"/>
				<path fill="#F8D3BD" d="M582.829,730.381c-40.88,24.642-86.171,42.703-134.412,52.721
					c17.276-20.035,30.528-71.949,39.758-140.903c47.559-4.405,92.843-11.33,133.243-20.78
					C611.394,664.271,598.53,701.627,582.829,730.381z"/>
			</g>
			<g>
				<path fill="#B9BDE0" d="M582.829,730.381L360.136,360.136l4.947,2.976l256.335,258.307
					C611.394,664.271,598.53,701.627,582.829,730.381z"/>
				<path fill="#61C5BB" d="M621.418,621.418L365.083,363.111L730.382,582.83C701.627,598.53,664.271,611.394,621.418,621.418z"/>
				<path fill="#F8D3BD" d="M582.829,730.381c15.701-28.754,28.564-66.109,38.589-108.963
					c42.854-10.024,80.209-22.888,108.964-38.588C693.979,643.221,643.221,693.979,582.829,730.381z"/>
			</g>
			<g>
				<path fill="#61C5BB" d="M360.136,504.053V360.136l140.427,140.427C455.292,502.889,407.715,504.053,360.136,504.053z"/>
				<path fill="#F8D3BD" d="M488.175,642.198c-41.523,3.847-84.78,5.771-128.039,5.771V504.053c47.579,0,95.156-1.164,140.427-3.49
					C497.927,551.858,493.797,600.189,488.175,642.198z"/>
			</g>
			<g>
				<path fill="#B9BDE0" d="M488.175,642.198L360.136,360.136l4.231,1.921l136.195,138.506
					C497.927,551.858,493.797,600.189,488.175,642.198z"/>
				<path fill="#61C5BB" d="M500.562,500.562L364.367,362.057l277.831,126.118C600.188,493.797,551.858,497.927,500.562,500.562z"/>
				<path fill="#F8D3BD" d="M621.418,621.418c-40.4,9.45-85.685,16.375-133.243,20.78c5.622-42.009,9.752-90.34,12.388-141.636
					c51.296-2.636,99.626-6.766,141.636-12.388C637.794,535.733,630.868,581.018,621.418,621.418z"/>
			</g>
			<g>
				<path fill="#B9BDE0" d="M621.418,621.418L360.136,360.136l5.787,1.208l276.275,126.831
					C637.794,535.733,630.868,581.018,621.418,621.418z"/>
				<path fill="#61C5BB" d="M642.198,488.175L365.923,361.344l417.179,87.074C763.066,465.693,711.152,478.945,642.198,488.175z"/>
				<path fill="#F8D3BD" d="M730.382,582.83c-28.755,15.7-66.11,28.563-108.964,38.588c9.45-40.4,16.376-85.685,20.78-133.243
					c68.954-9.229,120.868-22.481,140.903-39.757C773.085,496.658,755.022,541.949,730.382,582.83z"/>
			</g>
			<path fill="#F8D3BD" d="M500.562,500.562c-45.271,2.326-92.848,3.49-140.427,3.49V360.136h143.916
				C504.052,407.715,502.889,455.292,500.562,500.562z"/>
			<g>
				<path fill="#B9BDE0" d="M360.136,360.136h143.916c0,47.579-1.163,95.156-3.489,140.427L360.136,360.136z"/>
				<path fill="#F8D3BD" d="M642.198,488.175c-42.01,5.622-90.34,9.752-141.636,12.388c2.326-45.271,3.489-92.848,3.489-140.427
					H647.97C647.97,403.395,646.044,446.651,642.198,488.175z"/>
			</g>
			<g>
				<path fill="#B9BDE0" d="M360.136,360.136H647.97c0,43.259-1.926,86.516-5.771,128.039L360.136,360.136z"/>
				<path fill="#F8D3BD" d="M791.885,360.35c-0.002,6.506-0.067,13.012-0.2,19.511c-1.051,23.384-3.958,46.285-8.583,68.558
					c-20.035,17.275-71.949,30.527-140.903,39.757c3.846-41.523,5.771-84.78,5.771-128.039h143.916h0.25L791.885,360.35z"/>
			</g>
		</g>
		<g display="inline">
			<g>
				<path fill="#F8D3BD" d="M360.006,792.136v-0.25c-0.857,0-1.714-0.011-2.571-0.013L360.006,792.136z"/>
				<path fill="#61C5BB" d="M360.006,647.97V504.053L231.967,642.198C273.49,646.045,316.747,647.97,360.006,647.97z"/>
				<path fill="#F8D3BD" d="M271.725,783.102c22.271,4.625,45.172,7.532,68.557,8.583c5.714,0.116,11.434,0.173,17.153,0.188
					c0.857,0.002,1.714,0.013,2.571,0.013V647.97c-43.259,0-86.516-1.925-128.039-5.771
					C241.196,711.152,254.448,763.066,271.725,783.102z"/>
			</g>
			<g>
				<path fill="#B9BDE0" d="M271.725,783.102l87.773-277.442L231.967,642.198C241.196,711.152,254.448,763.066,271.725,783.102z"/>
				<path fill="#61C5BB" d="M98.724,621.418c40.4,9.45,85.685,16.375,133.243,20.78l127.531-136.539l0.508-1.606L98.724,621.418z"/>
				<path fill="#F8D3BD" d="M137.312,730.381c40.88,24.642,86.171,42.703,134.412,52.721
					c-17.276-20.035-30.528-71.949-39.758-140.903c-47.559-4.405-92.843-11.33-133.243-20.78
					C108.748,664.271,121.611,701.627,137.312,730.381z"/>
			</g>
			<g>
				<path fill="#B9BDE0" d="M137.312,730.381l222.693-370.245l-4.947,2.976L98.724,621.418
					C108.748,664.271,121.611,701.627,137.312,730.381z"/>
				<path fill="#61C5BB" d="M98.724,621.418l256.335-258.307L-10.24,582.83C18.515,598.53,55.87,611.394,98.724,621.418z"/>
				<path fill="#F8D3BD" d="M137.312,730.381c-15.701-28.754-28.564-66.109-38.589-108.963
					C55.87,611.394,18.515,598.53-10.24,582.83C26.162,643.221,76.921,693.979,137.312,730.381z"/>
			</g>
			<g>
				<path fill="#61C5BB" d="M360.006,504.053V360.136L219.579,500.562C264.85,502.889,312.427,504.053,360.006,504.053z"/>
				<path fill="#F8D3BD" d="M231.967,642.198c41.523,3.847,84.78,5.771,128.039,5.771V504.053c-47.579,0-95.156-1.164-140.427-3.49
					C222.215,551.858,226.345,600.189,231.967,642.198z"/>
			</g>
			<g>
				<path fill="#B9BDE0" d="M231.967,642.198l128.039-282.062l-4.231,1.921L219.579,500.562
					C222.215,551.858,226.345,600.189,231.967,642.198z"/>
				<path fill="#61C5BB" d="M219.579,500.562l136.195-138.506L77.943,488.175C119.953,493.797,168.283,497.927,219.579,500.562z"/>
				<path fill="#F8D3BD" d="M98.724,621.418c40.4,9.45,85.685,16.375,133.243,20.78c-5.622-42.009-9.752-90.34-12.388-141.636
					c-51.296-2.636-99.626-6.766-141.636-12.388C82.348,535.733,89.273,581.018,98.724,621.418z"/>
			</g>
			<g>
				<path fill="#B9BDE0" d="M98.724,621.418l261.282-261.282l-5.787,1.208L77.943,488.175
					C82.348,535.733,89.273,581.018,98.724,621.418z"/>
				<path fill="#61C5BB" d="M77.943,488.175l276.275-126.831L-62.96,448.418C-42.925,465.693,8.989,478.945,77.943,488.175z"/>
				<path fill="#F8D3BD" d="M-10.24,582.83c28.755,15.7,66.11,28.563,108.964,38.588c-9.45-40.4-16.376-85.685-20.78-133.243
					C8.989,478.945-42.925,465.693-62.96,448.418C-52.943,496.658-34.881,541.949-10.24,582.83z"/>
			</g>
			<path fill="#F8D3BD" d="M219.579,500.562c45.271,2.326,92.848,3.49,140.427,3.49V360.136H216.09
				C216.09,407.715,217.253,455.292,219.579,500.562z"/>
			<g>
				<path fill="#B9BDE0" d="M360.006,360.136H216.09c0,47.579,1.163,95.156,3.489,140.427L360.006,360.136z"/>
				<path fill="#F8D3BD" d="M77.943,488.175c42.01,5.622,90.34,9.752,141.636,12.388c-2.326-45.271-3.489-92.848-3.489-140.427
					H72.172C72.172,403.395,74.098,446.651,77.943,488.175z"/>
			</g>
			<g>
				<path fill="#B9BDE0" d="M360.006,360.136H72.172c0,43.259,1.926,86.516,5.771,128.039L360.006,360.136z"/>
				<path fill="#F8D3BD" d="M-71.743,360.35c0.002,6.506,0.067,13.012,0.2,19.511c1.051,23.384,3.958,46.285,8.583,68.558
					c20.035,17.275,71.949,30.527,140.903,39.757c-3.846-41.523-5.771-84.78-5.771-128.039H-71.744h-0.25L-71.743,360.35z"/>
			</g>
		</g>
	</g>
	<g>
		<g>
			<path fill="#B9BDE0" d="M387.121,381.16h126.171c0-18.962-0.845-37.924-2.53-56.125L387.121,381.16z"/>
			<path fill="#F8D3BD" d="M576.376,381.066c0-2.853-0.028-5.704-0.087-8.553c-0.46-10.25-1.735-20.289-3.763-30.052
				c-8.782-7.572-31.539-13.382-61.765-17.427c1.686,18.202,2.53,37.164,2.53,56.125h63.086h0.109L576.376,381.066z"/>
		</g>
		<g>
			<path fill="#B9BDE0" d="M504.365,576.136L387.13,381.151l2.605,1.566l134.959,136.043
				C519.412,541.326,512.635,560.996,504.365,576.136z"/>
			<path fill="#61C5BB" d="M524.694,518.761L389.735,382.718l192.342,115.733C566.934,506.716,547.263,513.486,524.694,518.761z"/>
			<path fill="#F8D3BD" d="M504.365,576.136c8.27-15.14,15.047-34.81,20.329-57.375c22.568-5.274,42.239-12.045,57.383-20.31
				C562.902,530.248,536.169,556.974,504.365,576.136z"/>
		</g>
		<g>
			<path fill="#B9BDE0" d="M435.156,576.103L387.397,425.14l69.394,74.294C451.769,536.954,444.557,565.201,435.156,576.103z"/>
			<path fill="#61C5BB" d="M529.291,488.127c-21.983,5.143-46.623,8.91-72.5,11.307l-69.394-74.294l-0.276-0.874L529.291,488.127z"
				/>
			<path fill="#F8D3BD" d="M508.294,547.417c-22.244,13.407-46.888,23.235-73.138,28.686c9.4-10.901,16.612-39.148,21.635-76.669
				c25.877-2.396,50.517-6.164,72.5-11.307C523.837,511.445,516.837,531.771,508.294,547.417z"/>
		</g>
		<g>
			<path fill="#F8D3BD" d="M387.121,558.474v-0.116c0.399,0,0.798-0.006,1.197-0.006L387.121,558.474z"/>
			<path fill="#61C5BB" d="M387.121,491.312v-67.046l59.648,64.357C427.426,490.415,407.273,491.312,387.121,491.312z"/>
			<path fill="#F8D3BD" d="M428.248,554.266c-10.376,2.154-21.044,3.509-31.938,3.997c-2.662,0.054-5.326,0.081-7.991,0.089
				c-0.399,0-0.798,0.006-1.197,0.006v-67.046c20.152,0,40.305-0.896,59.648-2.688C442.471,520.747,436.297,544.932,428.248,554.266
				z"/>
		</g>
		<g>
			<path fill="#B9BDE0" d="M478.142,229.831L387.121,381.16l2.021-1.216l104.771-105.577
				C489.816,256.853,484.559,241.583,478.142,229.831z"/>
			<path fill="#61C5BB" d="M493.914,274.367L389.143,379.944L538.45,290.14C526.697,283.722,511.429,278.465,493.914,274.367z"/>
			<path fill="#F8D3BD" d="M478.142,229.831c6.417,11.752,11.675,27.021,15.772,44.536c17.515,4.098,32.783,9.355,44.536,15.772
				C523.571,265.456,502.825,244.709,478.142,229.831z"/>
		</g>
		<g>
			<path fill="#B9BDE0" d="M476.003,292.278l-88.882,88.882l1.968-0.411l93.983-43.145
				C481.574,321.426,479.218,306.021,476.003,292.278z"/>
			<path fill="#61C5BB" d="M483.072,337.604l-93.983,43.145l141.915-29.62C524.188,345.252,506.528,340.744,483.072,337.604z"/>
			<path fill="#F8D3BD" d="M513.069,305.405c-9.781-5.341-22.488-9.717-37.066-13.126c3.215,13.743,5.571,29.147,7.069,45.326
				c23.456,3.139,41.115,7.647,47.932,13.524C527.597,334.718,521.452,319.312,513.069,305.405z"/>
		</g>
		<path fill="#F8D3BD" d="M405.817,362.463c-6.027-0.31-12.361-0.465-18.696-0.465v19.162h19.161
			C406.282,374.825,406.128,368.49,405.817,362.463z"/>
		<g>
			<path fill="#B9BDE0" d="M338.926,185.84l47.878,151.338l-69.565-74.479C322.274,225.087,329.503,196.769,338.926,185.84z"/>
			<path fill="#61C5BB" d="M244.559,274.035c22.037-5.155,46.739-8.933,72.68-11.336l69.565,74.479l0.277,0.876L244.559,274.035z"/>
			<path fill="#F8D3BD" d="M265.608,214.598c22.298-13.441,47.004-23.293,73.318-28.758c-9.423,10.929-16.652,39.247-21.687,76.859
				c-25.941,2.403-50.643,6.181-72.68,11.336C250.027,250.659,257.043,230.283,265.608,214.598z"/>
		</g>
		<g>
			<path fill="#B9BDE0" d="M244.518,144.136L387.082,381.16l-3.167-1.905L219.814,213.892
				C226.231,186.458,234.466,162.543,244.518,144.136z"/>
			<path fill="#61C5BB" d="M219.814,213.892l164.101,165.363L150.058,238.596C168.466,228.544,192.38,220.31,219.814,213.892z"/>
			<path fill="#F8D3BD" d="M244.518,144.136c-10.051,18.408-18.286,42.322-24.704,69.756c-27.434,6.417-51.348,14.652-69.756,24.704
				C173.361,199.934,205.856,167.44,244.518,144.136z"/>
		</g>
		<g>
			<path fill="#B9BDE0" d="M233.334,227.413L387.082,381.16l-3.405-0.71l-162.57-74.633
				C223.698,277.833,227.773,251.185,233.334,227.413z"/>
			<path fill="#61C5BB" d="M221.107,305.817l162.57,74.633l-245.482-51.238C149.984,319.046,180.532,311.248,221.107,305.817z"/>
			<path fill="#F8D3BD" d="M169.217,250.119c16.92-9.239,38.901-16.808,64.118-22.706c-5.561,23.772-9.636,50.419-12.228,78.404
				c-40.575,5.431-71.123,13.229-82.913,23.395C144.089,300.825,154.717,274.174,169.217,250.119z"/>
		</g>
		<g>
			<path fill="#B9BDE0" d="M387.082,381.16H267.123c0-18.029,0.803-36.057,2.406-53.363L387.082,381.16z"/>
			<path fill="#F8D3BD" d="M207.144,381.071c0.001-2.713,0.028-5.423,0.083-8.132c0.438-9.745,1.649-19.29,3.577-28.572
				c8.35-7.2,29.986-12.723,58.724-16.57c-1.603,17.306-2.406,35.333-2.406,53.363h-59.979h-0.104L207.144,381.071z"/>
		</g>
		<g>
			<path fill="#61C5BB" d="M387.121,437.661V381.16l55.131,55.131C424.479,437.205,405.8,437.661,387.121,437.661z"/>
			<path fill="#F8D3BD" d="M437.389,491.896c-16.302,1.511-33.285,2.267-50.268,2.267v-56.502c18.679,0,37.357-0.456,55.131-1.37
				C441.217,456.431,439.596,475.404,437.389,491.896z"/>
		</g>
		<g>
			<path fill="#B9BDE0" d="M334.533,265.397l52.549,115.763l-1.737-0.788l-55.896-56.845
				C330.531,302.474,332.226,282.638,334.533,265.397z"/>
			<path fill="#61C5BB" d="M329.449,323.527l55.896,56.845l-114.025-51.761C288.561,326.303,308.396,324.608,329.449,323.527z"/>
			<path fill="#F8D3BD" d="M279.848,273.926c16.581-3.879,35.167-6.721,54.685-8.529c-2.307,17.241-4.002,37.077-5.084,58.129
				c-21.052,1.082-40.888,2.776-58.129,5.084C273.127,309.092,275.969,290.507,279.848,273.926z"/>
		</g>
		<g>
			<path fill="#B9BDE0" d="M387.121,381.16h40.432c0-13.366-0.327-26.733-0.98-39.451L387.121,381.16z"/>
			<path fill="#F8D3BD" d="M466.363,345.188c-11.803-1.579-25.381-2.74-39.791-3.479c0.653,12.718,0.98,26.085,0.98,39.451h40.433
				C467.985,369.007,467.444,356.854,466.363,345.188z"/>
		</g>
		<g>
			<path fill="#F8D3BD" d="M387.082,202.783v0.118c-0.403,0-0.805,0.004-1.208,0.006L387.082,202.783z"/>
			<path fill="#61C5BB" d="M387.082,270.477v67.578l-60.122-64.867C346.458,271.381,366.77,270.477,387.082,270.477z"/>
			<path fill="#F8D3BD" d="M345.629,207.025c10.458-2.172,21.211-3.537,32.191-4.03c2.683-0.055,5.368-0.082,8.054-0.088
				c0.403-0.001,0.805-0.006,1.208-0.006v67.576c-20.312,0-40.624,0.904-60.122,2.71
				C331.294,240.809,337.517,216.433,345.629,207.025z"/>
		</g>
		<g>
			<path fill="#61C5BB" d="M387.082,338.161v43l-41.957-41.957C358.651,338.509,372.866,338.161,387.082,338.161z"/>
			<path fill="#F8D3BD" d="M348.827,296.886c12.407-1.149,25.331-1.724,38.255-1.724v42.999c-14.216,0-28.431,0.348-41.957,1.043
				C345.913,323.877,347.147,309.438,348.827,296.886z"/>
		</g>
		<g>
			<path fill="#B9BDE0" d="M494.059,488.099L387.121,381.16l2.368,0.494l113.075,51.91
				C500.762,453.029,497.928,471.562,494.059,488.099z"/>
			<path fill="#61C5BB" d="M502.564,433.564l-113.075-51.91l170.744,35.638C552.033,424.362,530.786,429.787,502.564,433.564z"/>
			<path fill="#F8D3BD" d="M538.655,472.305c-11.768,6.427-27.057,11.69-44.597,15.794c3.869-16.536,6.703-35.069,8.506-54.534
				c28.222-3.777,49.469-9.202,57.669-16.272C556.135,437.037,548.741,455.573,538.655,472.305z"/>
		</g>
		<g>
			<path fill="#B9BDE0" d="M387.121,381.16h101.815c0,15.303-0.682,30.603-2.041,45.291L387.121,381.16z"/>
			<path fill="#F8D3BD" d="M539.843,381.235c0,2.301-0.023,4.604-0.07,6.902c-0.371,8.271-1.4,16.371-3.036,24.251
				c-7.087,6.11-25.451,10.798-49.841,14.062c1.359-14.688,2.041-29.988,2.041-45.291h50.906h0.09L539.843,381.235z"/>
		</g>
		<g>
			<path fill="#F8D3BD" d="M387.082,510.551v-0.075c-0.257,0-0.513-0.003-0.771-0.004L387.082,510.551z"/>
			<path fill="#61C5BB" d="M387.082,467.371v-43.105l-38.35,41.376C361.169,466.795,374.126,467.371,387.082,467.371z"/>
			<path fill="#F8D3BD" d="M360.641,507.845c6.671,1.386,13.529,2.257,20.533,2.571c1.712,0.034,3.425,0.052,5.138,0.056
				c0.258,0.001,0.514,0.004,0.771,0.004v-43.104c-12.956,0-25.913-0.576-38.35-1.729
				C351.497,486.295,355.466,501.844,360.641,507.845z"/>
		</g>
		<g>
			<path fill="#B9BDE0" d="M360.641,507.845l26.29-83.098l-38.198,40.895C351.497,486.295,355.466,501.844,360.641,507.845z"/>
			<path fill="#61C5BB" d="M308.824,459.418c12.101,2.831,25.664,4.904,39.909,6.224l38.198-40.895l0.151-0.481L308.824,459.418z"/>
			<path fill="#F8D3BD" d="M320.382,492.055c12.244,7.381,25.809,12.79,40.258,15.79c-5.175-6.001-9.144-21.55-11.908-42.203
				c-14.245-1.319-27.808-3.393-39.909-6.224C311.826,472.253,315.679,483.442,320.382,492.055z"/>
		</g>
		<g>
			<path fill="#B9BDE0" d="M320.382,492.055l66.7-110.895l-1.481,0.892l-76.777,77.366
				C311.826,472.253,315.679,483.442,320.382,492.055z"/>
			<path fill="#61C5BB" d="M308.824,459.418l76.777-77.366l-109.413,65.81C284.8,452.563,295.988,456.416,308.824,459.418z"/>
			<path fill="#F8D3BD" d="M320.382,492.055c-4.703-8.612-8.556-19.802-11.559-32.637c-12.835-3.002-24.024-6.854-32.636-11.557
				C287.09,465.949,302.293,481.151,320.382,492.055z"/>
		</g>
		<g>
			<path fill="#61C5BB" d="M387.082,424.266V381.16l-42.06,42.06C358.582,423.917,372.831,424.266,387.082,424.266z"/>
			<path fill="#F8D3BD" d="M348.732,465.642c12.437,1.153,25.394,1.729,38.35,1.729v-43.105c-14.251,0-28.5-0.349-42.06-1.046
				C345.812,438.584,347.048,453.06,348.732,465.642z"/>
		</g>
		<g>
			<path fill="#B9BDE0" d="M348.732,465.642l38.35-84.481l-1.268,0.575l-40.792,41.484
				C345.812,438.584,347.048,453.06,348.732,465.642z"/>
			<path fill="#61C5BB" d="M345.022,423.22l40.792-41.484L302.6,419.51C315.183,421.194,329.658,422.431,345.022,423.22z"/>
			<path fill="#F8D3BD" d="M308.824,459.418c12.101,2.831,25.664,4.904,39.909,6.224c-1.685-12.582-2.921-27.058-3.71-42.422
				c-15.365-0.789-29.84-2.025-42.423-3.71C303.919,433.754,305.994,447.318,308.824,459.418z"/>
		</g>
		<g>
			<path fill="#B9BDE0" d="M308.824,459.418l78.258-78.258l-1.733,0.361L302.6,419.51
				C303.919,433.754,305.994,447.318,308.824,459.418z"/>
			<path fill="#61C5BB" d="M302.6,419.51l82.749-37.988l-124.952,26.081C266.398,412.776,281.947,416.745,302.6,419.51z"/>
			<path fill="#F8D3BD" d="M276.188,447.861c8.612,4.702,19.801,8.555,32.636,11.557c-2.83-12.1-4.905-25.664-6.224-39.908
				c-20.653-2.765-36.202-6.733-42.203-11.907C263.397,422.051,268.807,435.616,276.188,447.861z"/>
		</g>
		<path fill="#F8D3BD" d="M345.022,423.22c13.559,0.697,27.809,1.046,42.06,1.046V381.16h-43.105
			C343.977,395.411,344.325,409.661,345.022,423.22z"/>
		<g>
			<path fill="#B9BDE0" d="M387.082,381.16h-43.105c0,14.251,0.349,28.501,1.046,42.06L387.082,381.16z"/>
			<path fill="#F8D3BD" d="M302.6,419.51c12.583,1.685,27.058,2.921,42.423,3.71c-0.697-13.559-1.046-27.809-1.046-42.06h-43.105
				C300.871,394.116,301.448,407.073,302.6,419.51z"/>
		</g>
		<g>
			<path fill="#B9BDE0" d="M387.082,381.16h-86.211c0,12.956,0.577,25.913,1.729,38.35L387.082,381.16z"/>
			<path fill="#F8D3BD" d="M257.767,381.224c0,1.949,0.02,3.897,0.06,5.844c0.314,7.004,1.186,13.863,2.571,20.535
				c6.001,5.174,21.55,9.143,42.203,11.907c-1.151-12.437-1.729-25.394-1.729-38.35h-43.105h-0.075L257.767,381.224z"/>
		</g>
		<g>
			<path fill="#B9BDE0" d="M387.121,381.16h46.658c0,15.425-0.377,30.851-1.131,45.527L387.121,381.16z"/>
			<path fill="#F8D3BD" d="M478.567,422.671c-13.62,1.822-29.29,3.162-45.919,4.017c0.754-14.677,1.131-30.103,1.131-45.527h46.659
				C480.438,395.185,479.814,409.208,478.567,422.671z"/>
		</g>
		<g>
			<path fill="#B9BDE0" d="M425.471,465.642l-38.35-84.481l1.267,0.575l40.794,41.484
				C428.392,438.584,427.154,453.06,425.471,465.642z"/>
			<path fill="#61C5BB" d="M429.182,423.22l-40.794-41.484l83.215,37.774C459.021,421.194,444.545,422.431,429.182,423.22z"/>
			<path fill="#F8D3BD" d="M465.379,459.418c-12.101,2.831-25.664,4.904-39.908,6.224c1.684-12.582,2.921-27.058,3.711-42.422
				c15.363-0.789,29.839-2.025,42.421-3.71C470.284,433.754,468.21,447.318,465.379,459.418z"/>
		</g>
		<g>
			<path fill="#F8D3BD" d="M387.121,238.59v0.086c0.296,0,0.591,0.004,0.888,0.004L387.121,238.59z"/>
			<path fill="#61C5BB" d="M387.121,288.366v49.688l44.207-47.696C416.992,289.03,402.056,288.366,387.121,288.366z"/>
			<path fill="#F8D3BD" d="M417.602,241.709c-7.689-1.597-15.597-2.601-23.671-2.963c-1.973-0.04-3.947-0.06-5.922-0.065
				c-0.297,0-0.592-0.004-0.888-0.004v49.689c14.935,0,29.871,0.665,44.207,1.993C428.141,266.551,423.566,248.627,417.602,241.709z
				"/>
		</g>
		<g>
			<path fill="#B9BDE0" d="M413.562,254.475l-26.289,83.098l38.197-40.896C422.706,276.025,418.737,260.476,413.562,254.475z"/>
			<path fill="#61C5BB" d="M465.379,302.902c-12.101-2.831-25.664-4.905-39.908-6.224l-38.197,40.896l-0.152,0.481L465.379,302.902z
				"/>
			<path fill="#F8D3BD" d="M453.821,270.266c-12.245-7.381-25.81-12.79-40.259-15.791c5.175,6,9.144,21.55,11.908,42.203
				c14.244,1.319,27.808,3.394,39.908,6.224C462.377,290.066,458.523,278.878,453.821,270.266z"/>
		</g>
		<g>
			<path fill="#B9BDE0" d="M420.855,306.847l-33.734,74.313l1.114-0.507l35.884-36.491
				C423.424,330.647,422.336,317.914,420.855,306.847z"/>
			<path fill="#61C5BB" d="M424.119,344.162l-35.884,36.491l73.2-33.227C450.367,345.945,437.633,344.856,424.119,344.162z"/>
			<path fill="#F8D3BD" d="M455.96,312.321c-10.644-2.49-22.575-4.314-35.104-5.475c1.48,11.067,2.568,23.801,3.264,37.315
				c13.514,0.694,26.248,1.783,37.316,3.264C460.274,334.896,458.449,322.965,455.96,312.321z"/>
		</g>
		<g>
			<path fill="#61C5BB" d="M387.121,353.071v28.089l27.407-27.408C405.693,353.298,396.407,353.071,387.121,353.071z"/>
			<path fill="#F8D3BD" d="M412.111,326.108c-8.104-0.75-16.548-1.126-24.99-1.126v28.089c9.286,0,18.572,0.227,27.407,0.681
				C414.014,343.741,413.208,334.308,412.111,326.108z"/>
		</g>
		<path fill="#F8D3BD" d="M410.904,404.943c-7.667,0.394-15.726,0.591-23.783,0.591V381.16h24.374
			C411.495,389.218,411.299,397.276,410.904,404.943z"/>
		<g>
			<path fill="#B9BDE0" d="M387.082,381.16h-53.475c0-17.679,0.432-35.357,1.296-52.178L387.082,381.16z"/>
			<path fill="#F8D3BD" d="M282.276,333.584c15.609-2.089,33.567-3.624,52.627-4.603c-0.865,16.821-1.296,34.5-1.296,52.178h-53.476
				C280.132,365.086,280.847,349.014,282.276,333.584z"/>
		</g>
		<path fill="#F8D3BD" d="M365.58,359.658c6.932-0.356,14.217-0.534,21.502-0.534v22.036h-22.036
			C365.046,373.875,365.224,366.59,365.58,359.658z"/>
	</g>
</g>
</svg>
