<?xml version="1.0" encoding="utf-8"?>
<!-- Generator: Adobe Illustrator 16.0.0, SVG Export Plug-In . SVG Version: 6.00 Build 0)  -->
<!DOCTYPE svg PUBLIC "-//W3C//DTD SVG 1.1//EN" "http://www.w3.org/Graphics/SVG/1.1/DTD/svg11.dtd">
<svg version="1.1" id="Layer_1" xmlns="http://www.w3.org/2000/svg" xmlns:xlink="http://www.w3.org/1999/xlink" x="0px" y="0px"
	 width="192.24px" height="192.239px" viewBox="0 0 192.24 192.239" enable-background="new 0 0 192.24 192.239"
	 xml:space="preserve">
<circle display="none" fill="none" stroke="#231F20" stroke-miterlimit="10" cx="99.634" cy="96.606" r="468"/>
<circle display="none" fill="none" stroke="#00FF00" stroke-width="0.5" stroke-miterlimit="10" cx="95.634" cy="96.606" r="504"/>
<g>
	<path display="none" fill="#7F193B" d="M27.518,108.377l68.51-12.164c0,0,0,0-96.027,9.593c3.501,0.61,8.179,1.153,13.777,1.63
		C17.896,107.785,22.51,108.1,27.518,108.377z"/>
	<path fill="#FFFFFF" d="M27.518,108.377c0.145,4.113,0.364,8.2,0.657,12.235c0.304,4.194,0.688,8.333,1.151,12.384
		c0.495,4.319,1.08,8.538,1.756,12.622c0.746,4.506,1.601,8.848,2.567,12.975l62.379-62.38L27.518,108.377z"/>
	<path fill="#FFFFFF" d="M31.081,145.618c-0.676-4.084-1.261-8.303-1.756-12.622c-0.463-4.051-0.847-8.189-1.151-12.384
		c-0.293-4.035-0.512-8.122-0.657-12.235c-5.008-0.277-9.622-0.592-13.74-0.941c-5.598-0.477-10.276-1.02-13.777-1.63
		c0.127,3.28,0.32,6.548,0.578,9.789c0.273,3.432,0.62,6.833,1.04,10.189c0.458,3.666,1.004,7.275,1.638,10.812
		c0.718,4.005,1.546,7.914,2.488,11.695c4.035,2.42,8.897,4.575,14.405,6.467c4.158,1.429,8.683,2.707,13.499,3.835
		C32.682,154.466,31.827,150.124,31.081,145.618z"/>
	<path fill="#FFFFFF" d="M108.191,164.724L96.027,96.213l9.592,96.026c0.611-3.5,1.155-8.179,1.631-13.776
		C107.6,174.346,107.914,169.73,108.191,164.724z"/>
	<path display="none" fill="#7F193B" d="M120.427,164.066c4.194-0.304,8.333-0.688,12.384-1.15c0,0,0,0-36.784-66.703l12.164,68.511
		C112.304,164.578,116.392,164.359,120.427,164.066z"/>
	<path fill="#FFFFFF" d="M120.427,164.066c-4.035,0.293-8.123,0.512-12.236,0.657c-0.277,5.007-0.591,9.622-0.94,13.739
		c-0.476,5.598-1.02,10.276-1.631,13.776c3.281-0.127,6.549-0.319,9.79-0.577c3.432-0.273,6.834-0.62,10.189-1.04
		c1.705-3.694,3.224-8.443,4.556-14.018c0.988-4.14,1.874-8.734,2.656-13.688C128.76,163.379,124.622,163.763,120.427,164.066z"/>
	<path display="none" fill="#7F193B" d="M109.552,123.597c4.56-0.072,9.083-0.18,13.535-0.324c4.61-0.149,9.143-0.338,13.558-0.565
		c4.679-0.241,9.227-0.526,13.592-0.854c4.787-0.36,9.356-0.774,13.645-1.24c4.989-0.543,9.598-1.156,13.725-1.842
		c5.589-0.927,10.295-1.986,13.87-3.176L96.027,96.213l13.525,27.395C109.552,123.604,109.552,123.601,109.552,123.597z"/>
	<path fill="#FFFFFF" d="M109.552,123.607L96.027,96.213l12.797,54.789c0.168-4.398,0.314-8.983,0.438-13.707
		C109.379,132.841,109.475,128.265,109.552,123.607z"/>
	<path fill="#FFFFFF" d="M177.606,118.771c-4.127,0.686-8.735,1.299-13.725,1.842c-4.288,0.466-8.857,0.88-13.645,1.24
		c-4.365,0.328-8.913,0.613-13.592,0.854c-4.415,0.228-8.947,0.416-13.558,0.565c-4.452,0.145-8.976,0.252-13.535,0.324
		c0,0.004,0,0.007,0,0.011c-0.077,4.657-0.173,9.233-0.289,13.688c-0.124,4.724-0.271,9.309-0.438,13.707
		c4.322-0.128,8.613-0.321,12.843-0.58c4.389-0.268,8.711-0.607,12.933-1.016c4.487-0.435,8.86-0.948,13.078-1.543
		c4.639-0.652,9.089-1.4,13.296-2.245c4.899-0.983,9.47-2.096,13.623-3.34c5.548-1.662,10.351-3.557,14.202-5.683
		c0.633-3.535,1.179-7.146,1.638-10.812c0.42-3.355,0.767-6.758,1.039-10.189C187.901,116.784,183.195,117.844,177.606,118.771z"/>
	<path fill="#FFFFFF" d="M150.817,83.416c-0.128-4.322-0.321-8.612-0.58-12.842c-0.269-4.389-0.607-8.711-1.017-12.933
		L96.027,96.213l54.79,12.798c0.126-4.246,0.189-8.521,0.189-12.798C151.006,91.937,150.943,87.662,150.817,83.416z"/>
	<path fill="#FFFFFF" d="M164.538,108.377c5.008-0.277,9.622-0.592,13.739-0.941c5.598-0.477,10.276-1.02,13.777-1.63l-41.237,3.205
		C155.637,108.826,160.233,108.615,164.538,108.377z"/>
	<path fill="#FFFFFF" d="M192.054,86.621c-0.127-3.281-0.319-6.548-0.578-9.79c-0.272-3.432-0.619-6.834-1.039-10.19
		c-3.695-1.705-8.444-3.223-14.018-4.555c-4.141-0.989-8.735-1.874-13.689-2.656c-4.258-0.673-8.78-1.27-13.51-1.789
		c0.409,4.222,0.748,8.544,1.017,12.933c0.259,4.23,0.452,8.521,0.58,12.842c0.126,4.246,0.189,8.521,0.189,12.797
		c0,4.276-0.063,8.552-0.189,12.798l41.237-3.205c0.123-3.189,0.186-6.392,0.186-9.593C192.24,93.011,192.177,89.81,192.054,86.621z
		"/>
	<path fill="#FFFFFF" d="M123.412,82.688c-0.072-4.561-0.181-9.084-0.324-13.535l-27.06,27.06l27.384,13.525
		c0.07-4.486,0.105-9.005,0.105-13.525C123.517,91.693,123.482,87.173,123.412,82.688z"/>
	<path fill="#FFFFFF" d="M137.11,109.448c-4.458,0.116-9.038,0.213-13.698,0.29c0,0,0,0,7.932,0
		C139.277,109.738,137.11,109.448,137.11,109.448z"/>
	<path fill="#FFFFFF" d="M137.11,82.978c-0.103-4.465-0.258-8.896-0.465-13.259c-4.415-0.228-8.947-0.416-13.558-0.565
		c0.144,4.451,0.252,8.975,0.324,13.535c0.07,4.485,0.105,9.004,0.105,13.524c0,4.521-0.035,9.039-0.105,13.525
		c4.66-0.077,9.24-0.174,13.698-0.29c0.102-4.391,0.152-8.812,0.152-13.235C137.262,91.791,137.211,87.368,137.11,82.978z"/>
	<polygon display="none" fill="#7F193B" points="115.41,0.764 86.435,0.186 84.805,13.963 96.027,96.213 118.585,14.635 	"/>
	<path fill="#FFFFFF" d="M115.41,0.764c-3.241-0.258-6.509-0.451-9.79-0.578C102.431,0.062,99.229,0,96.027,0
		s-6.403,0.062-9.592,0.186c-0.611,3.5-1.154,8.18-1.63,13.778c3.728-0.146,7.475-0.218,11.223-0.218s7.495,0.073,11.223,0.218
		c3.806,0.148,7.591,0.372,11.335,0.671C117.658,9.045,116.599,4.339,115.41,0.764z"/>
	<path fill="#FFFFFF" d="M54.945,82.978l41.083,13.235L56.224,56.409c-0.328,4.338-0.599,8.788-0.814,13.31
		C55.203,74.082,55.048,78.513,54.945,82.978z"/>
	<path display="none" fill="#7F193B" d="M54.945,82.978c-4.724,0.124-9.308,0.27-13.707,0.438c-4.82,0.184-9.416,0.396-13.721,0.634
		c-5.008,0.277-9.622,0.591-13.74,0.941C8.179,85.466,3.501,86.01,0,86.621l96.027,9.592L54.945,82.978z"/>
	<path fill="#FFFFFF" d="M27.518,84.049c4.305-0.238,8.9-0.45,13.721-0.634c4.398-0.168,8.983-0.314,13.707-0.438
		c0.103-4.465,0.258-8.896,0.465-13.259c0.215-4.522,0.486-8.972,0.814-13.31c-4.603,0.347-9.082,0.757-13.389,1.231
		c-4.729,0.52-9.251,1.116-13.51,1.789c-4.954,0.783-9.549,1.668-13.689,2.657c-5.574,1.332-10.323,2.85-14.018,4.555
		c-0.42,3.356-0.767,6.758-1.04,10.19C0.32,80.072,0.127,83.34,0,86.621c3.501-0.611,8.179-1.154,13.777-1.63
		C17.896,84.64,22.51,84.327,27.518,84.049z"/>
	<path display="none" fill="#7F193B" d="M122.522,55.596c-4.363-0.208-8.795-0.363-13.259-0.465
		c-4.391-0.101-8.813-0.152-13.236-0.152s-8.845,0.051-13.235,0.152l13.235,41.083l39.804-39.804
		C131.493,56.082,127.043,55.811,122.522,55.596z"/>
	<path fill="#FFFFFF" d="M134.6,43.02c-0.521-4.729-1.116-9.251-1.789-13.509l3.021,26.898
		C135.484,51.807,135.074,47.328,134.6,43.02z"/>
	<path fill="#FFFFFF" d="M132.811,29.511c-4.051-0.464-8.189-0.847-12.384-1.151c-4.035-0.292-8.123-0.512-12.236-0.657
		c-4.038-0.142-8.101-0.213-12.164-0.213s-8.125,0.072-12.164,0.213c-0.238,4.305-0.449,8.9-0.634,13.721
		c-0.168,4.399-0.314,8.984-0.438,13.707c4.39-0.101,8.812-0.152,13.235-0.152s8.845,0.051,13.236,0.152
		c4.464,0.103,8.896,0.258,13.259,0.465c4.521,0.215,8.971,0.486,13.31,0.813L132.811,29.511z"/>
	<path fill="#FFFFFF" d="M57.455,43.02l38.572,53.193L61.901,15.821c-0.989,4.14-1.875,8.735-2.657,13.689
		C58.572,33.769,57.975,38.291,57.455,43.02z"/>
	<path display="none" fill="#7F193B" d="M57.455,43.02c-4.488,0.435-8.86,0.949-13.078,1.542l51.65,51.651L57.455,43.02z"/>
	<path fill="#FFFFFF" d="M49.962,17.644c-1.244,4.153-2.357,8.723-3.34,13.623c-0.844,4.207-1.593,8.657-2.245,13.295
		c4.218-0.593,8.59-1.107,13.078-1.542c0.52-4.729,1.117-9.251,1.789-13.509c0.782-4.955,1.668-9.549,2.657-13.689
		C57.832,16.334,53.842,16.941,49.962,17.644z"/>
	<path display="none" fill="#7F193B" d="M42.835,134.785c4.308,0.474,8.786,0.884,13.389,1.231
		c4.338,0.327,8.787,0.599,13.309,0.813c4.363,0.207,8.794,0.362,13.259,0.465c4.39,0.102,8.812,0.152,13.235,0.152V96.213
		L42.835,134.785z"/>
	<path fill="#FFFFFF" d="M82.792,137.295c-4.465-0.103-8.896-0.258-13.259-0.465c-4.522-0.215-8.971-0.486-13.309-0.813
		c-4.603-0.348-9.082-0.758-13.389-1.231c0.435,4.487,0.949,8.86,1.542,13.078c0.652,4.64,1.401,9.089,2.245,13.296
		c0.983,4.9,2.097,9.47,3.34,13.623c3.88,0.702,7.869,1.31,11.938,1.822c3.794,0.478,7.659,0.873,11.568,1.187
		c3.744,0.3,7.53,0.522,11.335,0.672c3.728,0.145,7.475,0.218,11.223,0.218v-13.744v-13.744v-13.745
		C91.605,137.447,87.182,137.396,82.792,137.295z"/>
	<path display="none" fill="#7F193B" d="M96.027,96.213l-54.789,12.798c4.398,0.168,8.983,0.313,13.707,0.438L96.027,96.213z"/>
	<path fill="#FFFFFF" d="M54.945,109.448c0.103,4.465,0.258,8.896,0.465,13.259l40.617-26.494L54.945,109.448z"/>
	<path fill="#FFFFFF" d="M41.819,121.853l-0.581-12.842C41.367,113.332,41.56,117.622,41.819,121.853z"/>
	<path fill="#FFFFFF" d="M55.41,122.707l-13.591-0.854C46.184,122.181,50.731,122.466,55.41,122.707z"/>
	<path fill="#FFFFFF" d="M41.238,109.011l0.581,12.842l13.591,0.854c-0.207-4.363-0.362-8.794-0.465-13.259
		C50.221,109.324,45.637,109.179,41.238,109.011z"/>
</g>
</svg>
