<?xml version="1.0" encoding="utf-8"?>
<!-- Generator: Adobe Illustrator 16.0.0, SVG Export Plug-In . SVG Version: 6.00 Build 0)  -->
<!DOCTYPE svg PUBLIC "-//W3C//DTD SVG 1.1//EN" "http://www.w3.org/Graphics/SVG/1.1/DTD/svg11.dtd">
<svg version="1.1" id="Layer_1" xmlns="http://www.w3.org/2000/svg" xmlns:xlink="http://www.w3.org/1999/xlink" x="0px" y="0px"
	 width="720px" height="720px" viewBox="0 0 720 720" enable-background="new 0 0 720 720" xml:space="preserve">
<rect x="-263.191" y="-244.79" fill="#7F193B" width="1350" height="1430.477"/>
<circle display="none" fill="none" stroke="#231F20" stroke-miterlimit="10" cx="363.809" cy="360.448" r="468"/>
<circle display="none" fill="none" stroke="#00FF00" stroke-width="0.5" stroke-miterlimit="10" cx="359.809" cy="360.448" r="504"/>
<g>
	<path fill="#7F193B" d="M206.131,387.505l153.955-27.334c0,0,0,0-215.791,21.556c7.866,1.373,18.38,2.594,30.96,3.663
		C184.508,386.177,194.877,386.882,206.131,387.505z"/>
	<path fill="#FF336D" d="M206.131,387.505c0.326,9.244,0.818,18.429,1.475,27.494c0.684,9.428,1.545,18.728,2.587,27.831
		c1.111,9.704,2.427,19.186,3.945,28.363c1.675,10.125,3.598,19.881,5.769,29.156l140.178-140.179L206.131,387.505z"/>
	<path fill="#FF336D" d="M214.139,471.193c-1.518-9.178-2.834-18.659-3.945-28.363c-1.042-9.104-1.903-18.403-2.587-27.831
		c-0.657-9.065-1.149-18.25-1.475-27.494c-11.254-0.623-21.623-1.328-30.876-2.115c-12.58-1.069-23.094-2.29-30.96-3.663
		c0.286,7.373,0.719,14.715,1.298,21.999c0.614,7.711,1.393,15.355,2.336,22.898c1.03,8.236,2.257,16.349,3.68,24.294
		c1.612,9,3.475,17.784,5.591,26.282c9.067,5.437,19.994,10.281,32.371,14.532c9.343,3.21,19.511,6.083,30.335,8.617
		C217.736,491.074,215.814,481.318,214.139,471.193z"/>
	<path fill="#FF336D" d="M387.42,514.126l-27.334-153.955l21.557,215.791c1.372-7.866,2.594-18.381,3.663-30.96
		C386.092,535.748,386.797,525.379,387.42,514.126z"/>
	<path fill="#7F193B" d="M414.916,512.65c9.426-0.684,18.727-1.545,27.829-2.587c0,0,0,0-82.659-149.893l27.334,153.955
		C396.664,513.8,405.849,513.308,414.916,512.65z"/>
	<path fill="#FF336D" d="M414.916,512.65c-9.067,0.657-18.252,1.149-27.496,1.476c-0.623,11.253-1.328,21.622-2.114,30.876
		c-1.069,12.579-2.291,23.094-3.663,30.96c7.372-0.286,14.715-0.719,21.998-1.299c7.713-0.613,15.356-1.393,22.898-2.336
		c3.833-8.303,7.244-18.976,10.235-31.501c2.223-9.304,4.213-19.63,5.971-30.763C433.643,511.105,424.342,511.967,414.916,512.65z"
		/>
	<path fill="#7F193B" d="M390.479,421.707c10.247-0.161,20.412-0.404,30.416-0.729c10.359-0.336,20.546-0.76,30.466-1.271
		c10.516-0.542,20.733-1.182,30.544-1.921c10.758-0.811,21.025-1.74,30.662-2.788c11.211-1.218,21.566-2.598,30.842-4.137
		c12.561-2.084,23.136-4.464,31.171-7.137l-214.493-43.555l30.393,61.561C390.479,421.724,390.479,421.715,390.479,421.707z"/>
	<path fill="#FF336D" d="M390.479,421.731l-30.393-61.561l28.759,123.121c0.378-9.884,0.706-20.188,0.983-30.801
		C390.09,442.481,390.306,432.196,390.479,421.731z"/>
	<path fill="#FF336D" d="M543.408,410.862c-9.275,1.539-19.631,2.919-30.842,4.137c-9.637,1.048-19.904,1.978-30.662,2.788
		c-9.811,0.739-20.028,1.379-30.544,1.921c-9.92,0.511-20.106,0.935-30.466,1.271c-10.004,0.324-20.169,0.567-30.416,0.729
		c0,0.008,0,0.017,0,0.024c-0.173,10.465-0.389,20.75-0.65,30.76c-0.277,10.613-0.605,20.917-0.983,30.801
		c9.711-0.287,19.354-0.722,28.857-1.304c9.863-0.603,19.576-1.364,29.063-2.284c10.083-0.976,19.911-2.131,29.39-3.465
		c10.423-1.466,20.424-3.147,29.878-5.046c11.011-2.209,21.281-4.711,30.613-7.506c12.469-3.734,23.262-7.991,31.916-12.77
		c1.423-7.944,2.649-16.058,3.681-24.294c0.943-7.542,1.722-15.188,2.336-22.898C566.544,406.398,555.969,408.778,543.408,410.862z"
		/>
	<path fill="#FF336D" d="M483.209,331.412c-0.289-9.711-0.724-19.354-1.305-28.858c-0.604-9.862-1.365-19.575-2.283-29.062
		l-119.535,86.68l123.123,28.758c0.282-9.542,0.425-19.149,0.425-28.758C483.634,350.562,483.491,340.954,483.209,331.412z"/>
	<path fill="#FF336D" d="M514.041,387.505c11.255-0.623,21.623-1.328,30.876-2.115c12.58-1.069,23.094-2.29,30.96-3.663
		l-92.668,7.202C494.041,388.515,504.367,388.04,514.041,387.505z"/>
	<path fill="#FF336D" d="M575.877,338.615c-0.285-7.373-0.719-14.716-1.298-22c-0.614-7.711-1.394-15.356-2.336-22.898
		c-8.303-3.832-18.976-7.243-31.502-10.235c-9.304-2.222-19.629-4.212-30.763-5.97c-9.567-1.512-19.73-2.852-30.357-4.021
		c0.918,9.487,1.679,19.2,2.283,29.062c0.581,9.505,1.016,19.147,1.305,28.858c0.282,9.542,0.425,19.15,0.425,28.759
		c0,9.608-0.143,19.216-0.425,28.758l92.668-7.202c0.278-7.166,0.418-14.361,0.418-21.556
		C576.295,352.976,576.155,345.781,575.877,338.615z"/>
	<path fill="#FF336D" d="M421.623,329.778c-0.162-10.247-0.404-20.413-0.729-30.416l-60.809,60.809l61.537,30.393
		c0.157-10.079,0.237-20.236,0.237-30.393C421.86,350.014,421.78,339.857,421.623,329.778z"/>
	<path fill="#FF336D" d="M452.406,389.912c-10.018,0.263-20.311,0.479-30.783,0.651c0,0,0,0,17.825,0
		C457.274,390.563,452.406,389.912,452.406,389.912z"/>
	<path fill="#FF336D" d="M452.406,330.429c-0.231-10.033-0.58-19.991-1.046-29.796c-9.92-0.511-20.106-0.935-30.466-1.271
		c0.324,10.003,0.566,20.169,0.729,30.416c0.157,10.079,0.237,20.235,0.237,30.393c0,10.156-0.08,20.313-0.237,30.393
		c10.473-0.173,20.766-0.389,30.783-0.651c0.228-9.864,0.341-19.804,0.341-29.741C452.747,350.232,452.634,340.294,452.406,330.429z
		"/>
	<polygon fill="#7F193B" points="403.641,145.678 338.53,144.379 334.867,175.34 360.086,360.171 410.778,176.849 	"/>
	<path fill="#FF336D" d="M403.641,145.678c-7.283-0.581-14.626-1.013-21.998-1.299c-7.167-0.278-14.362-0.417-21.557-0.417
		s-14.389,0.139-21.556,0.417c-1.373,7.866-2.594,18.38-3.663,30.96c8.377-0.326,16.797-0.491,25.219-0.491
		c8.421,0,16.842,0.165,25.22,0.491c8.553,0.333,17.06,0.836,25.473,1.509C408.693,164.289,406.314,153.712,403.641,145.678z"/>
	<path fill="#FF336D" d="M267.766,330.429l92.32,29.742l-89.446-89.447c-0.736,9.749-1.345,19.747-1.828,29.909
		C268.346,310.438,267.997,320.396,267.766,330.429z"/>
	<path fill="#7F193B" d="M267.766,330.429c-10.614,0.277-20.917,0.605-30.802,0.983c-10.833,0.415-21.159,0.89-30.833,1.425
		c-11.254,0.623-21.623,1.328-30.876,2.114c-12.58,1.07-23.094,2.291-30.96,3.664l215.791,21.556L267.766,330.429z"/>
	<path fill="#FF336D" d="M206.131,332.837c9.674-0.535,20-1.01,30.833-1.425c9.884-0.378,20.188-0.706,30.802-0.983
		c0.231-10.033,0.58-19.991,1.046-29.796c0.483-10.162,1.092-20.16,1.828-29.909c-10.344,0.781-20.408,1.703-30.088,2.767
		c-10.627,1.168-20.79,2.509-30.358,4.02c-11.133,1.758-21.459,3.749-30.763,5.97c-12.525,2.992-23.198,6.404-31.5,10.236
		c-0.943,7.542-1.723,15.187-2.336,22.898c-0.58,7.284-1.013,14.627-1.298,22c7.866-1.373,18.38-2.594,30.96-3.664
		C184.508,334.165,194.877,333.459,206.131,332.837z"/>
	<path fill="#7F193B" d="M419.624,268.896c-9.806-0.466-19.763-0.814-29.796-1.046c-9.865-0.227-19.804-0.341-29.742-0.341
		s-19.876,0.114-29.742,0.341l29.742,92.32l89.445-89.447C439.783,269.989,429.785,269.379,419.624,268.896z"/>
	<path fill="#FF336D" d="M446.766,240.636c-1.169-10.627-2.509-20.79-4.021-30.358l6.786,60.446
		C448.752,260.38,447.83,250.316,446.766,240.636z"/>
	<path fill="#FF336D" d="M442.745,210.278c-9.103-1.042-18.403-1.904-27.829-2.587c-9.067-0.657-18.252-1.15-27.496-1.476
		c-9.073-0.319-18.204-0.479-27.334-0.479s-18.26,0.16-27.333,0.479c-0.536,9.674-1.01,20-1.425,30.833
		c-0.378,9.884-0.706,20.188-0.983,30.802c9.865-0.227,19.803-0.341,29.742-0.341s19.877,0.114,29.742,0.341
		c10.033,0.231,19.99,0.58,29.796,1.046c10.161,0.483,20.159,1.093,29.907,1.828L442.745,210.278z"/>
	<path fill="#FF336D" d="M273.407,240.636l86.679,119.535l-76.688-180.656c-2.222,9.304-4.212,19.63-5.97,30.764
		C275.916,219.847,274.576,230.009,273.407,240.636z"/>
	<path fill="#7F193B" d="M273.407,240.636c-10.084,0.977-19.912,2.132-29.39,3.465l116.068,116.069L273.407,240.636z"/>
	<path fill="#FF336D" d="M256.569,183.61c-2.795,9.332-5.297,19.603-7.506,30.613c-1.898,9.455-3.58,19.455-5.045,29.878
		c9.478-1.333,19.306-2.489,29.39-3.465c1.168-10.627,2.509-20.79,4.02-30.358c1.758-11.134,3.748-21.459,5.97-30.764
		C274.252,180.667,265.289,182.032,256.569,183.61z"/>
	<path fill="#7F193B" d="M240.552,446.851c9.68,1.064,19.745,1.986,30.088,2.766c9.749,0.735,19.747,1.345,29.909,1.828
		c9.805,0.466,19.763,0.815,29.795,1.047c9.865,0.227,19.803,0.34,29.742,0.34v-92.66L240.552,446.851z"/>
	<path fill="#FF336D" d="M330.344,452.491c-10.033-0.231-19.99-0.581-29.795-1.047c-10.162-0.483-20.16-1.093-29.909-1.828
		c-10.344-0.779-20.408-1.701-30.088-2.766c0.977,10.083,2.132,19.91,3.466,29.389c1.466,10.424,3.147,20.424,5.045,29.879
		c2.209,11.011,4.711,21.281,7.506,30.613c8.719,1.578,17.683,2.943,26.828,4.095c8.527,1.074,17.211,1.963,25.997,2.667
		c8.413,0.673,16.92,1.175,25.473,1.509c8.377,0.326,16.797,0.49,25.219,0.49v-30.887v-30.888v-30.887
		C350.147,452.831,340.209,452.718,330.344,452.491z"/>
	<path fill="#7F193B" d="M360.086,360.171l-123.122,28.758c9.884,0.379,20.188,0.706,30.802,0.983L360.086,360.171z"/>
	<path fill="#FF336D" d="M267.766,389.912c0.231,10.033,0.58,19.99,1.046,29.796l91.274-59.537L267.766,389.912z"/>
	<path fill="#FF336D" d="M238.269,417.787l-1.304-28.858C237.252,398.641,237.687,408.282,238.269,417.787z"/>
	<path fill="#FF336D" d="M268.812,419.708l-30.543-1.921C248.079,418.526,258.297,419.166,268.812,419.708z"/>
	<path fill="#FF336D" d="M236.964,388.929l1.304,28.858l30.543,1.921c-0.466-9.806-0.815-19.763-1.046-29.796
		C257.152,389.635,246.849,389.308,236.964,388.929z"/>
</g>
</svg>
