<?xml version="1.0" encoding="utf-8"?>
<!-- Generator: Adobe Illustrator 16.0.0, SVG Export Plug-In . SVG Version: 6.00 Build 0)  -->
<!DOCTYPE svg PUBLIC "-//W3C//DTD SVG 1.1//EN" "http://www.w3.org/Graphics/SVG/1.1/DTD/svg11.dtd">
<svg version="1.1" id="Layer_1" xmlns="http://www.w3.org/2000/svg" xmlns:xlink="http://www.w3.org/1999/xlink" x="0px" y="0px"
	 width="200px" height="168.297px" viewBox="0 0 200 168.297" enable-background="new 0 0 200 168.297" xml:space="preserve">
<g>
	<path d="M187.824,111.324c-7.633-6.116-17.737-9.485-28.453-9.485c-10.715,0-20.819,3.369-28.452,9.485
		c-5.973,4.786-9.9,10.811-11.44,17.39c-11.791-5.148-22.51-4.567-29.875-2.938c-3.553,0.785-6.625,1.866-9.087,2.917
		c-1.543-6.57-5.47-12.587-11.436-17.368c-7.633-6.116-17.738-9.485-28.453-9.485s-20.82,3.369-28.453,9.485
		C4.324,117.616,0,126.049,0,135.068c0,9.019,4.324,17.451,12.176,23.743c7.633,6.116,17.737,9.485,28.453,9.485
		s20.82-3.369,28.453-9.485c7.548-6.05,11.834-14.077,12.154-22.702c2.358-1.157,5.864-2.598,10.161-3.519
		c9.442-2.023,18.632-0.826,27.371,3.556c0.33,8.611,4.614,16.625,12.152,22.665c7.633,6.116,17.737,9.485,28.452,9.485
		c10.716,0,20.82-3.369,28.453-9.485C195.676,152.52,200,144.087,200,135.068C200,126.049,195.676,117.616,187.824,111.324z
		 M40.628,161.549c-18.682,0-33.88-11.879-33.88-26.48c0-14.603,15.199-26.481,33.88-26.481c17.326,0,31.654,10.219,33.643,23.35
		c-0.208,0.135-0.33,0.219-0.361,0.24c-1.594,1.107-1.986,3.293-0.884,4.89c0.333,0.48,0.765,0.852,1.249,1.106
		C72.302,151.317,57.966,161.549,40.628,161.549z M159.371,161.549c-17.335,0-31.67-10.229-33.646-23.371
		c0.545-0.287,1.022-0.718,1.364-1.282c1.01-1.661,0.481-3.826-1.181-4.837c-0.061-0.037-0.121-0.07-0.183-0.107
		c1.979-13.138,16.312-23.364,33.645-23.364c18.683,0,33.881,11.879,33.881,26.481C193.252,149.67,178.054,161.549,159.371,161.549z
		"/>
	<polygon points="43.365,74.471 34.633,54.514 53.19,54.627 41.738,28.489 60.269,29.212 47.405,1 38.064,1 46.741,20.291 
		28.158,19.551 39.609,45.697 21.052,45.588 	"/>
</g>
</svg>
