<?xml version="1.0" encoding="utf-8"?>
<!-- Generator: Adobe Illustrator 16.0.0, SVG Export Plug-In . SVG Version: 6.00 Build 0)  -->
<!DOCTYPE svg PUBLIC "-//W3C//DTD SVG 1.1//EN" "http://www.w3.org/Graphics/SVG/1.1/DTD/svg11.dtd">
<svg version="1.1" id="Layer_1" xmlns="http://www.w3.org/2000/svg" xmlns:xlink="http://www.w3.org/1999/xlink" x="0px" y="0px"
	 width="215.077px" height="215.077px" viewBox="0 0 215.077 215.077" enable-background="new 0 0 215.077 215.077"
	 xml:space="preserve">
<path fill="#FFFFFF" d="M101.042,49.607c0,0-4.891-29.291-48.418-29.291c0,0,9.36,1.622,6.92,4.475
	c-2.447,2.853-15.877-1.22-20.759,10.171c0,0-13.426,9.358-15.866,22.375c0,0,6.915,2.447,9.353,4.473
	c2.44,2.043-7.322,6.513-4.875,14.249c2.437,7.729-6.516,17.542-6.107,23.624c0.402,6.073,22.376,2.415,24.816,4.858
	c2.44,2.438,7.732,25.631,12.202,26.442c4.483,0.81,6.516,1.627,12.616,13.433c6.11,11.791,30.118,50.854,30.118,50.854
	s4.064-30.517,9.353-38.23c5.293-7.737,17.498-21.179,17.086-23.61c-0.398-2.446,8.963,2.04,8.963,2.04s13.017-18.729,12.201-23.604
	c-0.814-4.887,14.646,2.437,14.646,2.437s5.697-30.927,0-39.053c-5.698-8.145,6.104-6.513,4.466-8.551
	C166.131,64.664,131.557,17.06,101.042,49.607z"/>
</svg>
