<?xml version="1.0" encoding="utf-8"?>
<!-- Generator: Adobe Illustrator 16.0.0, SVG Export Plug-In . SVG Version: 6.00 Build 0)  -->
<!DOCTYPE svg PUBLIC "-//W3C//DTD SVG 1.1//EN" "http://www.w3.org/Graphics/SVG/1.1/DTD/svg11.dtd">
<svg version="1.1" id="Layer_1" xmlns="http://www.w3.org/2000/svg" xmlns:xlink="http://www.w3.org/1999/xlink" x="0px" y="0px"
	 width="189px" height="174.104px" viewBox="0 0 189 174.104" enable-background="new 0 0 189 174.104" xml:space="preserve">
<g>
	<path d="M179.49,33.92c-6.741-8.989-16.024-13.74-26.846-13.74c-18.236,0-28.948,18.471-32.97,27.149
		C107.539,35.999,92.67,29.549,78.516,29.549c-9.639,0-18.742,2.843-27.055,8.451c-8.381,5.654-15.891,14.315-20.603,23.765
		c-3.736,7.491-7.487,18.966-4.142,31.088c4.192,15.19,14.967,30.031,32.944,45.369c15.206,12.974,33.022,24.081,47.338,33.007
		c1.42,0.886,2.811,1.753,4.166,2.602c0.291,0.181,0.624,0.274,0.959,0.274c0.158,0,0.316-0.021,0.471-0.062
		c0.486-0.132,0.895-0.459,1.129-0.904c8.107-15.399,20.954-27.902,33.377-39.994c16.333-15.897,33.223-32.336,40.057-55.766
		C191.333,63.067,188.251,45.603,179.49,33.92z"/>
	<path d="M154.112,10.092c-0.98,0.077-1.712,0.934-1.636,1.915c0.077,0.98,0.935,1.709,1.915,1.635
		c0.16-0.014,16.386-1.096,31.531,14.049c0.348,0.348,0.803,0.521,1.259,0.521c0.455,0,0.911-0.174,1.259-0.521
		c0.695-0.695,0.695-1.822,0-2.518C172.145,8.879,154.841,10.035,154.112,10.092z"/>
	<path d="M154.25,3.848c0.031-0.006,3.093-0.639,7.637,0.04c6.073,0.906,11.778,3.6,16.955,8.004
		c0.335,0.285,0.745,0.424,1.153,0.424c0.504,0,1.004-0.213,1.356-0.627c0.638-0.749,0.547-1.872-0.202-2.509
		c-13.745-11.693-27.096-8.933-27.657-8.811c-0.958,0.21-1.562,1.156-1.355,2.115C152.344,3.442,153.287,4.053,154.25,3.848z"/>
	<path d="M19.844,61.681c3.567-9.861,8.646-15.63,8.724-15.719c0.656-0.732,0.595-1.856-0.136-2.513
		c-0.732-0.657-1.857-0.596-2.514,0.135c-0.225,0.25-5.541,6.243-9.365,16.729c-3.52,9.652-6.364,25.093,0.075,43.838
		c0.253,0.738,0.944,1.202,1.684,1.202c0.191,0,0.387-0.031,0.579-0.097c0.929-0.319,1.424-1.332,1.105-2.262
		C13.918,85.305,16.559,70.764,19.844,61.681z"/>
	<path d="M12.841,48.176c0.687-0.702,0.675-1.828-0.026-2.516c-0.702-0.689-1.83-0.678-2.518,0.024
		C9.708,46.285-4.066,60.677,1.195,85.599c0.177,0.838,0.917,1.413,1.74,1.413c0.122,0,0.245-0.012,0.37-0.039
		c0.962-0.203,1.577-1.147,1.374-2.109c-2.535-12.007-0.19-21.328,2.224-27.033C9.516,51.655,12.774,48.246,12.841,48.176z"/>
</g>
</svg>
