<?xml version="1.0" encoding="utf-8"?>
<!-- Generator: Adobe Illustrator 16.0.0, SVG Export Plug-In . SVG Version: 6.00 Build 0)  -->
<!DOCTYPE svg PUBLIC "-//W3C//DTD SVG 1.1//EN" "http://www.w3.org/Graphics/SVG/1.1/DTD/svg11.dtd">
<svg version="1.1" id="Layer_3" xmlns="http://www.w3.org/2000/svg" xmlns:xlink="http://www.w3.org/1999/xlink" x="0px" y="0px"
	 width="192.915px" height="87.485px" viewBox="0 0 192.915 87.485" enable-background="new 0 0 192.915 87.485"
	 xml:space="preserve">
<rect x="-389.24" y="-249.257" display="none" fill="#ED1C24" width="965.719" height="586"/>
<g>
	<g>
		<path stroke="#000000" stroke-width="1.2747" stroke-miterlimit="10" d="M79.604,5.687c21.856,0,37.719,16.483,37.719,39.27
			c0,22.785-15.862,39.268-37.719,39.268h-29.71v-0.772h2.067c7.078,0,7.75-1.396,7.75-2.896V9.046c0-1.602-0.93-2.583-7.75-2.583
			h-2.067V5.687H79.604z M61.002,83.191h18.344c21.288,0,36.686-16.068,36.686-38.234S100.633,6.721,79.346,6.721H61.054
			L61.002,83.191z"/>
		<path stroke="#000000" stroke-width="1.2747" stroke-miterlimit="10" d="M190.637,5.687c0.156,0,0.517,0.104,0.517,0.466
			l1.086,16.534l-0.827,0.104l-0.619-9.611c-0.363-4.909-1.86-6.458-7.08-6.458h-22.217v73.888c0,1.497,0.67,2.843,7.75,2.843h1.808
			v0.772h-20.669v-0.772h2.068c7.078,0,7.75-1.346,7.75-2.843V6.721h-22.476c-5.22,0-6.719,1.55-7.079,6.458l-0.62,9.611
			l-0.827-0.104l1.086-16.534c0-0.362,0.361-0.466,0.517-0.466H190.637z"/>
	</g>
	<g>
		<g>
			<g>
				<path d="M72.063,4.333c1.224-0.38,2.528,0.649,2.612,2.073c0.035,0.701-0.2,1.341-0.638,1.768
					c-0.424,0.434-1.003,0.666-1.636,0.634c-1.281-0.08-2.234-1.042-2.306-2.098C70.032,5.646,70.857,4.706,72.063,4.333z"/>
				<path fill="#FFFFFF" d="M73.234,7.917c0.032-0.126,0.325-0.193,0.527-0.519c0.223-0.315,0.166-0.793,0.297-0.773
					c0.146-0.019,0.396,0.713-0.038,1.166C73.594,8.223,73.169,8.023,73.234,7.917z"/>
			</g>
			<g>
				<path d="M72.401,8.808c0.637,0.029,1.195,0.314,1.568,0.78c0.37,0.461,0.601,1.116,0.479,1.781
					c-0.182,1.364-1.46,2.187-2.688,1.889c-1.235-0.299-1.999-1.43-1.856-2.533c0.106-0.559,0.374-1.034,0.83-1.381
					C71.185,8.997,71.773,8.78,72.401,8.808z"/>
				<path fill="#FFFFFF" d="M72.759,12.541c0.064-0.114,0.343-0.131,0.605-0.405c0.279-0.261,0.314-0.729,0.439-0.684
					c0.152,0.015,0.24,0.753-0.247,1.114C73.053,12.903,72.675,12.633,72.759,12.541z"/>
			</g>
			<g>
				<path d="M71.762,13.258c1.235,0.262,2.028,1.565,1.606,2.848c-0.188,0.642-0.616,1.136-1.171,1.386
					c-0.543,0.257-1.17,0.291-1.762,0.063c-0.59-0.228-1.038-0.666-1.29-1.168c-0.236-0.501-0.323-1.08-0.163-1.632
					C69.343,13.674,70.518,12.994,71.762,13.258z"/>
				<path fill="#FFFFFF" d="M71.522,16.991c0.073-0.105,0.37-0.073,0.67-0.301c0.312-0.214,0.411-0.668,0.528-0.604
					c0.14,0.036,0.149,0.783-0.414,1.049C71.762,17.39,71.427,17.07,71.522,16.991z"/>
			</g>
			<g>
				<path d="M70.435,17.555c1.174,0.432,1.805,1.834,1.212,3.026c-0.278,0.598-0.764,1.028-1.314,1.224
					c-0.567,0.187-1.205,0.139-1.763-0.156c-0.562-0.297-0.942-0.78-1.13-1.313c-0.205-0.543-0.214-1.132,0.033-1.662
					C67.995,17.639,69.231,17.11,70.435,17.555z"/>
				<path fill="#FFFFFF" d="M69.714,21.221c0.082-0.097,0.36-0.035,0.685-0.222c0.34-0.169,0.5-0.601,0.607-0.522
					c0.141,0.059,0.028,0.775-0.537,0.982C69.917,21.652,69.613,21.29,69.714,21.221z"/>
			</g>
			<g>
				<path d="M68.57,21.649c1.126,0.581,1.521,1.989,0.877,3.144c-0.697,1.113-2.14,1.424-3.188,0.718
					c-1.054-0.71-1.377-2.078-0.753-3.069C66.071,21.421,67.444,21.068,68.57,21.649z"/>
				<path fill="#FFFFFF" d="M67.433,25.196c0.096-0.085,0.368,0.005,0.718-0.139c0.362-0.125,0.578-0.526,0.676-0.438
					c0.133,0.074-0.07,0.757-0.663,0.893C67.583,25.639,67.323,25.252,67.433,25.196z"/>
			</g>
			<g>
				<path d="M66.26,25.51c1.053,0.683,1.375,2.169,0.571,3.196c-0.781,1.046-2.216,1.249-3.204,0.455
					c-0.987-0.794-1.216-2.207-0.508-3.153C63.852,25.078,65.187,24.813,66.26,25.51z"/>
				<path fill="#FFFFFF" d="M64.808,28.938c0.101-0.078,0.363,0.035,0.719-0.082c0.366-0.096,0.607-0.481,0.697-0.385
					c0.125,0.087-0.123,0.755-0.719,0.844C64.924,29.395,64.695,28.985,64.808,28.938z"/>
			</g>
			<g>
				<path d="M63.626,29.161c1.016,0.794,1.135,2.221,0.297,3.211c-0.418,0.491-0.991,0.767-1.57,0.808
					c-0.583,0.042-1.147-0.169-1.632-0.58c-0.483-0.408-0.73-1.011-0.783-1.587c-0.052-0.581,0.105-1.162,0.493-1.618
					C61.2,28.486,62.646,28.394,63.626,29.161z"/>
				<path fill="#FFFFFF" d="M61.905,32.457c0.104-0.07,0.357,0.062,0.718-0.029c0.369-0.07,0.633-0.438,0.715-0.335
					c0.119,0.096-0.172,0.747-0.767,0.792C61.991,32.922,61.792,32.496,61.905,32.457z"/>
			</g>
			<g>
				<path d="M60.721,32.599c0.475,0.419,0.749,0.987,0.825,1.546c0.077,0.563-0.065,1.095-0.386,1.574
					c-0.33,0.47-0.852,0.734-1.411,0.831c-0.551,0.101-1.167,0.005-1.702-0.334c-0.536-0.338-0.885-0.863-1.006-1.454
					c-0.114-0.585,0.041-1.222,0.427-1.769c0.375-0.554,0.993-0.857,1.584-0.925C59.649,32,60.245,32.181,60.721,32.599z"/>
				<path fill="#FFFFFF" d="M59.202,35.913c0.096-0.077,0.365,0.024,0.709-0.086c0.353-0.09,0.564-0.449,0.656-0.354
					c0.124,0.09-0.068,0.703-0.647,0.784C59.35,36.337,59.09,35.964,59.202,35.913z"/>
			</g>
			<g>
				<path d="M58.047,36.216c0.535,0.34,0.888,0.858,1.038,1.402c0.14,0.54,0.1,1.128-0.178,1.648
					c-0.579,1.01-1.908,1.438-3.05,0.879c-1.134-0.555-1.616-1.958-0.961-3.107c0.31-0.576,0.828-0.965,1.417-1.106
					C56.892,35.785,57.513,35.875,58.047,36.216z"/>
				<path fill="#FFFFFF" d="M56.976,39.717c0.082-0.091,0.358-0.024,0.69-0.177c0.344-0.135,0.515-0.524,0.618-0.441
					c0.135,0.074,0.007,0.715-0.559,0.874C57.179,40.133,56.875,39.784,56.976,39.717z"/>
			</g>
			<g>
				<path d="M55.856,40.146c1.134,0.576,1.607,1.882,1.126,2.982c-0.504,1.083-1.818,1.608-2.992,1.115
					c-1.162-0.489-1.732-1.839-1.188-3.01C53.32,40.055,54.73,39.574,55.856,40.146z"/>
				<path fill="#FFFFFF" d="M55.086,43.742c0.079-0.096,0.354-0.051,0.675-0.232c0.333-0.165,0.476-0.571,0.585-0.495
					c0.141,0.061,0.056,0.721-0.495,0.929C55.314,44.146,54.989,43.815,55.086,43.742z"/>
			</g>
			<g>
				<path d="M53.991,44.243c1.167,0.5,1.722,1.798,1.271,2.938c-0.459,1.133-1.777,1.7-2.958,1.235
					c-1.179-0.462-1.775-1.776-1.299-2.949C51.469,44.295,52.829,43.745,53.991,44.243z"/>
				<path fill="#FFFFFF" d="M53.387,47.882c0.076-0.1,0.357-0.062,0.669-0.258c0.326-0.18,0.455-0.597,0.565-0.526
					c0.144,0.055,0.086,0.73-0.461,0.961C53.624,48.282,53.291,47.958,53.387,47.882z"/>
			</g>
			<g>
				<path d="M52.304,48.417c1.178,0.467,1.771,1.769,1.319,2.932c-0.449,1.159-1.781,1.73-2.959,1.263
					c-1.178-0.468-1.766-1.771-1.317-2.93C49.795,48.527,51.125,47.953,52.304,48.417z"/>
				<path fill="#FFFFFF" d="M51.75,52.075c0.077-0.1,0.359-0.062,0.669-0.264c0.324-0.185,0.449-0.609,0.561-0.539
					c0.144,0.053,0.091,0.741-0.455,0.976C51.988,52.473,51.655,52.15,51.75,52.075z"/>
			</g>
			<g>
				<path d="M50.664,52.611c1.174,0.464,1.773,1.784,1.289,2.955c-0.472,1.174-1.823,1.715-2.99,1.213
					c-1.16-0.5-1.716-1.808-1.26-2.943C48.17,52.71,49.482,52.143,50.664,52.611z"/>
				<path fill="#FFFFFF" d="M50.064,56.27c0.078-0.1,0.359-0.057,0.673-0.253c0.328-0.181,0.462-0.607,0.573-0.535
					c0.143,0.055,0.076,0.75-0.476,0.978C50.294,56.676,49.969,56.344,50.064,56.27z"/>
			</g>
			<g>
				<path d="M48.962,56.779c1.161,0.493,1.72,1.846,1.184,3.011c-0.535,1.167-1.903,1.654-3.047,1.088
					c-1.127-0.557-1.633-1.892-1.131-2.985C46.472,56.797,47.79,56.283,48.962,56.779z"/>
				<path fill="#FFFFFF" d="M48.223,60.42c0.081-0.096,0.361-0.04,0.685-0.226c0.337-0.168,0.491-0.591,0.599-0.514
					c0.141,0.06,0.039,0.757-0.524,0.963C48.433,60.839,48.123,60.489,48.223,60.42z"/>
			</g>
			<g>
				<path d="M47.1,60.877c1.137,0.549,1.606,1.938,1.004,3.085c-0.632,1.14-2.023,1.542-3.118,0.89
					c-1.084-0.645-1.507-2.012-0.932-3.047C44.604,60.752,45.954,60.327,47.1,60.877z"/>
				<path fill="#FFFFFF" d="M46.131,64.471c0.088-0.09,0.364-0.017,0.701-0.181c0.351-0.145,0.536-0.56,0.639-0.475
					c0.137,0.066-0.019,0.762-0.596,0.932C46.309,64.905,46.026,64.533,46.131,64.471z"/>
			</g>
			<g>
				<path d="M44.986,64.852c1.098,0.631,1.433,2.049,0.744,3.166c-0.74,1.091-2.185,1.356-3.202,0.605
					c-1.021-0.755-1.306-2.139-0.649-3.103C42.494,64.52,43.887,64.222,44.986,64.852z"/>
				<path fill="#FFFFFF" d="M43.706,68.351c0.098-0.082,0.366,0.02,0.72-0.114c0.365-0.113,0.593-0.509,0.687-0.417
					c0.131,0.077-0.095,0.759-0.691,0.874C43.841,68.8,43.595,68.403,43.706,68.351z"/>
			</g>
			<g>
				<path d="M42.528,68.624c1.049,0.744,1.229,2.188,0.407,3.231c-0.393,0.527-1.012,0.791-1.599,0.836
					c-0.595,0.043-1.188-0.153-1.655-0.584c-0.466-0.428-0.723-1-0.776-1.565c-0.056-0.572,0.121-1.109,0.469-1.582
					C40.09,68.049,41.51,67.903,42.528,68.624z"/>
				<path fill="#FFFFFF" d="M40.89,71.975c0.108-0.068,0.364,0.062,0.734-0.03c0.388-0.065,0.635-0.455,0.721-0.353
					c0.06,0.047,0.022,0.239-0.105,0.427c-0.139,0.181-0.37,0.355-0.675,0.379C40.97,72.438,40.774,72.015,40.89,71.975z"/>
			</g>
			<g>
				<path d="M39.681,72.107c0.468,0.429,0.721,1.007,0.738,1.609c0.011,0.597-0.248,1.188-0.72,1.653
					c-0.937,0.957-2.462,0.821-3.262-0.145c-0.815-0.988-0.722-2.334,0.08-3.161c0.413-0.408,0.981-0.581,1.548-0.581
					C38.625,71.479,39.214,71.681,39.681,72.107z"/>
				<path fill="#FFFFFF" d="M37.665,75.255c0.116-0.056,0.362,0.115,0.728,0.055c0.375-0.036,0.679-0.385,0.75-0.273
					c0.107,0.104-0.249,0.748-0.86,0.723C37.683,75.719,37.543,75.279,37.665,75.255z"/>
			</g>
			<g>
				<path d="M36.438,75.225c0.411,0.481,0.585,1.085,0.52,1.681c-0.06,0.6-0.365,1.188-0.913,1.561
					c-1.085,0.786-2.521,0.542-3.211-0.551c-0.663-1.051-0.454-2.463,0.476-3.134c0.482-0.324,1.042-0.458,1.599-0.392
					C35.467,74.462,36.027,74.741,36.438,75.225z"/>
				<path fill="#FFFFFF" d="M34.034,78.085c0.12-0.043,0.333,0.145,0.71,0.14c0.38,0.018,0.732-0.28,0.789-0.161
					c0.096,0.119-0.356,0.689-0.954,0.596C34,78.561,33.914,78.096,34.034,78.085z"/>
			</g>
			<g>
				<path d="M32.833,77.916c0.701,1.055,0.344,2.477-0.799,3.166c-1.171,0.634-2.586,0.17-3.127-0.968
					c-0.547-1.152-0.14-2.483,0.875-3.03C30.765,76.484,32.133,76.859,32.833,77.916z"/>
				<path fill="#FFFFFF" d="M30.08,80.432c0.125-0.025,0.315,0.189,0.692,0.239c0.377,0.071,0.772-0.164,0.809-0.048
					c0.084,0.139-0.444,0.624-1.029,0.447C29.984,80.89,29.957,80.424,30.08,80.432z"/>
			</g>
			<g>
				<path d="M28.907,80.114c0.279,0.569,0.303,1.199,0.099,1.767c-0.2,0.572-0.656,1.013-1.259,1.271
					c-0.607,0.253-1.251,0.242-1.789,0.015c-0.541-0.237-0.981-0.71-1.194-1.303c-0.216-0.6-0.169-1.204,0.051-1.735
					c0.215-0.538,0.609-0.98,1.151-1.207c0.539-0.23,1.145-0.175,1.667,0.021C28.156,79.14,28.629,79.544,28.907,80.114z"/>
				<path fill="#FFFFFF" d="M25.895,82.317c0.125-0.016,0.29,0.217,0.655,0.298c0.363,0.105,0.771-0.104,0.797,0.025
					c0.064,0.14-0.501,0.591-1.056,0.361C25.753,82.771,25.774,82.301,25.895,82.317z"/>
			</g>
			<g>
				<path d="M24.764,81.864c0.44,1.19-0.216,2.49-1.465,2.906c-1.253,0.392-2.538-0.385-2.842-1.601
					c-0.312-1.242,0.381-2.437,1.5-2.788C23.066,80.011,24.324,80.675,24.764,81.864z"/>
				<path fill="#FFFFFF" d="M21.54,83.73c0.127,0.001,0.269,0.253,0.625,0.383c0.355,0.16,0.777-0.019,0.79,0.111
					c0.052,0.155-0.552,0.54-1.086,0.229C21.355,84.156,21.421,83.697,21.54,83.73z"/>
			</g>
			<g>
				<path d="M20.457,83.169c0.159,0.612,0.056,1.232-0.253,1.741c-0.308,0.502-0.818,0.925-1.455,1.029
					c-1.277,0.246-2.482-0.57-2.691-1.82c-0.209-1.25,0.565-2.445,1.732-2.668c0.592-0.096,1.161-0.003,1.644,0.308
					C19.914,82.063,20.297,82.557,20.457,83.169z"/>
				<path fill="#FFFFFF" d="M17.088,84.75c0.126,0.011,0.247,0.271,0.59,0.424c0.337,0.176,0.773,0.055,0.775,0.185
					c0.036,0.149-0.595,0.475-1.097,0.139C16.87,85.164,16.973,84.71,17.088,84.75z"/>
			</g>
			<g>
				<path d="M16.058,84.12c0.109,0.623-0.042,1.235-0.387,1.723c-0.345,0.488-0.886,0.801-1.523,0.889
					c-1.281,0.166-2.422-0.722-2.547-1.982s0.732-2.409,1.917-2.563c0.594-0.081,1.175,0.119,1.631,0.455
					S15.948,83.495,16.058,84.12z"/>
				<path fill="#FFFFFF" d="M12.583,85.44c0.125,0.02,0.227,0.285,0.556,0.461c0.323,0.194,0.764,0.099,0.757,0.23
					c0.025,0.152-0.623,0.438-1.098,0.072C12.339,85.841,12.472,85.393,12.583,85.44z"/>
			</g>
			<g>
				<path d="M11.6,84.749c0.141,1.276-0.788,2.375-2.069,2.469c-1.282,0.096-2.365-0.854-2.42-2.122
					c-0.054-1.265,0.873-2.364,2.071-2.453C10.379,82.554,11.463,83.505,11.6,84.749z"/>
				<path fill="#FFFFFF" d="M8.052,85.841c0.124,0.024,0.208,0.298,0.526,0.489c0.31,0.213,0.754,0.145,0.739,0.274
					c0.016,0.151-0.645,0.402-1.096,0.011C7.785,86.229,7.943,85.789,8.052,85.841z"/>
			</g>
			<g>
				<path d="M7.111,85.095c0.067,1.266-0.917,2.317-2.195,2.346c-1.278,0.031-2.312-0.974-2.306-2.239
					c0.005-1.268,0.989-2.319,2.196-2.347C6.012,82.827,7.044,83.831,7.111,85.095z"/>
				<path fill="#FFFFFF" d="M3.512,85.995c0.122,0.03,0.193,0.305,0.5,0.515c0.297,0.228,0.744,0.181,0.722,0.311
					c0.008,0.153-0.662,0.37-1.092-0.045C3.227,86.367,3.406,85.935,3.512,85.995z"/>
			</g>
		</g>
		<g>
			<g>
				<path d="M72.063,3.695c-0.542,1.145-1.737,1.738-2.813,1.443c-1.064-0.303-1.811-1.43-1.662-2.692
					c0.086-0.625,0.437-1.162,0.967-1.485c0.528-0.33,1.23-0.436,1.926-0.244C71.889,1.104,72.609,2.547,72.063,3.695z"/>
				<path fill="#FFFFFF" d="M68.343,3.4c0.11,0.054,0.122,0.343,0.356,0.615c0.218,0.288,0.627,0.358,0.572,0.479
					c-0.042,0.145-0.673,0.191-0.968-0.303C68.008,3.71,68.249,3.32,68.343,3.4z"/>
			</g>
			<g>
				<path d="M67.589,2.447C67.381,3.7,66.33,4.562,65.308,4.589c-0.529,0.003-1.001-0.192-1.425-0.554
					c-0.412-0.345-0.781-0.855-0.925-1.473c-0.145-0.616-0.002-1.233,0.415-1.732c0.41-0.479,1.095-0.824,1.854-0.829
					c0.762-0.019,1.426,0.293,1.847,0.748C67.496,1.214,67.681,1.816,67.589,2.447z"/>
				<path fill="#FFFFFF" d="M63.979,3.207c0.12,0.021,0.22,0.279,0.514,0.469c0.285,0.212,0.673,0.154,0.658,0.29
					c-0.002,0.149-0.549,0.372-0.959,0.004C63.778,3.603,63.865,3.16,63.979,3.207z"/>
			</g>
			<g>
				<path d="M62.958,2.562c0.136,0.613,0.027,1.243-0.188,1.728c-0.105,0.251-0.234,0.48-0.394,0.656
					c-0.146,0.202-0.335,0.331-0.536,0.45c-0.207,0.109-0.432,0.16-0.665,0.187c-0.242,0.012-0.493-0.004-0.753-0.054
					c-0.53-0.122-1.092-0.355-1.532-0.814c-0.436-0.455-0.647-1.078-0.506-1.711c0.062-0.323,0.206-0.648,0.437-0.933
					c0.221-0.3,0.529-0.55,0.892-0.741c0.357-0.2,0.75-0.278,1.108-0.314c0.367-0.007,0.709,0.047,1.004,0.171
					C62.427,1.452,62.819,1.939,62.958,2.562z"/>
				<path fill="#FFFFFF" d="M60.086,4.759c0.104-0.047,0.329,0.141,0.666,0.175c0.331,0.046,0.635-0.153,0.68-0.03
					c0.038,0.067-0.038,0.206-0.181,0.306c-0.135,0.113-0.341,0.182-0.612,0.108C60.121,5.204,59.965,4.777,60.086,4.759z"/>
			</g>
			<g>
				<path d="M58.892,4.713c0.438,0.468,0.643,1.038,0.727,1.574c0.073,0.537,0.012,1.032-0.259,1.453
					c-0.125,0.223-0.315,0.386-0.519,0.54c-0.203,0.153-0.447,0.27-0.717,0.35c-0.527,0.164-1.144,0.195-1.738-0.037
					c-0.586-0.229-1.034-0.694-1.22-1.299c-0.084-0.3-0.109-0.635-0.067-0.981c0.043-0.346,0.191-0.694,0.386-1.029
					c0.423-0.664,1.084-1.084,1.727-1.17C57.85,4.016,58.464,4.256,58.892,4.713z"/>
				<path fill="#FFFFFF" d="M57.486,8.092c0.081-0.09,0.362-0.031,0.672-0.18c0.329-0.126,0.504-0.467,0.6-0.385
					c0.131,0.088,0.012,0.643-0.516,0.803C57.703,8.481,57.383,8.162,57.486,8.092z"/>
			</g>
			<g>
				<path d="M56.385,8.593c0.295,0.116,0.552,0.286,0.769,0.486c0.218,0.195,0.376,0.447,0.553,0.63
					c0.162,0.19,0.281,0.363,0.374,0.585c0.077,0.195,0.128,0.435,0.112,0.683c-0.052,0.991-0.955,2.088-2.222,2.206
					c-1.249,0.119-2.428-0.863-2.361-2.446c0.024-0.395,0.113-0.767,0.297-1.12c0.159-0.333,0.417-0.644,0.697-0.857
					c0.273-0.229,0.577-0.288,0.88-0.313C55.785,8.427,56.09,8.477,56.385,8.593z"/>
				<path fill="#FFFFFF" d="M56.718,12.221c0.03-0.119,0.296-0.205,0.508-0.492c0.237-0.273,0.198-0.674,0.33-0.646
					c0.157,0.011,0.339,0.574-0.06,0.987C57.098,12.474,56.663,12.332,56.718,12.221z"/>
			</g>
			<g>
				<path d="M55.97,13.182c1.264-0.091,2.363,0.759,2.555,1.967c0.185,1.213-0.633,2.407-1.879,2.641
					c-1.245,0.233-2.455-0.621-2.659-1.953C53.777,14.503,54.704,13.273,55.97,13.182z"/>
				<path fill="#FFFFFF" d="M57.283,16.739c0.013-0.127,0.275-0.244,0.437-0.58c0.182-0.329,0.075-0.759,0.21-0.755
					c0.146-0.026,0.453,0.592,0.105,1.08C57.691,16.96,57.241,16.856,57.283,16.739z"/>
			</g>
			<g>
				<path d="M56.646,17.79c1.246-0.224,2.441,0.591,2.691,1.838c0.249,1.248-0.544,2.476-1.786,2.731
					c-1.241,0.255-2.46-0.559-2.715-1.834C54.581,19.25,55.398,18.014,56.646,17.79z"/>
				<path fill="#FFFFFF" d="M58.161,21.29c0.009-0.128,0.266-0.254,0.416-0.6c0.17-0.34,0.048-0.774,0.18-0.776
					c0.148-0.032,0.478,0.59,0.149,1.097C58.579,21.503,58.123,21.409,58.161,21.29z"/>
			</g>
			<g>
				<path d="M57.551,22.359c1.241-0.253,2.457,0.558,2.716,1.823c0.258,1.267-0.544,2.498-1.789,2.742
					c-1.242,0.244-2.452-0.57-2.707-1.824C55.513,23.845,56.309,22.613,57.551,22.359z"/>
				<path fill="#FFFFFF" d="M59.095,25.856c0.008-0.129,0.267-0.253,0.417-0.601c0.171-0.341,0.044-0.781,0.176-0.782
					c0.149-0.034,0.481,0.597,0.152,1.106C59.512,26.073,59.056,25.976,59.095,25.856z"/>
			</g>
			<g>
				<path d="M58.478,26.924c1.243-0.247,2.456,0.583,2.696,1.865c0.239,1.283-0.59,2.501-1.841,2.715
					c-1.248,0.212-2.437-0.624-2.67-1.87C56.431,28.387,57.234,27.172,58.478,26.924z"/>
				<path fill="#FFFFFF" d="M59.973,30.448c0.012-0.129,0.272-0.249,0.428-0.594c0.178-0.339,0.06-0.785,0.19-0.782
					c0.151-0.033,0.47,0.61,0.131,1.115C60.386,30.676,59.932,30.566,59.973,30.448z"/>
			</g>
			<g>
				<path d="M59.333,31.504c1.245-0.219,2.445,0.646,2.645,1.946c0.202,1.299-0.672,2.493-1.931,2.657
					c-1.255,0.165-2.412-0.708-2.604-1.952C57.252,32.911,58.083,31.723,59.333,31.504z"/>
				<path fill="#FFFFFF" d="M60.723,35.074c0.016-0.129,0.281-0.239,0.449-0.582c0.191-0.335,0.082-0.784,0.214-0.778
					c0.153-0.028,0.455,0.628,0.096,1.124C61.128,35.317,60.678,35.191,60.723,35.074z"/>
			</g>
			<g>
				<path d="M60.047,36.106c1.249-0.173,2.422,0.743,2.563,2.059c0.155,1.315-0.796,2.474-2.053,2.571
					c-1.271,0.1-2.361-0.824-2.508-2.065C57.917,37.431,58.787,36.281,60.047,36.106z"/>
				<path fill="#FFFFFF" d="M61.284,39.738c0.022-0.129,0.293-0.227,0.478-0.562c0.201-0.326,0.114-0.782,0.246-0.771
					c0.148-0.021,0.433,0.65,0.046,1.131C61.677,40,61.233,39.853,61.284,39.738z"/>
			</g>
			<g>
				<path d="M60.558,40.736c1.267-0.113,2.375,0.87,2.452,2.202c0.072,1.334-0.941,2.434-2.208,2.45
					c-1.266,0.016-2.307-0.97-2.374-2.206C58.356,41.946,59.3,40.849,60.558,40.736z"/>
				<path fill="#FFFFFF" d="M61.594,44.435c0.03-0.127,0.303-0.208,0.504-0.532c0.222-0.314,0.163-0.778,0.294-0.759
					c0.151-0.013,0.384,0.68-0.019,1.137C61.97,44.724,61.534,44.546,61.594,44.435z"/>
			</g>
			<g>
				<path d="M60.801,45.388c1.271-0.032,2.319,1.027,2.298,2.373c-0.035,1.348-1.119,2.371-2.392,2.283
					c-1.256-0.089-2.229-1.148-2.196-2.372C58.53,46.445,59.539,45.419,60.801,45.388z"/>
				<path fill="#FFFFFF" d="M61.57,49.156c0.039-0.125,0.319-0.185,0.546-0.495c0.246-0.298,0.227-0.768,0.355-0.738
					c0.153-0.002,0.328,0.711-0.113,1.14C61.925,49.473,61.504,49.262,61.57,49.156z"/>
			</g>
			<g>
				<path d="M60.708,50.044c1.257,0.066,2.241,1.219,2.081,2.571c-0.144,1.354-1.349,2.272-2.587,2.058
					c-1.259-0.219-2.102-1.356-1.974-2.562C58.371,50.91,59.435,49.974,60.708,50.044z"/>
				<path fill="#FFFFFF" d="M61.138,53.87c0.051-0.121,0.336-0.153,0.595-0.44c0.285-0.276,0.287-0.75,0.416-0.708
					c0.156,0.011,0.276,0.745-0.216,1.13C61.457,54.222,61.062,53.969,61.138,53.87z"/>
			</g>
			<g>
				<path d="M60.201,54.673c1.24,0.189,2.095,1.443,1.79,2.785c-0.286,1.347-1.616,2.122-2.816,1.755
					c-1.224-0.372-1.908-1.585-1.662-2.758C57.78,55.291,58.937,54.478,60.201,54.673z"/>
				<path fill="#FFFFFF" d="M60.209,58.528c0.063-0.114,0.362-0.11,0.642-0.372c0.298-0.246,0.369-0.718,0.489-0.663
					c0.146,0.027,0.194,0.78-0.338,1.11C60.482,58.917,60.121,58.618,60.209,58.528z"/>
			</g>
			<g>
				<path d="M59.174,59.213c1.231,0.342,1.898,1.692,1.432,3.004c-0.253,0.642-0.709,1.134-1.266,1.376
					c-0.565,0.244-1.197,0.249-1.774-0.013s-0.994-0.731-1.212-1.257c-0.222-0.531-0.277-1.133-0.057-1.687
					C56.693,59.524,57.963,58.877,59.174,59.213z"/>
				<path fill="#FFFFFF" d="M58.694,63.048c0.078-0.106,0.36-0.067,0.677-0.289c0.333-0.204,0.471-0.663,0.583-0.593
					c0.146,0.047,0.068,0.799-0.489,1.061C58.919,63.474,58.596,63.125,58.694,63.048z"/>
			</g>
			<g>
				<path d="M57.566,63.581c0.578,0.261,0.992,0.737,1.182,1.322c0.19,0.58,0.115,1.25-0.202,1.866
					c-0.688,1.223-2.15,1.61-3.211,0.894c-1.039-0.701-1.388-2.079-0.814-3.098c0.269-0.527,0.76-0.878,1.301-1.063
					C56.359,63.317,56.988,63.321,57.566,63.581z"/>
				<path fill="#FFFFFF" d="M56.521,67.303c0.095-0.092,0.369-0.011,0.721-0.179c0.364-0.151,0.579-0.582,0.672-0.499
					c0.147,0.072-0.06,0.799-0.655,0.974C56.675,67.758,56.412,67.365,56.521,67.303z"/>
			</g>
			<g>
				<path d="M55.334,67.663c0.531,0.347,0.861,0.88,0.953,1.484c0.045,0.302,0.033,0.62-0.043,0.934
					c-0.088,0.306-0.239,0.607-0.452,0.882c-0.213,0.272-0.463,0.497-0.74,0.655c-0.286,0.152-0.59,0.244-0.894,0.274
					c-0.606,0.063-1.206-0.124-1.674-0.553c-0.468-0.426-0.724-1.006-0.775-1.576c-0.025-0.285,0.001-0.571,0.083-0.838
					c0.072-0.276,0.19-0.542,0.373-0.775c0.181-0.234,0.405-0.419,0.658-0.554c0.239-0.145,0.507-0.242,0.791-0.289
					C54.18,67.214,54.804,67.318,55.334,67.663z"/>
				<path fill="#FFFFFF" d="M53.712,71.173c0.111-0.075,0.369,0.051,0.75-0.056c0.376-0.096,0.64-0.5,0.727-0.399
					c0.12,0.085-0.155,0.806-0.792,0.865C53.788,71.643,53.593,71.215,53.712,71.173z"/>
			</g>
			<g>
				<path d="M52.484,71.339c0.96,0.853,0.944,2.357-0.059,3.335c-0.516,0.462-1.155,0.686-1.753,0.664
					c-0.607-0.03-1.182-0.321-1.579-0.811c-0.4-0.495-0.553-1.093-0.517-1.667c0.031-0.586,0.26-1.135,0.705-1.53
					C50.118,70.511,51.547,70.512,52.484,71.339z"/>
				<path fill="#FFFFFF" d="M50.336,74.553c0.117-0.059,0.352,0.104,0.737,0.05c0.389-0.032,0.722-0.379,0.79-0.267
					c0.109,0.108-0.3,0.742-0.918,0.726C50.344,75.037,50.214,74.58,50.336,74.553z"/>
			</g>
			<g>
				<path d="M49.093,74.528c0.4,0.491,0.553,1.102,0.459,1.703c-0.047,0.302-0.153,0.602-0.319,0.876
					c-0.173,0.262-0.403,0.502-0.685,0.697c-1.125,0.817-2.627,0.471-3.267-0.607c-0.655-1.1-0.324-2.449,0.633-3.149
					c0.246-0.174,0.517-0.284,0.802-0.34c0.275-0.065,0.561-0.079,0.845-0.04C48.131,73.748,48.693,74.037,49.093,74.528z"/>
				<path fill="#FFFFFF" d="M46.51,77.397c0.125-0.043,0.344,0.167,0.726,0.159c0.386,0.019,0.756-0.285,0.808-0.164
					c0.09,0.119-0.385,0.712-0.998,0.596C46.448,77.865,46.384,77.403,46.51,77.397z"/>
			</g>
			<g>
				<path d="M45.282,77.197c0.33,0.542,0.403,1.171,0.236,1.76c-0.167,0.585-0.591,1.091-1.188,1.419
					c-0.594,0.334-1.269,0.359-1.842,0.174c-0.576-0.188-1.054-0.597-1.318-1.171c-0.265-0.576-0.272-1.208-0.085-1.755
					c0.187-0.55,0.574-1.006,1.1-1.305c0.53-0.292,1.144-0.315,1.7-0.166C44.435,76.301,44.951,76.657,45.282,77.197z"/>
				<path fill="#FFFFFF" d="M42.361,79.712c0.129-0.024,0.316,0.195,0.701,0.25c0.387,0.083,0.781-0.188,0.82-0.059
					c0.077,0.136-0.463,0.658-1.062,0.459C42.247,80.173,42.235,79.704,42.361,79.712z"/>
			</g>
			<g>
				<path d="M41.168,79.378c0.266,0.573,0.268,1.21,0.038,1.773c-0.234,0.546-0.7,1.018-1.324,1.273
					c-1.255,0.522-2.631-0.13-3.035-1.314c-0.414-1.212,0.207-2.477,1.328-2.944c0.564-0.232,1.176-0.207,1.72,0.019
					C40.431,78.393,40.902,78.8,41.168,79.378z"/>
				<path fill="#FFFFFF" d="M38,81.562c0.131-0.011,0.295,0.226,0.671,0.32c0.375,0.122,0.792-0.105,0.816,0.03
					c0.062,0.141-0.523,0.6-1.095,0.343C37.843,82.008,37.876,81.542,38,81.562z"/>
			</g>
			<g>
				<path d="M36.847,81.111c0.209,0.598,0.15,1.229-0.128,1.769c-0.279,0.534-0.783,0.947-1.421,1.146
					c-1.283,0.413-2.596-0.349-2.908-1.566c-0.317-1.236,0.411-2.447,1.577-2.826c0.589-0.183,1.205-0.094,1.723,0.168
					C36.206,80.058,36.638,80.513,36.847,81.111z"/>
				<path fill="#FFFFFF" d="M33.503,83.011c0.131-0.002,0.277,0.258,0.64,0.37c0.357,0.137,0.794-0.036,0.807,0.096
					c0.048,0.141-0.57,0.553-1.114,0.258C33.311,83.441,33.381,82.98,33.503,83.011z"/>
			</g>
			<g>
				<path d="M32.39,82.459c0.327,1.209-0.451,2.525-1.758,2.791c-1.304,0.285-2.549-0.5-2.783-1.76
					c-0.229-1.233,0.566-2.452,1.775-2.718C30.838,80.529,32.056,81.221,32.39,82.459z"/>
				<path fill="#FFFFFF" d="M28.919,84.105c0.13,0.008,0.256,0.264,0.61,0.408c0.347,0.165,0.793,0.031,0.796,0.163
					c0.038,0.147-0.606,0.493-1.125,0.171C28.7,84.528,28.8,84.069,28.919,84.105z"/>
			</g>
			<g>
				<path d="M27.849,83.491c0.246,1.243-0.617,2.44-1.927,2.672c-1.31,0.206-2.509-0.68-2.671-1.931
					c-0.166-1.263,0.708-2.406,1.938-2.6C26.412,81.415,27.603,82.249,27.849,83.491z"/>
				<path fill="#FFFFFF" d="M24.284,84.907c0.129,0.017,0.24,0.282,0.584,0.45c0.336,0.191,0.789,0.09,0.784,0.217
					c0.029,0.159-0.632,0.449-1.129,0.092C24.042,85.312,24.167,84.862,24.284,84.907z"/>
			</g>
			<g>
				<path d="M23.25,84.232c0.175,1.251-0.746,2.438-2.061,2.561c-1.314,0.141-2.462-0.771-2.568-2.044
					c-0.104-1.252,0.821-2.385,2.066-2.517C21.935,82.115,23.074,82.973,23.25,84.232z"/>
				<path fill="#FFFFFF" d="M19.621,85.469c0.128,0.021,0.225,0.29,0.56,0.471c0.325,0.202,0.781,0.118,0.77,0.25
					c0.021,0.149-0.65,0.422-1.129,0.047C19.359,85.866,19.505,85.42,19.621,85.469z"/>
			</g>
			<g>
				<path d="M18.621,84.749c0.115,1.262-0.858,2.364-2.171,2.461c-1.313,0.107-2.422-0.908-2.478-2.163
					c-0.056-1.275,0.924-2.313,2.175-2.415C17.398,82.538,18.506,83.486,18.621,84.749z"/>
				<path fill="#FFFFFF" d="M14.941,85.818c0.127,0.028,0.214,0.303,0.539,0.504c0.316,0.218,0.774,0.143,0.757,0.275
					c0.014,0.15-0.667,0.41-1.127-0.001C14.664,86.199,14.83,85.761,14.941,85.818z"/>
			</g>
			<g>
				<path d="M13.972,85.046c0.064,1.264-0.95,2.346-2.262,2.39c-1.312,0.021-2.383-0.988-2.394-2.256
					c-0.011-1.267,1.003-2.311,2.264-2.332C12.839,82.807,13.909,83.779,13.972,85.046z"/>
				<path fill="#FFFFFF" d="M10.257,85.98c0.125,0.03,0.202,0.307,0.52,0.519c0.308,0.229,0.767,0.184,0.745,0.314
					c0.008,0.153-0.679,0.364-1.125-0.053C9.966,86.35,10.147,85.918,10.257,85.98z"/>
			</g>
			<g>
				<path d="M9.316,85.18c0.019,1.262-1.03,2.329-2.338,2.305c-1.309-0.013-2.347-1.052-2.32-2.317
					c0.027-1.269,1.074-2.285,2.338-2.272C8.262,82.92,9.297,83.909,9.316,85.18z"/>
				<path fill="#FFFFFF" d="M5.573,85.989c0.125,0.036,0.193,0.314,0.504,0.531c0.3,0.238,0.759,0.208,0.733,0.336
					c0.002,0.153-0.689,0.347-1.121-0.081C5.272,86.352,5.465,85.927,5.573,85.989z"/>
			</g>
			<g>
				<path d="M4.659,85.167c-0.022,1.273-1.099,2.275-2.403,2.225c-1.306-0.045-2.314-1.106-2.253-2.373
					c0.062-1.265,1.137-2.256,2.403-2.212C3.67,82.855,4.679,83.907,4.659,85.167z"/>
				<path fill="#FFFFFF" d="M0.895,85.865c0.124,0.037,0.184,0.317,0.488,0.543c0.293,0.246,0.753,0.225,0.723,0.353
					c-0.001,0.153-0.698,0.33-1.117-0.108C0.584,86.22,0.788,85.799,0.895,85.865z"/>
			</g>
		</g>
	</g>
</g>
</svg>
