<?xml version="1.0" encoding="utf-8"?>
<!-- Generator: Adobe Illustrator 16.0.0, SVG Export Plug-In . SVG Version: 6.00 Build 0)  -->
<!DOCTYPE svg PUBLIC "-//W3C//DTD SVG 1.1//EN" "http://www.w3.org/Graphics/SVG/1.1/DTD/svg11.dtd">
<svg version="1.1" id="Layer_3" xmlns="http://www.w3.org/2000/svg" xmlns:xlink="http://www.w3.org/1999/xlink" x="0px" y="0px"
	 width="936px" height="576px" viewBox="0 0 936 576" enable-background="new 0 0 936 576" xml:space="preserve">
<rect x="-34.333" y="-31" fill="#FFFFFF" stroke="#000000" stroke-miterlimit="10" width="1108" height="654"/>
<rect x="-17.36" y="-5" display="none" fill="#ED1C24" width="965.719" height="586"/>
<g>
	<path fill="#ED1C24" stroke="#ED1C24" stroke-width="2" stroke-miterlimit="10" d="M221.327,215.276
		c34.293,0,59.181,25.861,59.181,61.613c0,35.751-24.888,61.613-59.181,61.613h-46.615v-1.215h3.243
		c11.106,0,12.16-2.189,12.16-4.541v-112.2c0-2.513-1.459-4.054-12.16-4.054h-3.243v-1.216H221.327z M192.142,336.881h28.78
		c33.4,0,57.56-25.213,57.56-59.992s-24.159-59.992-57.56-59.992h-28.699L192.142,336.881z"/>
	<path fill="#ED1C24" stroke="#ED1C24" stroke-width="2" stroke-miterlimit="10" d="M395.538,215.276
		c0.243,0,0.811,0.163,0.811,0.73l1.702,25.942l-1.297,0.162l-0.973-15.079c-0.568-7.702-2.919-10.134-11.107-10.134h-34.859
		v115.931c0,2.35,1.054,4.459,12.16,4.459h2.838v1.215h-32.429v-1.215h3.243c11.106,0,12.16-2.109,12.16-4.459V216.897h-35.265
		c-8.188,0-10.54,2.432-11.107,10.134l-0.973,15.079l-1.297-0.162l1.702-25.942c0-0.567,0.567-0.73,0.811-0.73H395.538z"/>
	<path fill="#ED1C24" d="M447.964,320.979l-2.692,7.918c-3.166,9.078-8.655,11.137-13.089,11.137c-2.27,0-4.539-1.004-5.542-2.955
		c-0.423-0.898-0.634-1.953-0.634-3.326c0-2.111,0.528-4.908,1.531-8.867l3.431-13.564c-8.656,21.061-16.15,28.713-25.282,28.713
		c-6.491,0-9.131-3.273-9.131-8.34c0-2.322,0.581-5.066,1.584-8.021l10.45-31.562c0.527-1.637,0.845-3.01,0.845-4.065
		c0-1.741-0.792-2.639-2.533-2.639c-2.745,0-5.331,2.375-8.34,11.032l-1.425,4.01h-2.059l2.744-7.863
		c3.114-9.079,8.604-11.137,13.037-11.137c5.753,0,7.601,2.797,7.601,6.703c0,2.481-0.792,5.436-1.742,8.393l-10.292,30.928
		c-0.739,2.217-1.056,4.012-1.056,5.385c0,2.533,1.161,3.693,3.431,3.693c8.34,0,20.109-19.422,27.657-47.186l1.636-6.438
		c3.589-0.105,7.178-0.528,9.87-1.478l-13.406,47.871c-0.476,1.637-0.792,3.115-0.792,4.223c0,1.531,0.634,2.48,2.322,2.48
		c3.114,0,5.595-3.008,8.393-11.031l1.425-4.012H447.964z"/>
	<path fill="#ED1C24" d="M507.812,328.896c-3.113,9.078-8.655,11.137-13.089,11.137c-3.431,0-5.595-1.215-6.809-3.166
		c-0.581-0.951-0.845-2.164-0.845-3.537c0-2.322,0.739-5.225,1.848-8.445l10.239-30.93c0.475-1.371,1.108-3.482,1.108-5.33
		c0-2.059-0.792-3.748-3.483-3.748c-8.498,0-20.901,19.898-28.449,46.078l-1.899,7.547h-9.396l12.932-46.393
		c0.369-1.215,0.792-2.746,0.792-4.065c0-1.478-0.528-2.639-2.376-2.639c-3.166,0-5.33,2.639-8.339,11.032l-1.425,4.01h-2.059
		l2.744-7.863c3.114-9.079,8.182-11.137,12.826-11.137c4.961,0,6.386,2.745,6.386,6.386c0,2.639-0.738,5.805-1.478,8.709
		l-3.747,14.777c9.342-22.168,17.259-29.873,27.076-29.873c6.545,0,8.709,3.483,8.709,8.129c0,2.533-0.687,5.383-1.584,8.18
		l-10.503,31.562c-0.528,1.584-0.845,2.955-0.845,4.064c0,1.637,0.739,2.639,2.586,2.639c2.692,0,5.331-2.375,8.34-11.031
		l1.425-4.012h2.006L507.812,328.896z"/>
	<path fill="#ED1C24" d="M569.033,320.979l-2.533,7.918c-2.691,8.762-8.181,11.137-12.509,11.137c-4.434,0-6.809-2.375-6.809-6.756
		c0-2.217,0.527-5.014,1.372-8.393l1.425-5.436c-7.02,14.83-13.828,20.584-21.481,20.584c-6.809,0-11.242-4.539-11.242-14.303
		c0-17.26,14.884-44.283,34.888-44.283c2.692,0,5.542,1.794,6.598,5.172l5.384-20.215c0.316-1.108,0.475-2.059,0.475-2.903
		c0-2.85-1.953-4.223-7.389-4.223l0.686-2.27c7.864-0.105,13.617-1.636,19.106-4.434l-21.165,76.742
		c-0.369,1.268-0.633,2.586-0.633,3.695c0,1.742,0.633,3.008,2.586,3.008c2.798,0,5.067-2.797,7.864-11.031l1.319-4.012H569.033z
		 M558.002,289.416c-0.949-3.905-3.272-5.488-5.753-5.488c-13.828,0-25.387,25.916-25.387,43.226c0,6.387,1.636,9.395,4.75,9.395
		c6.334,0,16.837-14.777,22.379-32.143L558.002,289.416z"/>
	<path fill="#ED1C24" d="M625.769,320.873l-2.692,7.918c-3.167,8.656-8.233,11.242-12.456,11.242c-2.691,0-4.855-1.109-5.964-2.85
		c-0.634-1.109-0.897-2.375-0.897-3.801c0-2.639,0.897-5.648,1.688-8.604l1.953-7.863c-7.125,16.678-14.25,23.117-21.745,23.117
		c-6.809,0-10.187-5.436-10.187-13.09c0-17.312,15.57-45.496,31.932-45.496c3.801,0,6.492,2.903,6.914,8.076l1.689-6.599
		c3.483-0.105,7.072-0.528,9.976-1.478l-13.512,47.766c-0.265,0.951-0.792,2.586-0.792,4.012c0,1.479,0.581,2.691,2.428,2.691
		c2.798,0,5.595-2.691,8.287-11.031l1.319-4.012H625.769z M612.89,295.275c0.053-0.844,0.105-1.637,0.105-2.375
		c0-5.701-2.111-9.395-5.964-9.395c-9.501,0-22.01,25.598-22.01,44.706c0,6.174,1.373,8.338,3.748,8.338
		c6.069,0,16.731-15.41,22.114-33.408L612.89,295.275z"/>
	<path fill="#ED1C24" d="M668.991,325.518c-4.223,7.232-12.562,14.516-21.746,14.516c-8.655,0-14.25-5.33-14.25-15.887
		c0-16.68,12.403-42.699,32.618-42.699c6.386,0,11.717,3.43,11.717,9.184c0,4.117-2.956,8.656-7.706,8.656
		c-3.008,0-4.434-1.953-4.434-4.223c0-4.223,3.906-7.389,8.129-8.128c-1.426-2.059-3.695-3.325-7.337-3.325
		c-11.031,0-22.959,19.53-22.959,41.485c0,7.338,3.061,10.398,7.6,10.398c5.173,0,10.662-2.744,16.204-10.82L668.991,325.518z"/>
	<path fill="#ED1C24" d="M711.265,281.447c8.973,0,14.778,5.489,14.778,16.941c0,15.887-10.979,41.645-31.193,41.645
		c-8.973,0-14.831-5.543-14.831-16.996C680.019,307.15,691.05,281.447,711.265,281.447z M689.308,328.475
		c0,6.439,2.059,9.395,6.176,9.395c11.664,0,21.271-25.545,21.271-44.863c0-6.597-2.059-9.395-6.123-9.395
		C699.02,283.611,689.308,309.209,689.308,328.475z"/>
	<path fill="#ED1C24" d="M768.212,281.341c-11.454,14.145-18.157,28.184-19.477,43.438c-0.053,0.898-0.105,1.742-0.105,2.533
		c0,6.492,1.9,9.131,4.75,9.131c17.102,0,27.657-25.598,28.344-38.898c-4.117-2.059-8.34-5.965-7.918-11.665
		c0.212-3.377,2.798-4.539,4.751-4.539c4.169,0,6.122,4.381,6.122,10.926c0,1.318-0.105,2.744-0.264,4.275
		c-2.48,21.217-14.04,43.49-34.148,43.49c-9.185,0-12.403-6.018-12.403-12.246c0-0.369,0.053-0.791,0.053-1.16
		c0.896-12.139,10.925-27.604,25.07-41.116c-4.75,1.741-10.345,6.862-14.251,6.862c-2.691,0-4.434-2.744-6.809-2.744
		c-2.27,0-3.536,1.635-5.278,6.703l-1.214,4.01h-2.058l2.375-7.863c2.375-8.657,6.386-11.031,10.187-11.031
		c4.116,0,5.595,4.222,9.816,4.222c3.484,0,6.598-1.108,9.079-3.378l1.108-2.059L768.212,281.341z"/>
	<path fill="#ED1C24" d="M839.355,320.873l-2.692,7.918c-3.167,8.656-8.233,11.242-12.456,11.242c-2.691,0-4.855-1.109-5.964-2.85
		c-0.634-1.109-0.897-2.375-0.897-3.801c0-2.639,0.897-5.648,1.688-8.604l1.953-7.863c-7.125,16.678-14.25,23.117-21.745,23.117
		c-6.809,0-10.187-5.436-10.187-13.09c0-17.312,15.57-45.496,31.932-45.496c3.801,0,6.492,2.903,6.914,8.076l1.689-6.599
		c3.483-0.105,7.072-0.528,9.976-1.478l-13.512,47.766c-0.265,0.951-0.792,2.586-0.792,4.012c0,1.479,0.581,2.691,2.428,2.691
		c2.798,0,5.595-2.691,8.287-11.031l1.319-4.012H839.355z M826.477,295.275c0.053-0.844,0.105-1.637,0.105-2.375
		c0-5.701-2.111-9.395-5.964-9.395c-9.501,0-22.01,25.598-22.01,44.706c0,6.174,1.373,8.338,3.748,8.338
		c6.069,0,16.731-15.41,22.114-33.408L826.477,295.275z"/>
</g>
<g>
	<g>
		<g>
			<path fill="#ED1C24" stroke="#ED1C24" stroke-width="0.25" stroke-miterlimit="10" d="M209.496,213.151
				c1.92-0.596,3.968,1.02,4.098,3.252c0.055,1.1-0.314,2.104-1,2.774c-0.667,0.68-1.575,1.043-2.568,0.995
				c-2.009-0.125-3.505-1.635-3.617-3.292C206.308,215.212,207.604,213.736,209.496,213.151z"/>
			<path fill="#FFFFFF" d="M211.333,218.774c0.051-0.197,0.51-0.303,0.828-0.813c0.35-0.495,0.26-1.245,0.465-1.213
				c0.229-0.03,0.623,1.119-0.059,1.829C211.898,219.254,211.233,218.941,211.333,218.774z"/>
		</g>
		<g>
			<path fill="#ED1C24" stroke="#ED1C24" stroke-width="0.25" stroke-miterlimit="10" d="M210.026,220.173
				c1.001,0.045,1.876,0.492,2.462,1.223c0.579,0.725,0.941,1.751,0.751,2.794c-0.285,2.141-2.292,3.431-4.217,2.964
				c-1.938-0.469-3.136-2.243-2.912-3.975c0.166-0.877,0.586-1.622,1.301-2.168C208.119,220.47,209.041,220.128,210.026,220.173z"/>
			<path fill="#FFFFFF" d="M210.588,226.03c0.1-0.179,0.538-0.206,0.949-0.635c0.438-0.409,0.494-1.144,0.688-1.073
				c0.239,0.023,0.377,1.182-0.386,1.749C211.049,226.598,210.456,226.174,210.588,226.03z"/>
		</g>
		<g>
			<path fill="#ED1C24" stroke="#ED1C24" stroke-width="0.25" stroke-miterlimit="10" d="M209.023,227.155
				c1.939,0.411,3.182,2.455,2.521,4.468c-0.295,1.008-0.966,1.783-1.838,2.175c-0.852,0.404-1.836,0.457-2.764,0.099
				c-0.928-0.358-1.628-1.044-2.023-1.833c-0.372-0.787-0.508-1.694-0.257-2.56C205.228,227.808,207.072,226.741,209.023,227.155z"
				/>
			<path fill="#FFFFFF" d="M208.648,233.012c0.114-0.166,0.581-0.115,1.051-0.473c0.489-0.335,0.645-1.048,0.828-0.948
				c0.22,0.057,0.234,1.229-0.648,1.647C209.024,233.639,208.498,233.135,208.648,233.012z"/>
		</g>
		<g>
			<path fill="#ED1C24" stroke="#ED1C24" stroke-width="0.25" stroke-miterlimit="10" d="M206.942,233.897
				c1.842,0.678,2.831,2.878,1.901,4.749c-0.438,0.938-1.199,1.613-2.062,1.919c-0.89,0.294-1.89,0.218-2.766-0.245
				c-0.881-0.466-1.478-1.224-1.773-2.061c-0.322-0.852-0.336-1.777,0.052-2.606C203.113,234.029,205.053,233.198,206.942,233.897z"
				/>
			<path fill="#FFFFFF" d="M205.81,239.648c0.129-0.151,0.565-0.056,1.076-0.349c0.532-0.265,0.784-0.942,0.952-0.82
				c0.222,0.092,0.043,1.217-0.843,1.542C206.128,240.325,205.653,239.756,205.81,239.648z"/>
		</g>
		<g>
			<path fill="#ED1C24" stroke="#ED1C24" stroke-width="0.25" stroke-miterlimit="10" d="M204.016,240.32
				c1.767,0.911,2.386,3.121,1.376,4.933c-1.095,1.747-3.358,2.234-5.001,1.126c-1.654-1.114-2.161-3.26-1.182-4.815
				C200.094,239.963,202.25,239.409,204.016,240.32z"/>
			<path fill="#FFFFFF" d="M202.231,245.885c0.15-0.133,0.577,0.009,1.126-0.218c0.568-0.197,0.906-0.826,1.059-0.688
				c0.21,0.116-0.108,1.188-1.04,1.402C202.467,246.579,202.06,245.973,202.231,245.885z"/>
		</g>
		<g>
			<path fill="#ED1C24" stroke="#ED1C24" stroke-width="0.25" stroke-miterlimit="10" d="M200.391,246.378
				c1.652,1.071,2.156,3.403,0.895,5.015c-1.225,1.641-3.477,1.958-5.026,0.712c-1.549-1.246-1.908-3.462-0.797-4.947
				C196.613,245.699,198.707,245.285,200.391,246.378z"/>
			<path fill="#FFFFFF" d="M198.113,251.756c0.158-0.122,0.569,0.056,1.127-0.127c0.574-0.151,0.953-0.755,1.093-0.603
				c0.198,0.135-0.192,1.184-1.126,1.322C198.295,252.473,197.937,251.831,198.113,251.756z"/>
		</g>
		<g>
			<path fill="#ED1C24" stroke="#ED1C24" stroke-width="0.25" stroke-miterlimit="10" d="M196.259,252.105
				c1.593,1.247,1.78,3.485,0.465,5.039c-0.656,0.771-1.554,1.203-2.464,1.266c-0.915,0.066-1.8-0.265-2.561-0.909
				c-0.758-0.641-1.146-1.587-1.228-2.492c-0.081-0.91,0.166-1.822,0.774-2.538C192.452,251.047,194.72,250.903,196.259,252.105z"/>
			<path fill="#FFFFFF" d="M193.559,257.277c0.165-0.11,0.56,0.097,1.125-0.046c0.579-0.11,0.994-0.687,1.123-0.524
				c0.187,0.15-0.269,1.171-1.203,1.242C193.692,258.007,193.379,257.34,193.559,257.277z"/>
		</g>
		<g>
			<path fill="#ED1C24" stroke="#ED1C24" stroke-width="0.25" stroke-miterlimit="10" d="M191.7,257.501
				c0.746,0.657,1.175,1.548,1.293,2.424c0.121,0.884-0.102,1.717-0.604,2.471c-0.517,0.736-1.336,1.151-2.213,1.303
				c-0.865,0.158-1.831,0.007-2.671-0.524c-0.84-0.531-1.388-1.354-1.577-2.281c-0.179-0.918,0.062-1.917,0.67-2.775
				c0.587-0.869,1.556-1.346,2.484-1.452C190.019,256.561,190.955,256.845,191.7,257.501z"/>
			<path fill="#FFFFFF" d="M189.315,262.699c0.151-0.12,0.574,0.038,1.114-0.135c0.555-0.141,0.886-0.704,1.03-0.555
				c0.194,0.142-0.106,1.103-1.017,1.23C189.548,263.365,189.142,262.781,189.315,262.699z"/>
		</g>
		<g>
			<path fill="#ED1C24" stroke="#ED1C24" stroke-width="0.25" stroke-miterlimit="10" d="M187.505,263.175
				c0.839,0.533,1.394,1.346,1.628,2.201c0.221,0.847,0.158,1.769-0.279,2.585c-0.908,1.585-2.993,2.257-4.786,1.38
				c-1.779-0.87-2.536-3.072-1.508-4.876c0.485-0.903,1.299-1.514,2.224-1.736C185.694,262.5,186.666,262.642,187.505,263.175z"/>
			<path fill="#FFFFFF" d="M185.824,268.669c0.128-0.144,0.562-0.039,1.083-0.279c0.539-0.212,0.808-0.82,0.968-0.69
				c0.212,0.115,0.011,1.121-0.877,1.369C186.143,269.322,185.666,268.773,185.824,268.669z"/>
		</g>
		<g>
			<path fill="#ED1C24" stroke="#ED1C24" stroke-width="0.25" stroke-miterlimit="10" d="M184.067,269.342
				c1.78,0.903,2.523,2.952,1.768,4.678c-0.792,1.701-2.853,2.524-4.693,1.75c-1.825-0.767-2.718-2.885-1.865-4.723
				C180.088,269.199,182.302,268.445,184.067,269.342z"/>
			<path fill="#FFFFFF" d="M182.859,274.984c0.125-0.15,0.558-0.081,1.06-0.365c0.522-0.257,0.747-0.895,0.917-0.777
				c0.222,0.098,0.088,1.132-0.775,1.458C183.216,275.617,182.707,275.098,182.859,274.984z"/>
		</g>
		<g>
			<path fill="#ED1C24" stroke="#ED1C24" stroke-width="0.25" stroke-miterlimit="10" d="M181.142,275.771
				c1.831,0.784,2.701,2.822,1.994,4.611c-0.722,1.776-2.789,2.666-4.642,1.938c-1.848-0.726-2.784-2.79-2.037-4.629
				C177.184,275.852,179.317,274.988,181.142,275.771z"/>
			<path fill="#FFFFFF" d="M180.192,281.48c0.119-0.156,0.562-0.098,1.05-0.406c0.512-0.281,0.712-0.936,0.887-0.825
				c0.225,0.086,0.134,1.146-0.724,1.507C180.566,282.105,180.042,281.599,180.192,281.48z"/>
		</g>
		<g>
			<path fill="#ED1C24" stroke="#ED1C24" stroke-width="0.25" stroke-miterlimit="10" d="M178.494,282.32
				c1.85,0.73,2.779,2.772,2.07,4.598c-0.704,1.82-2.794,2.715-4.642,1.982c-1.848-0.733-2.771-2.777-2.067-4.596
				C174.559,282.491,176.645,281.59,178.494,282.32z"/>
			<path fill="#FFFFFF" d="M177.626,288.058c0.12-0.157,0.563-0.099,1.049-0.415c0.509-0.29,0.705-0.954,0.88-0.844
				c0.225,0.082,0.144,1.161-0.714,1.53C177.998,288.684,177.476,288.177,177.626,288.058z"/>
		</g>
		<g>
			<path fill="#ED1C24" stroke="#ED1C24" stroke-width="0.25" stroke-miterlimit="10" d="M175.922,288.899
				c1.842,0.729,2.782,2.8,2.021,4.637c-0.741,1.84-2.86,2.692-4.692,1.903c-1.821-0.784-2.693-2.838-1.977-4.618
				C172.008,289.054,174.066,288.166,175.922,288.899z"/>
			<path fill="#FFFFFF" d="M174.981,294.641c0.122-0.156,0.564-0.088,1.056-0.398c0.515-0.282,0.725-0.95,0.899-0.837
				c0.224,0.085,0.119,1.175-0.747,1.532C175.341,295.278,174.83,294.757,174.981,294.641z"/>
		</g>
		<g>
			<path fill="#ED1C24" stroke="#ED1C24" stroke-width="0.25" stroke-miterlimit="10" d="M173.251,295.439
				c1.821,0.772,2.699,2.895,1.857,4.723c-0.838,1.831-2.985,2.597-4.781,1.708c-1.768-0.875-2.562-2.969-1.775-4.685
				C169.344,295.469,171.412,294.659,173.251,295.439z"/>
			<path fill="#FFFFFF" d="M172.091,301.151c0.128-0.15,0.567-0.062,1.074-0.353c0.528-0.264,0.771-0.927,0.94-0.807
				c0.221,0.094,0.061,1.188-0.821,1.512C172.42,301.81,171.934,301.261,172.091,301.151z"/>
		</g>
		<g>
			<path fill="#ED1C24" stroke="#ED1C24" stroke-width="0.25" stroke-miterlimit="10" d="M170.328,301.87
				c1.785,0.86,2.521,3.038,1.577,4.84c-0.992,1.788-3.175,2.418-4.894,1.396c-1.699-1.01-2.365-3.156-1.462-4.779
				C166.415,301.673,168.531,301.004,170.328,301.87z"/>
			<path fill="#FFFFFF" d="M168.808,307.507c0.14-0.142,0.572-0.023,1.101-0.281c0.549-0.229,0.841-0.878,1.001-0.746
				c0.215,0.105-0.028,1.196-0.936,1.462C169.087,308.189,168.644,307.604,168.808,307.507z"/>
		</g>
		<g>
			<path fill="#ED1C24" stroke="#ED1C24" stroke-width="0.25" stroke-miterlimit="10" d="M167.011,308.105
				c1.724,0.99,2.25,3.215,1.167,4.967c-1.16,1.714-3.426,2.13-5.022,0.951c-1.603-1.184-2.048-3.354-1.019-4.869
				C163.103,307.584,165.287,307.116,167.011,308.105z"/>
			<path fill="#FFFFFF" d="M165.004,313.596c0.154-0.129,0.574,0.03,1.129-0.18c0.572-0.179,0.931-0.8,1.079-0.655
				c0.206,0.123-0.149,1.191-1.085,1.374C165.215,314.302,164.831,313.677,165.004,313.596z"/>
		</g>
		<g>
			<path fill="#ED1C24" stroke="#ED1C24" stroke-width="0.25" stroke-miterlimit="10" d="M163.156,314.023
				c1.647,1.167,1.929,3.431,0.639,5.068c-0.616,0.829-1.588,1.241-2.509,1.313c-0.934,0.067-1.864-0.242-2.596-0.915
				s-1.136-1.571-1.217-2.458c-0.089-0.897,0.189-1.739,0.735-2.481C159.331,313.121,161.558,312.893,163.156,314.023z"/>
			<path fill="#FFFFFF" d="M160.587,319.283c0.169-0.109,0.57,0.096,1.152-0.05c0.608-0.102,0.996-0.714,1.13-0.552
				c0.094,0.074,0.036,0.373-0.164,0.669c-0.218,0.282-0.581,0.558-1.059,0.595C160.711,320.007,160.404,319.344,160.587,319.283z"
				/>
		</g>
		<g>
			<path fill="#ED1C24" stroke="#ED1C24" stroke-width="0.25" stroke-miterlimit="10" d="M158.69,319.49
				c0.733,0.671,1.13,1.578,1.156,2.524c0.018,0.936-0.387,1.863-1.128,2.593c-1.47,1.501-3.865,1.288-5.118-0.229
				c-1.281-1.548-1.133-3.661,0.124-4.958c0.648-0.641,1.541-0.913,2.431-0.912C157.033,318.502,157.957,318.819,158.69,319.49z"/>
			<path fill="#FFFFFF" d="M155.526,324.429c0.181-0.088,0.567,0.18,1.141,0.084c0.588-0.057,1.066-0.602,1.178-0.427
				c0.168,0.162-0.39,1.172-1.348,1.134C155.553,325.157,155.334,324.464,155.526,324.429z"/>
		</g>
		<g>
			<path fill="#ED1C24" stroke="#ED1C24" stroke-width="0.25" stroke-miterlimit="10" d="M153.601,324.379
				c0.644,0.758,0.918,1.703,0.816,2.639c-0.094,0.941-0.573,1.863-1.433,2.449c-1.704,1.231-3.956,0.849-5.038-0.865
				c-1.04-1.648-0.713-3.863,0.747-4.916c0.756-0.51,1.634-0.719,2.507-0.615C152.077,323.185,152.957,323.621,153.601,324.379z"/>
			<path fill="#FFFFFF" d="M149.829,328.869c0.188-0.068,0.523,0.228,1.114,0.219c0.596,0.027,1.149-0.441,1.237-0.253
				c0.15,0.187-0.559,1.083-1.496,0.936C149.775,329.614,149.639,328.887,149.829,328.869z"/>
		</g>
		<g>
			<path fill="#ED1C24" stroke="#ED1C24" stroke-width="0.25" stroke-miterlimit="10" d="M147.945,328.602
				c1.1,1.656,0.54,3.885-1.254,4.968c-1.837,0.995-4.058,0.266-4.906-1.52c-0.859-1.806-0.22-3.895,1.373-4.754
				C144.7,326.356,146.846,326.945,147.945,328.602z"/>
			<path fill="#FFFFFF" d="M143.625,332.55c0.197-0.04,0.495,0.298,1.088,0.376c0.592,0.11,1.211-0.258,1.268-0.074
				c0.131,0.218-0.697,0.98-1.614,0.702C143.476,333.27,143.432,332.539,143.625,332.55z"/>
		</g>
		<g>
			<path fill="#ED1C24" stroke="#ED1C24" stroke-width="0.25" stroke-miterlimit="10" d="M141.785,332.05
				c0.438,0.894,0.475,1.883,0.154,2.773c-0.315,0.898-1.029,1.589-1.976,1.995c-0.951,0.396-1.964,0.378-2.806,0.021
				c-0.849-0.371-1.54-1.112-1.874-2.042c-0.339-0.941-0.264-1.892,0.079-2.723c0.338-0.847,0.957-1.541,1.808-1.894
				c0.845-0.363,1.796-0.276,2.615,0.029C140.605,330.524,141.348,331.157,141.785,332.05z"/>
			<path fill="#FFFFFF" d="M137.058,335.508c0.198-0.024,0.455,0.341,1.027,0.469c0.57,0.164,1.21-0.165,1.251,0.038
				c0.101,0.218-0.786,0.927-1.657,0.567C136.837,336.221,136.87,335.481,137.058,335.508z"/>
		</g>
		<g>
			<path fill="#ED1C24" stroke="#ED1C24" stroke-width="0.25" stroke-miterlimit="10" d="M135.284,334.798
				c0.69,1.865-0.338,3.908-2.299,4.559c-1.965,0.616-3.982-0.604-4.459-2.511c-0.489-1.95,0.598-3.821,2.353-4.375
				C132.62,331.889,134.593,332.934,135.284,334.798z"/>
			<path fill="#FFFFFF" d="M130.226,337.725c0.201,0.003,0.422,0.396,0.982,0.6c0.557,0.253,1.218-0.027,1.239,0.176
				c0.082,0.245-0.866,0.847-1.704,0.361C129.935,338.394,130.04,337.673,130.226,337.725z"/>
		</g>
		<g>
			<path fill="#ED1C24" stroke="#ED1C24" stroke-width="0.25" stroke-miterlimit="10" d="M128.526,336.846
				c0.25,0.962,0.087,1.934-0.397,2.731c-0.484,0.788-1.284,1.45-2.283,1.616c-2.003,0.384-3.894-0.897-4.222-2.858
				s0.888-3.836,2.717-4.184c0.928-0.149,1.821-0.006,2.579,0.48C127.673,335.109,128.277,335.884,128.526,336.846z"/>
			<path fill="#FFFFFF" d="M123.241,339.325c0.198,0.017,0.386,0.424,0.925,0.665c0.528,0.275,1.213,0.085,1.216,0.291
				c0.057,0.233-0.933,0.743-1.721,0.217C122.899,339.976,123.06,339.262,123.241,339.325z"/>
		</g>
		<g>
			<path fill="#ED1C24" stroke="#ED1C24" stroke-width="0.25" stroke-miterlimit="10" d="M121.624,338.335
				c0.171,0.979-0.065,1.94-0.606,2.706c-0.541,0.764-1.389,1.255-2.389,1.393c-2.011,0.262-3.801-1.133-3.998-3.111
				c-0.197-1.979,1.149-3.78,3.008-4.021c0.933-0.129,1.843,0.187,2.56,0.715C120.913,336.542,121.452,337.355,121.624,338.335z"/>
			<path fill="#FFFFFF" d="M116.173,340.408c0.196,0.029,0.355,0.447,0.873,0.721c0.506,0.307,1.199,0.158,1.188,0.365
				c0.04,0.236-0.977,0.686-1.723,0.111C115.79,341.038,115.997,340.334,116.173,340.408z"/>
		</g>
		<g>
			<path fill="#ED1C24" stroke="#ED1C24" stroke-width="0.25" stroke-miterlimit="10" d="M114.63,339.322
				c0.221,2.004-1.235,3.727-3.246,3.874c-2.011,0.149-3.711-1.341-3.797-3.329c-0.085-1.984,1.369-3.711,3.248-3.85
				C112.715,335.88,114.415,337.374,114.63,339.322z"/>
			<path fill="#FFFFFF" d="M109.063,341.038c0.194,0.039,0.328,0.466,0.827,0.768c0.485,0.335,1.183,0.225,1.159,0.431
				c0.025,0.238-1.012,0.631-1.72,0.017C108.645,341.646,108.892,340.954,109.063,341.038z"/>
		</g>
		<g>
			<path fill="#ED1C24" stroke="#ED1C24" stroke-width="0.25" stroke-miterlimit="10" d="M107.587,339.867
				c0.104,1.985-1.438,3.635-3.445,3.682c-2.007,0.048-3.627-1.527-3.618-3.516s1.551-3.638,3.445-3.682
				C105.863,336.307,107.483,337.882,107.587,339.867z"/>
			<path fill="#FFFFFF" d="M101.94,341.276c0.191,0.049,0.304,0.481,0.786,0.809c0.466,0.358,1.167,0.284,1.132,0.488
				c0.012,0.239-1.039,0.579-1.714-0.071C101.493,341.862,101.774,341.184,101.94,341.276z"/>
		</g>
	</g>
	<g>
		<g>
			<path fill="#ED1C24" stroke="#ED1C24" stroke-width="0.25" stroke-miterlimit="10" d="M209.496,212.152
				c-0.849,1.794-2.724,2.726-4.414,2.264c-1.668-0.474-2.84-2.244-2.606-4.224c0.137-0.979,0.686-1.822,1.518-2.33
				c0.829-0.517,1.929-0.684,3.022-0.382C209.223,208.087,210.352,210.35,209.496,212.152z"/>
			<path fill="#FFFFFF" d="M203.659,211.688c0.173,0.085,0.192,0.538,0.558,0.964c0.342,0.453,0.984,0.563,0.897,0.751
				c-0.065,0.227-1.055,0.3-1.519-0.476C203.133,212.174,203.511,211.562,203.659,211.688z"/>
		</g>
		<g>
			<path fill="#ED1C24" stroke="#ED1C24" stroke-width="0.25" stroke-miterlimit="10" d="M202.476,210.191
				c-0.326,1.967-1.975,3.319-3.579,3.363c-0.83,0.003-1.571-0.303-2.236-0.87c-0.646-0.541-1.226-1.342-1.452-2.311
				c-0.226-0.966-0.004-1.935,0.65-2.717c0.644-0.751,1.719-1.293,2.91-1.301c1.195-0.03,2.237,0.458,2.897,1.172
				C202.33,208.258,202.621,209.203,202.476,210.191z"/>
			<path fill="#FFFFFF" d="M196.813,211.385c0.188,0.034,0.346,0.438,0.806,0.737c0.446,0.333,1.056,0.241,1.031,0.455
				c-0.002,0.234-0.861,0.583-1.504,0.006C196.496,212.006,196.632,211.311,196.813,211.385z"/>
		</g>
		<g>
			<path fill="#ED1C24" stroke="#ED1C24" stroke-width="0.25" stroke-miterlimit="10" d="M195.21,210.373
				c0.214,0.962,0.043,1.95-0.294,2.71c-0.166,0.395-0.367,0.754-0.618,1.029c-0.229,0.316-0.525,0.519-0.84,0.705
				c-0.324,0.172-0.678,0.251-1.042,0.294c-0.379,0.019-0.773-0.006-1.182-0.086c-0.832-0.191-1.712-0.556-2.403-1.277
				c-0.684-0.713-1.015-1.69-0.794-2.686c0.098-0.507,0.323-1.017,0.687-1.463c0.346-0.47,0.83-0.862,1.398-1.163
				c0.562-0.314,1.176-0.437,1.738-0.494c0.575-0.011,1.112,0.074,1.577,0.269C194.376,208.632,194.993,209.396,195.21,210.373z"/>
			<path fill="#FFFFFF" d="M190.704,213.82c0.165-0.074,0.516,0.222,1.044,0.276c0.519,0.072,0.996-0.239,1.067-0.047
				c0.06,0.106-0.06,0.323-0.283,0.48c-0.212,0.177-0.537,0.286-0.962,0.169C190.759,214.517,190.515,213.849,190.704,213.82z"/>
		</g>
		<g>
			<path fill="#ED1C24" stroke="#ED1C24" stroke-width="0.25" stroke-miterlimit="10" d="M188.83,213.748
				c0.687,0.734,1.008,1.627,1.141,2.47c0.115,0.841,0.019,1.619-0.406,2.279c-0.195,0.35-0.494,0.607-0.815,0.847
				c-0.318,0.242-0.701,0.424-1.125,0.548c-0.828,0.258-1.795,0.306-2.727-0.058c-0.92-0.359-1.623-1.088-1.914-2.037
				c-0.134-0.471-0.172-0.996-0.107-1.54c0.068-0.542,0.3-1.091,0.607-1.616c0.663-1.041,1.701-1.7,2.709-1.836
				C187.195,212.654,188.16,213.031,188.83,213.748z"/>
			<path fill="#FFFFFF" d="M186.624,219.049c0.128-0.141,0.568-0.048,1.056-0.282c0.516-0.198,0.79-0.732,0.941-0.603
				c0.204,0.136,0.019,1.009-0.811,1.259C186.965,219.66,186.463,219.16,186.624,219.049z"/>
		</g>
		<g>
			<path fill="#ED1C24" stroke="#ED1C24" stroke-width="0.25" stroke-miterlimit="10" d="M184.897,219.835
				c0.462,0.182,0.866,0.449,1.205,0.763c0.344,0.306,0.591,0.701,0.868,0.988c0.253,0.3,0.44,0.57,0.587,0.919
				c0.119,0.306,0.201,0.682,0.175,1.07c-0.082,1.555-1.499,3.276-3.486,3.461c-1.959,0.187-3.809-1.355-3.704-3.837
				c0.038-0.619,0.177-1.203,0.466-1.757c0.249-0.522,0.653-1.01,1.093-1.345c0.43-0.358,0.905-0.451,1.379-0.491
				C183.956,219.576,184.435,219.653,184.897,219.835z"/>
			<path fill="#FFFFFF" d="M185.42,225.527c0.048-0.187,0.464-0.321,0.797-0.771c0.372-0.429,0.31-1.058,0.518-1.014
				c0.246,0.018,0.533,0.901-0.094,1.549C186.017,225.925,185.333,225.702,185.42,225.527z"/>
		</g>
		<g>
			<path fill="#ED1C24" stroke="#ED1C24" stroke-width="0.25" stroke-miterlimit="10" d="M184.246,227.036
				c1.982-0.143,3.708,1.191,4.009,3.086c0.29,1.902-0.993,3.777-2.948,4.143c-1.952,0.365-3.852-0.974-4.171-3.063
				C180.805,229.108,182.261,227.179,184.246,227.036z"/>
			<path fill="#FFFFFF" d="M186.306,232.616c0.021-0.2,0.432-0.383,0.686-0.909c0.286-0.516,0.118-1.192,0.329-1.185
				c0.23-0.042,0.712,0.93,0.167,1.694C186.948,232.963,186.24,232.801,186.306,232.616z"/>
		</g>
		<g>
			<path fill="#ED1C24" stroke="#ED1C24" stroke-width="0.25" stroke-miterlimit="10" d="M185.307,234.265
				c1.955-0.351,3.83,0.928,4.222,2.884c0.391,1.958-0.854,3.886-2.803,4.286c-1.946,0.399-3.858-0.877-4.258-2.877
				C182.066,236.556,183.348,234.617,185.307,234.265z"/>
			<path fill="#FFFFFF" d="M187.685,239.756c0.014-0.202,0.418-0.398,0.652-0.941c0.268-0.533,0.074-1.215,0.281-1.217
				c0.233-0.052,0.75,0.925,0.234,1.721C188.34,240.092,187.625,239.943,187.685,239.756z"/>
		</g>
		<g>
			<path fill="#ED1C24" stroke="#ED1C24" stroke-width="0.25" stroke-miterlimit="10" d="M186.726,241.435
				c1.948-0.398,3.856,0.874,4.262,2.86c0.406,1.987-0.854,3.919-2.806,4.303c-1.949,0.383-3.847-0.895-4.249-2.862
				C183.53,243.766,184.778,241.833,186.726,241.435z"/>
			<path fill="#FFFFFF" d="M189.149,246.921c0.013-0.203,0.418-0.397,0.653-0.943c0.269-0.536,0.07-1.226,0.277-1.227
				c0.234-0.054,0.755,0.937,0.238,1.735C189.804,247.261,189.088,247.108,189.149,246.921z"/>
		</g>
		<g>
			<path fill="#ED1C24" stroke="#ED1C24" stroke-width="0.25" stroke-miterlimit="10" d="M188.182,248.597
				c1.949-0.388,3.854,0.915,4.231,2.926c0.375,2.013-0.927,3.925-2.89,4.259c-1.957,0.333-3.823-0.979-4.187-2.934
				C184.969,250.892,186.231,248.986,188.182,248.597z"/>
			<path fill="#FFFFFF" d="M190.526,254.126c0.018-0.203,0.426-0.39,0.671-0.933c0.279-0.532,0.093-1.23,0.299-1.228
				c0.237-0.051,0.738,0.958,0.206,1.749C191.175,254.482,190.462,254.312,190.526,254.126z"/>
		</g>
		<g>
			<path fill="#ED1C24" stroke="#ED1C24" stroke-width="0.25" stroke-miterlimit="10" d="M189.522,255.782
				c1.954-0.343,3.837,1.014,4.15,3.053c0.315,2.039-1.056,3.911-3.029,4.169c-1.97,0.258-3.784-1.112-4.086-3.062
				C186.259,257.99,187.561,256.126,189.522,255.782z"/>
			<path fill="#FFFFFF" d="M191.704,261.385c0.025-0.203,0.44-0.375,0.704-0.912c0.301-0.526,0.129-1.231,0.336-1.222
				c0.239-0.044,0.714,0.985,0.15,1.763C192.339,261.765,191.633,261.568,191.704,261.385z"/>
		</g>
		<g>
			<path fill="#ED1C24" stroke="#ED1C24" stroke-width="0.25" stroke-miterlimit="10" d="M190.644,263.004
				c1.96-0.271,3.8,1.165,4.021,3.231c0.244,2.062-1.25,3.88-3.22,4.034c-1.994,0.156-3.705-1.293-3.936-3.24
				C187.302,265.081,188.666,263.278,190.644,263.004z"/>
			<path fill="#FFFFFF" d="M192.584,268.701c0.035-0.202,0.459-0.354,0.75-0.881c0.315-0.511,0.178-1.227,0.385-1.209
				c0.233-0.032,0.681,1.02,0.073,1.775C193.199,269.114,192.504,268.881,192.584,268.701z"/>
		</g>
		<g>
			<path fill="#ED1C24" stroke="#ED1C24" stroke-width="0.25" stroke-miterlimit="10" d="M191.445,270.269
				c1.987-0.178,3.727,1.365,3.846,3.454c0.113,2.092-1.476,3.819-3.465,3.843c-1.987,0.024-3.619-1.521-3.725-3.46
				C187.99,272.165,189.471,270.444,191.445,270.269z"/>
			<path fill="#FFFFFF" d="M193.071,276.071c0.046-0.2,0.475-0.326,0.79-0.835c0.347-0.494,0.255-1.221,0.46-1.19
				c0.239-0.02,0.604,1.067-0.029,1.785C193.66,276.523,192.977,276.246,193.071,276.071z"/>
		</g>
		<g>
			<path fill="#ED1C24" stroke="#ED1C24" stroke-width="0.25" stroke-miterlimit="10" d="M191.825,277.566
				c1.996-0.051,3.639,1.612,3.606,3.724c-0.054,2.115-1.756,3.722-3.752,3.582c-1.971-0.138-3.497-1.8-3.447-3.72
				C188.263,279.226,189.846,277.617,191.825,277.566z"/>
			<path fill="#FFFFFF" d="M193.032,283.478c0.061-0.196,0.5-0.289,0.856-0.775c0.387-0.468,0.356-1.205,0.558-1.159
				c0.24-0.003,0.514,1.117-0.177,1.788C193.589,283.977,192.93,283.645,193.032,283.478z"/>
		</g>
		<g>
			<path fill="#ED1C24" stroke="#ED1C24" stroke-width="0.25" stroke-miterlimit="10" d="M191.68,284.871
				c1.972,0.107,3.515,1.913,3.265,4.035c-0.226,2.124-2.117,3.566-4.06,3.228c-1.975-0.343-3.296-2.127-3.097-4.017
				C188.013,286.229,189.681,284.762,191.68,284.871z"/>
			<path fill="#FFFFFF" d="M192.354,290.875c0.081-0.19,0.528-0.241,0.934-0.693c0.446-0.432,0.448-1.175,0.651-1.11
				c0.245,0.018,0.434,1.17-0.338,1.775C192.856,291.428,192.234,291.031,192.354,290.875z"/>
		</g>
		<g>
			<path fill="#ED1C24" stroke="#ED1C24" stroke-width="0.25" stroke-miterlimit="10" d="M190.884,292.134
				c1.946,0.298,3.288,2.266,2.808,4.371c-0.449,2.114-2.535,3.329-4.419,2.754c-1.92-0.584-2.994-2.488-2.607-4.326
				C187.085,293.104,188.901,291.828,190.884,292.134z"/>
			<path fill="#FFFFFF" d="M190.897,298.184c0.1-0.181,0.569-0.175,1.008-0.585c0.468-0.386,0.578-1.125,0.767-1.039
				c0.229,0.043,0.304,1.223-0.53,1.741C191.325,298.793,190.758,298.325,190.897,298.184z"/>
		</g>
		<g>
			<path fill="#ED1C24" stroke="#ED1C24" stroke-width="0.25" stroke-miterlimit="10" d="M189.273,299.259
				c1.932,0.536,2.978,2.656,2.247,4.712c-0.396,1.007-1.111,1.779-1.987,2.161c-0.886,0.381-1.878,0.39-2.783-0.021
				c-0.905-0.41-1.56-1.147-1.901-1.972c-0.349-0.832-0.435-1.776-0.089-2.646C185.38,299.745,187.374,298.731,189.273,299.259z"/>
			<path fill="#FFFFFF" d="M188.52,305.274c0.123-0.167,0.566-0.105,1.063-0.452c0.521-0.32,0.739-1.041,0.914-0.931
				c0.229,0.074,0.109,1.252-0.767,1.664C188.873,305.944,188.366,305.396,188.52,305.274z"/>
		</g>
		<g>
			<path fill="#ED1C24" stroke="#ED1C24" stroke-width="0.25" stroke-miterlimit="10" d="M186.75,306.11
				c0.906,0.408,1.556,1.157,1.855,2.074c0.298,0.911,0.18,1.961-0.317,2.928c-1.079,1.92-3.374,2.528-5.039,1.404
				c-1.631-1.102-2.178-3.263-1.278-4.86c0.422-0.829,1.192-1.379,2.042-1.669C184.857,305.698,185.844,305.703,186.75,306.11z"/>
			<path fill="#FFFFFF" d="M185.11,311.951c0.149-0.146,0.579-0.016,1.131-0.281c0.571-0.236,0.908-0.912,1.055-0.781
				c0.23,0.114-0.095,1.252-1.03,1.526C185.353,312.666,184.94,312.049,185.11,311.951z"/>
		</g>
		<g>
			<path fill="#ED1C24" stroke="#ED1C24" stroke-width="0.25" stroke-miterlimit="10" d="M183.25,312.517
				c0.833,0.543,1.352,1.38,1.494,2.328c0.071,0.473,0.051,0.973-0.068,1.466c-0.139,0.479-0.376,0.95-0.709,1.381
				c-0.335,0.43-0.728,0.78-1.162,1.029c-0.449,0.237-0.926,0.383-1.402,0.431c-0.953,0.099-1.893-0.194-2.627-0.865
				c-0.733-0.671-1.134-1.579-1.215-2.476c-0.04-0.448,0.002-0.896,0.13-1.315c0.114-0.433,0.3-0.849,0.586-1.216
				c0.284-0.367,0.636-0.655,1.032-0.868c0.376-0.228,0.797-0.381,1.241-0.454C181.437,311.812,182.417,311.974,183.25,312.517z"/>
			<path fill="#FFFFFF" d="M180.704,318.023c0.174-0.117,0.58,0.08,1.175-0.087c0.592-0.15,1.005-0.786,1.141-0.626
				c0.188,0.133-0.243,1.264-1.244,1.357C180.822,318.762,180.517,318.09,180.704,318.023z"/>
		</g>
		<g>
			<path fill="#ED1C24" stroke="#ED1C24" stroke-width="0.25" stroke-miterlimit="10" d="M178.776,318.286
				c1.508,1.336,1.482,3.696-0.092,5.23c-0.809,0.724-1.812,1.077-2.751,1.041c-0.952-0.047-1.855-0.503-2.477-1.271
				c-0.628-0.777-0.867-1.714-0.811-2.616c0.048-0.916,0.408-1.779,1.106-2.398C175.064,316.985,177.307,316.986,178.776,318.286z"
				/>
			<path fill="#FFFFFF" d="M175.406,323.327c0.185-0.093,0.554,0.162,1.156,0.077c0.612-0.051,1.134-0.595,1.241-0.417
				c0.171,0.168-0.471,1.164-1.441,1.137C175.42,324.085,175.215,323.369,175.406,323.327z"/>
		</g>
		<g>
			<path fill="#ED1C24" stroke="#ED1C24" stroke-width="0.25" stroke-miterlimit="10" d="M173.456,323.286
				c0.627,0.771,0.867,1.729,0.721,2.674c-0.073,0.471-0.24,0.941-0.5,1.372c-0.272,0.412-0.634,0.788-1.075,1.096
				c-1.764,1.281-4.122,0.739-5.125-0.952c-1.027-1.727-0.508-3.845,0.993-4.944c0.386-0.27,0.813-0.443,1.259-0.531
				c0.432-0.104,0.88-0.126,1.327-0.062C171.947,322.063,172.829,322.515,173.456,323.286z"/>
			<path fill="#FFFFFF" d="M169.404,327.788c0.196-0.066,0.54,0.262,1.138,0.249c0.605,0.029,1.187-0.446,1.268-0.256
				c0.141,0.186-0.604,1.116-1.567,0.936C169.306,328.523,169.205,327.798,169.404,327.788z"/>
		</g>
		<g>
			<path fill="#ED1C24" stroke="#ED1C24" stroke-width="0.25" stroke-miterlimit="10" d="M167.476,327.476
				c0.518,0.849,0.632,1.835,0.371,2.76c-0.262,0.918-0.928,1.712-1.865,2.226c-0.933,0.526-1.99,0.566-2.891,0.272
				c-0.903-0.294-1.653-0.934-2.068-1.837c-0.415-0.903-0.426-1.895-0.133-2.754c0.294-0.86,0.901-1.576,1.726-2.046
				c0.832-0.458,1.795-0.495,2.666-0.259C166.147,326.069,166.958,326.627,167.476,327.476z"/>
			<path fill="#FFFFFF" d="M162.894,331.422c0.204-0.038,0.496,0.306,1.101,0.393c0.606,0.129,1.225-0.297,1.285-0.091
				c0.121,0.211-0.727,1.031-1.664,0.718C162.714,332.144,162.696,331.408,162.894,331.422z"/>
		</g>
		<g>
			<path fill="#ED1C24" stroke="#ED1C24" stroke-width="0.25" stroke-miterlimit="10" d="M161.022,330.896
				c0.417,0.9,0.42,1.899,0.06,2.784c-0.368,0.856-1.098,1.595-2.077,1.999c-1.969,0.816-4.129-0.204-4.763-2.063
				c-0.65-1.903,0.325-3.886,2.083-4.62c0.887-0.366,1.845-0.325,2.7,0.027C159.865,329.352,160.605,329.992,161.022,330.896z"/>
			<path fill="#FFFFFF" d="M156.052,334.324c0.206-0.017,0.463,0.354,1.052,0.501c0.588,0.192,1.243-0.165,1.282,0.047
				c0.098,0.224-0.822,0.943-1.719,0.539C155.805,335.023,155.857,334.292,156.052,334.324z"/>
		</g>
		<g>
			<path fill="#ED1C24" stroke="#ED1C24" stroke-width="0.25" stroke-miterlimit="10" d="M154.243,333.616
				c0.328,0.938,0.236,1.927-0.201,2.774c-0.438,0.837-1.229,1.486-2.231,1.798c-2.013,0.65-4.073-0.546-4.561-2.456
				c-0.498-1.942,0.645-3.839,2.473-4.435c0.924-0.288,1.89-0.146,2.704,0.264C153.236,331.964,153.914,332.678,154.243,333.616z"/>
			<path fill="#FFFFFF" d="M148.997,336.597c0.205-0.004,0.434,0.405,1.002,0.581c0.562,0.214,1.248-0.057,1.267,0.15
				c0.076,0.221-0.893,0.867-1.746,0.404C148.694,337.27,148.805,336.547,148.997,336.597z"/>
		</g>
		<g>
			<path fill="#ED1C24" stroke="#ED1C24" stroke-width="0.25" stroke-miterlimit="10" d="M147.25,335.732
				c0.513,1.896-0.707,3.961-2.759,4.377c-2.046,0.449-4-0.784-4.367-2.759c-0.359-1.936,0.888-3.85,2.785-4.266
				C144.815,332.702,146.726,333.789,147.25,335.732z"/>
			<path fill="#FFFFFF" d="M141.804,338.314c0.205,0.01,0.401,0.413,0.956,0.639c0.544,0.26,1.246,0.048,1.25,0.256
				c0.06,0.231-0.95,0.773-1.764,0.269C141.459,338.978,141.617,338.256,141.804,338.314z"/>
		</g>
		<g>
			<path fill="#ED1C24" stroke="#ED1C24" stroke-width="0.25" stroke-miterlimit="10" d="M140.124,337.351
				c0.385,1.95-0.968,3.828-3.023,4.19c-2.057,0.323-3.936-1.066-4.192-3.03c-0.259-1.979,1.11-3.774,3.041-4.077
				C137.87,334.093,139.739,335.4,140.124,337.351z"/>
			<path fill="#FFFFFF" d="M134.532,339.572c0.203,0.025,0.377,0.44,0.917,0.706c0.528,0.301,1.238,0.14,1.23,0.34
				c0.046,0.248-0.991,0.704-1.772,0.145C134.15,340.206,134.348,339.501,134.532,339.572z"/>
		</g>
		<g>
			<path fill="#ED1C24" stroke="#ED1C24" stroke-width="0.25" stroke-miterlimit="10" d="M132.909,338.511
				c0.275,1.964-1.17,3.826-3.233,4.021c-2.062,0.219-3.864-1.21-4.03-3.209c-0.162-1.964,1.289-3.741,3.242-3.948
				C130.845,335.191,132.632,336.536,132.909,338.511z"/>
			<path fill="#FFFFFF" d="M127.214,340.454c0.201,0.033,0.354,0.455,0.878,0.738c0.511,0.317,1.226,0.184,1.208,0.391
				c0.033,0.237-1.021,0.665-1.771,0.075C126.804,341.076,127.034,340.377,127.214,340.454z"/>
		</g>
		<g>
			<path fill="#ED1C24" stroke="#ED1C24" stroke-width="0.25" stroke-miterlimit="10" d="M125.646,339.322
				c0.18,1.98-1.345,3.71-3.407,3.862c-2.061,0.168-3.8-1.424-3.886-3.394c-0.088-2.003,1.448-3.63,3.411-3.791
				C123.729,335.854,125.466,337.343,125.646,339.322z"/>
			<path fill="#FFFFFF" d="M119.873,341.001c0.2,0.045,0.335,0.475,0.846,0.79c0.496,0.342,1.214,0.225,1.187,0.433
				c0.022,0.235-1.045,0.644-1.769-0.002C119.438,341.597,119.697,340.913,119.873,341.001z"/>
		</g>
		<g>
			<path fill="#ED1C24" stroke="#ED1C24" stroke-width="0.25" stroke-miterlimit="10" d="M118.353,339.791
				c0.1,1.981-1.491,3.68-3.55,3.749c-2.057,0.034-3.739-1.551-3.756-3.539c-0.017-1.987,1.573-3.626,3.552-3.658
				C116.575,336.276,118.253,337.801,118.353,339.791z"/>
			<path fill="#FFFFFF" d="M112.523,341.254c0.198,0.05,0.317,0.483,0.816,0.813c0.483,0.361,1.203,0.291,1.168,0.495
				c0.013,0.239-1.065,0.572-1.764-0.082C112.068,341.836,112.35,341.16,112.523,341.254z"/>
		</g>
		<g>
			<path fill="#ED1C24" stroke="#ED1C24" stroke-width="0.25" stroke-miterlimit="10" d="M111.047,340.001
				c0.03,1.979-1.616,3.653-3.669,3.614c-2.053-0.021-3.683-1.648-3.64-3.636c0.043-1.988,1.686-3.584,3.669-3.564
				C109.392,336.454,111.018,338.005,111.047,340.001z"/>
			<path fill="#FFFFFF" d="M105.175,341.27c0.196,0.056,0.302,0.492,0.79,0.834c0.471,0.374,1.192,0.323,1.151,0.526
				c0.005,0.239-1.082,0.544-1.759-0.128C104.702,341.84,105.005,341.172,105.175,341.27z"/>
		</g>
		<g>
			<path fill="#ED1C24" stroke="#ED1C24" stroke-width="0.25" stroke-miterlimit="10" d="M103.739,339.979
				c-0.033,1.999-1.722,3.57-3.77,3.492c-2.049-0.07-3.631-1.737-3.535-3.724c0.096-1.985,1.784-3.541,3.77-3.473
				C102.189,336.352,103.771,338.003,103.739,339.979z"/>
			<path fill="#FFFFFF" d="M97.833,341.073c0.195,0.06,0.289,0.499,0.766,0.854c0.459,0.385,1.181,0.352,1.134,0.554
				c-0.001,0.239-1.095,0.518-1.752-0.171C97.346,341.632,97.667,340.971,97.833,341.073z"/>
		</g>
	</g>
</g>
</svg>
