<?xml version="1.0" encoding="utf-8"?>
<!-- Generator: Adobe Illustrator 16.0.0, SVG Export Plug-In . SVG Version: 6.00 Build 0)  -->
<!DOCTYPE svg PUBLIC "-//W3C//DTD SVG 1.1//EN" "http://www.w3.org/Graphics/SVG/1.1/DTD/svg11.dtd">
<svg version="1.1" id="Layer_1" xmlns="http://www.w3.org/2000/svg" xmlns:xlink="http://www.w3.org/1999/xlink" x="0px" y="0px"
	 width="215.077px" height="215.077px" viewBox="0 0 215.077 215.077" enable-background="new 0 0 215.077 215.077"
	 xml:space="preserve">
<g>
	<path fill="#FFFFFF" d="M139.115,137.424c0,0,6.517-17.771-17.021-17.269c0,0,4.508,1.329,1.917,1.501
		c-2.575,0.167-8.252-0.502-15.268,8.511c0,0,3.588-0.749,3.259,0.495c-0.343,1.255-4.338-0.162-10.266,8.349
		c0,0,2.673-1.003,3.424-0.67c0.749,0.333-7.594,5.592-13.438,18.863c0,0,4.837-0.915,6.348,1c0,0-2.673,5.842-2.765,9.68
		c0,0,2.509,0,2.765,0.666c0,0-5.685,19.363-2.096,27.288c0,0,0.339-2.583,2.421-3.585l0.924,1.501c0,0,9.342-5.259,10.92-9.007
		c0,0,2.595-0.171,2.682,1.25c0,0,2.078-3.592,5.425-5.427c0,0,5.665,11.683,7.933,11.428c0,0,4.086-15.52,9.674-18.938
		c0,0-2.344-2.336-1.501-3.419c0,0,4.339,2.087,6.339-3.174c2-5.259,3.67-1.503,3.67-1.503s4.102-6.006,5.177-13.52
		C150.727,143.933,147.463,130.167,139.115,137.424z"/>
	<path fill="#FFFFFF" d="M176.095,37.112c0,0,1.096-13.48-15.045-13.48c0,0-1.891,1.884,0.773,2.82
		c2.673,0.941-9.251,0.321-11.752,4.552c-2.511,4.226-6.899,0.777-9.092,4.853c0,0,3.605,1.725,3.287,3.762
		c-0.308,2.038-4.379,0.309-5.794,7.218c-1.422,6.89-6.907,7.049-5.334,10.184c1.564,3.133,7.678,0.944,6.121,3.296
		c-1.577,2.352-4.54,13.008-1.568,15.054c2.974,2.034,3.916,0.151,5.166,7.368c1.252,7.204,6.112,7.987,8.938,14.1
		c2.82,6.116,7.687,18.651,10.815,19.287c0,0-2.197-18.037,3.915-25.244c6.117-7.21,5.958-10.661,6.117-10.193
		c0.159,0.482,4.229,2.52,4.229,2.52s6.268-9.255,5.49-10.974c0,0,4.226-2.188,5.799,0.154c1.564,2.343,1.26,3.761,1.26,3.761
		s1.878-10.819,0.933-12.225c-0.933-1.415,2.351,0.468,2.351,0.468s0.941-15.208-1.886-19.906
		c-2.821-4.698-5.009-15.204-8.456-14.264c-3.452,0.934-6.431,7.675-6.431,7.675"/>
	<path fill="#FFFFFF" d="M68.32,36.167c0,0-2.826-16.928-27.981-16.928c0,0,5.409,0.938,3.999,2.586
		c-1.414,1.648-9.176-0.705-11.997,5.878c0,0-7.759,5.408-9.169,12.931c0,0,3.996,1.414,5.405,2.585
		c1.41,1.181-4.231,3.764-2.817,8.234c1.408,4.467-3.766,10.138-3.529,13.652c0.232,3.51,12.932,1.396,14.342,2.808
		c1.41,1.409,4.469,14.812,7.052,15.281c2.591,0.468,3.766,0.94,7.291,7.763c3.531,6.814,17.405,29.39,17.405,29.39
		s2.349-17.636,5.405-22.094c3.059-4.472,10.112-12.239,9.874-13.645c-0.23-1.414,5.18,1.179,5.18,1.179s7.522-10.824,7.052-13.641
		c-0.471-2.824,8.464,1.408,8.464,1.408s3.293-17.873,0-22.569c-3.293-4.707,3.527-3.764,2.581-4.941
		C105.937,44.868,85.955,17.357,68.32,36.167z"/>
</g>
</svg>
