<?xml version="1.0" encoding="utf-8"?>
<!-- Generator: Adobe Illustrator 16.0.0, SVG Export Plug-In . SVG Version: 6.00 Build 0)  -->
<!DOCTYPE svg PUBLIC "-//W3C//DTD SVG 1.1//EN" "http://www.w3.org/Graphics/SVG/1.1/DTD/svg11.dtd">
<svg version="1.1" id="bcaklogo" xmlns="http://www.w3.org/2000/svg" xmlns:xlink="http://www.w3.org/1999/xlink" x="0px" y="0px"
	 width="108.545px" height="78.188px" viewBox="418.022 360.751 108.545 78.188"
	 enable-background="new 418.022 360.751 108.545 78.188" xml:space="preserve">
<g>
	<path fill="#FFFFFF" d="M448.276,375.772c6.422-6.422,14.96-9.99,24.042-9.99c9.081,0,17.62,3.521,24.042,9.943
		s9.959,15.015,9.959,24.097c0,3.439-0.51,6.805-1.488,10.055h2.078c0.918-3.25,1.41-6.594,1.41-10.062
		c0-19.883-16.119-35.969-36-35.969c-15.013,0-27.877,9.156-33.279,22.281h2.163C442.878,382.251,445.258,378.79,448.276,375.772z"
		/>
	<path fill="#FFFFFF" d="M496.359,423.855c-6.422,6.422-14.961,9.928-24.042,9.928c-9.082,0-17.62-3.553-24.042-9.975
		s-9.958-14.906-9.958-23.986c0-3.441,0.508-6.821,1.488-9.946h-2.079c-0.917,3.125-1.409,6.468-1.409,9.938
		c0,19.881,16.117,36.031,36,36.031c15.013,0,27.876-9.219,33.278-22.219h-2.162C501.758,417.377,499.377,420.838,496.359,423.855z"
		/>
	<polygon fill="#FFFFFF" points="497.92,387.001 440.832,387.001 438.691,387.001 425.782,387.001 422.318,389.001 437.991,389.001 
		440.087,389.001 494.475,389.001 497.938,387.001 	"/>
	<polygon fill="#FFFFFF" points="506.645,410.752 504.549,410.752 450.115,410.752 446.651,412.752 503.805,412.752 
		505.943,412.752 518.809,412.752 522.271,410.752 	"/>
	<polygon fill="#FFFFFF" points="485.072,395.876 479.984,400.9 479.984,400.9 474.873,395.782 474.873,395.782 469.762,400.855 
		469.762,400.855 464.651,395.759 464.651,395.759 459.517,400.93 456.627,403.877 459.517,403.877 459.563,403.877 
		464.651,398.727 464.651,398.727 469.762,403.783 469.762,403.783 474.873,398.68 474.873,398.68 479.984,403.76 479.984,403.76 
		485.072,398.753 488.008,395.876 	"/>
</g>
</svg>
