<?xml version="1.0" encoding="utf-8"?>
<!-- Generator: Adobe Illustrator 16.0.0, SVG Export Plug-In . SVG Version: 6.00 Build 0)  -->
<!DOCTYPE svg PUBLIC "-//W3C//DTD SVG 1.1//EN" "http://www.w3.org/Graphics/SVG/1.1/DTD/svg11.dtd">
<svg version="1.1" id="Layer_1" xmlns="http://www.w3.org/2000/svg" xmlns:xlink="http://www.w3.org/1999/xlink" x="0px" y="0px"
	 width="264px" height="264px" viewBox="0 0 264 264" enable-background="new 0 0 264 264" xml:space="preserve">
<g id="Layer_1_1_">
</g>
<g id="Layer_2">
</g>
<g id="Layer_3">
	<g>
		<polygon fill="none" stroke="#FFFFFF" stroke-width="2.3668" stroke-miterlimit="10" points="117.644,168.814 112.106,178.411 
			112.106,178.411 163.523,169.919 156.824,158.316 156.824,158.316 		"/>
		<polygon fill="none" stroke="#FFFFFF" stroke-width="2.3668" stroke-miterlimit="10" points="112.106,178.411 107.394,186.57 
			107.394,186.57 170.739,182.419 163.523,169.919 163.523,169.919 		"/>
		<polygon fill="none" stroke="#FFFFFF" stroke-width="2.3668" stroke-miterlimit="10" points="124.399,156.852 124.396,156.852 
			117.644,168.681 117.644,168.681 156.824,158.25 150.467,147.139 150.467,147.139 		"/>
		<polygon fill="none" stroke="#FFFFFF" stroke-width="2.3668" stroke-miterlimit="10" points="130.855,142.234 130.855,142.239 
			123.331,157.119 149.938,146.755 144.238,135.551 143.965,135.551 		"/>
		<polygon fill="none" stroke="#FFFFFF" stroke-width="2.3668" stroke-miterlimit="10" points="130.855,142.239 130.855,142.234 
			138.898,130.157 139.111,131.409 139.641,133.184 132.161,133.184 		"/>
		<polygon fill="none" stroke="#FFFFFF" stroke-width="2.3668" stroke-miterlimit="10" points="144.187,136.65 140.322,130.181 
			140.322,130.176 139.837,130.157 139.837,130.157 132.863,142.234 		"/>
		<polygon fill="none" stroke="#FFFFFF" stroke-width="2.3668" stroke-miterlimit="10" points="123.755,157.91 123.755,157.512 
			132.662,144.211 132.161,133.184 119.857,133.184 		"/>
		<polygon fill="none" stroke="#FFFFFF" stroke-width="2.3668" stroke-miterlimit="10" points="70.233,9.682 73.949,16.796 
			81.409,7.746 72.273,7.746 		"/>
		<polygon fill="none" stroke="#FFFFFF" stroke-width="2.3668" stroke-miterlimit="10" points="73.949,16.122 77.374,22.727 
			92.041,7.746 81.409,7.746 		"/>
		<polygon fill="none" stroke="#FFFFFF" stroke-width="2.3668" stroke-miterlimit="10" points="70.233,8.337 72.273,5.049 
			68.335,5.049 		"/>
		<polygon fill="none" stroke="#FFFFFF" stroke-width="2.3668" stroke-miterlimit="10" points="103.079,194.554 99.453,201.82 
			99.5,201.82 187.475,212.595 187.475,212.595 178.324,196.347 178.324,196.416 		"/>
		<polygon fill="none" stroke="#FFFFFF" stroke-width="2.3668" stroke-miterlimit="10" points="107.569,187.069 103.385,194.72 
			103.323,194.72 178.898,196.691 171.09,182.424 171.09,182.419 		"/>
		<polygon fill="none" stroke="#FFFFFF" stroke-width="2.3668" stroke-miterlimit="10" points="86.749,222.33 86.749,222.33 
			86.959,221.965 		"/>
		<polygon fill="none" stroke="#FFFFFF" stroke-width="2.3668" stroke-miterlimit="10" points="77.374,22.055 80.604,28.314 
			104.828,7.746 92.041,7.746 		"/>
		<polygon fill="none" stroke="#FFFFFF" stroke-width="2.3668" stroke-miterlimit="10" points="178.694,197.969 187.683,214.426 
			221.705,133.184 220.408,133.184 217.973,133.184 215.402,133.184 214.27,133.184 		"/>
		<polygon fill="none" stroke="#FFFFFF" stroke-width="2.3668" stroke-miterlimit="10" points="187.683,213.541 187.683,213.541 
			198.146,232.546 228.554,133.184 228.133,133.184 225.559,133.184 222.983,133.184 221.705,133.184 		"/>
		<polygon fill="none" stroke="#FFFFFF" stroke-width="2.3668" stroke-miterlimit="10" points="198.146,231.658 198.146,231.658 
			210.731,254.342 235.009,133.184 233.277,133.184 230.703,133.184 228.554,133.184 		"/>
		<polygon fill="none" stroke="#FFFFFF" stroke-width="2.3668" stroke-miterlimit="10" points="170.494,184.198 178.19,196.587 
			178.19,197.178 214.27,133.184 212.825,133.184 210.25,133.184 206.014,133.184 		"/>
		<polygon fill="none" stroke="#FFFFFF" stroke-width="2.3668" stroke-miterlimit="10" points="163.698,171.694 171.09,182.812 
			171.09,183.406 206.014,133.184 196.588,133.184 		"/>
		<polygon fill="none" stroke="#FFFFFF" stroke-width="2.3668" stroke-miterlimit="10" points="198.146,229.803 96.168,206.054 
			92.987,211.59 92.987,211.26 210.735,251.521 210.731,251.521 		"/>
		<polygon fill="none" stroke="#FFFFFF" stroke-width="2.3668" stroke-miterlimit="10" points="100.087,200.165 100.087,200.948 
			45.433,133.184 24.507,133.184 96.391,207.871 		"/>
		<polygon fill="none" stroke="#FFFFFF" stroke-width="2.3668" stroke-miterlimit="10" points="107.394,188.345 111.725,179.294 
			111.725,179.294 92.987,130.621 92.987,133.184 79.319,133.184 		"/>
		<polygon fill="none" stroke="#FFFFFF" stroke-width="2.3668" stroke-miterlimit="10" points="112.106,180.182 117.644,171.477 
			117.644,171.477 107.147,133.184 107.147,133.184 93.749,133.184 		"/>
		<polygon fill="none" stroke="#FFFFFF" stroke-width="2.3668" stroke-miterlimit="10" points="198.146,229.884 198.146,229.884 
			187.683,211.768 99.545,200.165 96.122,206.096 96.122,206.096 		"/>
		<polygon fill="none" stroke="#FFFFFF" stroke-width="2.3668" stroke-miterlimit="10" points="103.263,195.496 108.312,187.458 
			108.312,187.458 81.153,130.621 81.153,133.184 63.412,133.184 		"/>
		<polygon fill="none" stroke="#FFFFFF" stroke-width="2.3668" stroke-miterlimit="10" points="117.644,170.59 124.396,159.782 
			119.857,133.184 119.857,133.184 107.147,133.184 		"/>
		<polygon fill="none" stroke="#FFFFFF" stroke-width="2.3668" stroke-miterlimit="10" points="178.19,63.861 178.19,63.471 
			170.494,78.822 206.009,133.184 207.676,133.184 210.25,133.184 212.825,133.184 214.27,133.184 		"/>
		<polygon fill="none" stroke="#FFFFFF" stroke-width="2.3668" stroke-miterlimit="10" points="140.322,129.089 144.187,122.617 
			132.924,117.03 139.8,129.113 140.322,129.091 		"/>
		<polygon fill="none" stroke="#FFFFFF" stroke-width="2.3668" stroke-miterlimit="10" points="139.962,129.113 140.267,129.633 
			140.576,129.091 		"/>
		<polygon fill="none" stroke="#FFFFFF" stroke-width="2.3668" stroke-miterlimit="10" points="144.316,122.617 144.316,122.617 
			150.47,111.961 124.396,102.151 132.987,117.03 		"/>
		<polygon fill="none" stroke="#FFFFFF" stroke-width="2.3668" stroke-miterlimit="10" points="150.47,111.961 150.47,111.959 
			156.824,100.953 156.824,100.951 117.644,90.454 124.396,102.151 		"/>
		<polygon fill="none" stroke="#FFFFFF" stroke-width="2.3668" stroke-miterlimit="10" points="142.689,123.405 142.689,123.012 
			139.763,131.063 140.868,133.184 154.819,133.184 		"/>
		<polygon fill="none" stroke="#FFFFFF" stroke-width="2.3668" stroke-miterlimit="10" points="140.576,129.089 140.576,129.091 
			140.267,129.633 140.868,129.633 		"/>
		<polygon fill="none" stroke="#FFFFFF" stroke-width="2.3668" stroke-miterlimit="10" points="187.686,47.5 198.146,29.385 
			198.146,29.385 96.122,53.173 99.545,59.107 		"/>
		<polygon fill="none" stroke="#FFFFFF" stroke-width="2.3668" stroke-miterlimit="10" points="178.19,63.076 178.19,63.073 
			187.657,47.504 187.657,47.5 99.534,59.107 103.003,65.544 		"/>
		<polygon fill="none" stroke="#FFFFFF" stroke-width="2.3668" stroke-miterlimit="10" points="149.79,112.75 149.79,112.357 
			143.975,124.588 154.819,133.184 172.004,133.184 		"/>
		<polygon fill="none" stroke="#FFFFFF" stroke-width="2.3668" stroke-miterlimit="10" points="157.057,100.951 163.99,89.349 
			163.99,89.347 112.335,80.859 117.876,90.454 		"/>
		<polygon fill="none" stroke="#FFFFFF" stroke-width="2.3668" stroke-miterlimit="10" points="198.146,29.385 210.731,7.587 
			210.731,7.585 92.893,47.585 96.122,53.173 		"/>
		<polygon fill="none" stroke="#FFFFFF" stroke-width="2.3668" stroke-miterlimit="10" points="163.528,89.347 170.739,76.851 
			107.394,72.698 112.104,80.859 		"/>
		<polygon fill="none" stroke="#FFFFFF" stroke-width="2.3668" stroke-miterlimit="10" points="80.604,27.644 83.705,33.69 
			120.849,7.746 104.828,7.746 		"/>
		<polygon fill="none" stroke="#FFFFFF" stroke-width="2.3668" stroke-miterlimit="10" points="170.739,76.851 170.744,76.849 
			178.692,63.076 103.263,65.544 107.394,72.698 		"/>
		<polygon fill="none" stroke="#FFFFFF" stroke-width="2.3668" stroke-miterlimit="10" points="89.79,43.559 92.893,48.26 
			210.731,9.268 212.193,7.746 171.805,7.746 		"/>
		<polygon fill="none" stroke="#FFFFFF" stroke-width="2.3668" stroke-miterlimit="10" points="208.958,7.585 208.958,8.375 
			235.009,133.184 235.715,133.184 238.289,133.184 240.859,133.184 241.215,133.184 228.941,7.746 212.193,7.746 		"/>
		<polygon fill="none" stroke="#FFFFFF" stroke-width="2.3668" stroke-miterlimit="10" points="241.215,133.184 243.434,133.184 
			244.46,133.184 244.46,6.042 244.46,7.746 228.941,7.746 		"/>
		<polygon fill="none" stroke="#FFFFFF" stroke-width="2.3668" stroke-miterlimit="10" points="83.705,33.017 86.749,38.961 
			141.986,7.746 120.849,7.746 		"/>
		<polygon fill="none" stroke="#FFFFFF" stroke-width="2.3668" stroke-miterlimit="10" points="86.749,38.286 89.79,44.231 
			171.805,7.746 141.986,7.746 		"/>
		<polygon fill="none" stroke="#FFFFFF" stroke-width="2.3668" stroke-miterlimit="10" points="210.731,9.36 198.146,32.05 
			198.146,32.05 228.554,133.184 230.703,133.184 233.277,133.184 235.009,133.184 		"/>
		<polygon fill="none" stroke="#FFFFFF" stroke-width="2.3668" stroke-miterlimit="10" points="156.824,102.73 150.47,114.625 
			172.004,133.184 185.501,133.184 		"/>
		<polygon fill="none" stroke="#FFFFFF" stroke-width="2.3668" stroke-miterlimit="10" points="163.555,91.124 156.89,101.346 
			156.89,101.942 185.501,133.184 196.584,133.184 		"/>
		<polygon fill="none" stroke="#FFFFFF" stroke-width="2.3668" stroke-miterlimit="10" points="171.09,77.636 171.09,77.246 
			161.623,89.545 161.623,90.239 196.584,133.184 205.102,133.184 206.009,133.184 		"/>
		<polygon fill="none" stroke="#FFFFFF" stroke-width="2.3668" stroke-miterlimit="10" points="187.683,49.277 178.694,65.738 
			214.27,133.184 215.26,133.184 217.834,133.184 220.408,133.184 221.703,133.184 		"/>
		<polygon fill="none" stroke="#FFFFFF" stroke-width="2.3668" stroke-miterlimit="10" points="156.824,160.092 163.523,172.582 
			163.523,172.582 196.588,133.184 185.506,133.184 		"/>
		<polygon fill="none" stroke="#FFFFFF" stroke-width="2.3668" stroke-miterlimit="10" points="198.133,31.162 187.657,47.895 
			187.657,48.491 221.703,133.184 222.983,133.184 225.559,133.184 228.133,133.184 228.554,133.184 		"/>
		<polygon fill="none" stroke="#FFFFFF" stroke-width="2.3668" stroke-miterlimit="10" points="99.141,201.936 102.455,194.118 
			102.455,194.706 63.346,133.184 63.412,133.184 45.433,133.184 45.401,133.184 		"/>
		<polygon fill="none" stroke="#FFFFFF" stroke-width="2.3668" stroke-miterlimit="10" points="70.233,251.559 69.837,251.247 
			5.417,248.839 5.417,258.622 66.513,258.622 		"/>
		<polygon fill="none" stroke="#FFFFFF" stroke-width="2.3668" stroke-miterlimit="10" points="70.233,252.186 66.513,258.622 
			74.236,258.622 		"/>
		<polygon fill="none" stroke="#FFFFFF" stroke-width="2.3668" stroke-miterlimit="10" points="73.556,244.496 76.784,238.565 
			76.784,238.565 5.417,221.97 5.417,235.579 		"/>
		<polygon fill="none" stroke="#FFFFFF" stroke-width="2.3668" stroke-miterlimit="10" points="69.837,250.897 73.556,244.421 
			72.964,244.421 5.417,235.579 5.417,248.839 		"/>
		<polygon fill="none" stroke="#FFFFFF" stroke-width="2.3668" stroke-miterlimit="10" points="77.426,239.188 74.053,244.889 
			74.053,245.482 83.832,258.622 94.995,258.622 		"/>
		<polygon fill="none" stroke="#FFFFFF" stroke-width="2.3668" stroke-miterlimit="10" points="73.493,245.121 69.32,251.328 
			69.32,251.922 74.236,258.622 83.832,258.622 		"/>
		<polygon fill="none" stroke="#FFFFFF" stroke-width="2.3668" stroke-miterlimit="10" points="86.353,222.33 86.763,221.965 
			87.295,221.878 89.692,218.388 88.954,218.388 5.417,157.161 5.417,175.827 		"/>
		<polygon fill="none" stroke="#FFFFFF" stroke-width="2.3668" stroke-miterlimit="10" points="89.396,216.856 92.5,211.287 
			91.908,211.287 5.417,135.661 5.417,157.161 		"/>
		<polygon fill="none" stroke="#FFFFFF" stroke-width="2.3668" stroke-miterlimit="10" points="80.604,233.6 77.374,239.498 
			77.374,239.498 94.995,258.622 108.421,258.622 		"/>
		<polygon fill="none" stroke="#FFFFFF" stroke-width="2.3668" stroke-miterlimit="10" points="92.498,211.684 95.844,206.096 
			95.844,206.096 24.351,130.422 24.351,133.184 5.417,133.184 5.417,135.661 		"/>
		<polygon fill="none" stroke="#FFFFFF" stroke-width="2.3668" stroke-miterlimit="10" points="76.98,238.37 80.209,232.588 
			79.618,232.588 5.417,207.721 5.417,221.97 		"/>
		<polygon fill="none" stroke="#FFFFFF" stroke-width="2.3668" stroke-miterlimit="10" points="80.209,232.974 83.113,227.6 
			83.113,227.6 5.417,192.487 5.417,207.721 		"/>
		<polygon fill="none" stroke="#FFFFFF" stroke-width="2.3668" stroke-miterlimit="10" points="83.312,227.6 85.513,223.444 
			5.417,177.315 5.417,192.487 		"/>
		<polygon fill="none" stroke="#FFFFFF" stroke-width="2.3668" stroke-miterlimit="10" points="253.386,133.184 253.735,133.184 
			256.168,133.184 256.293,133.184 256.293,77.437 		"/>
		<polygon fill="none" stroke="#FFFFFF" stroke-width="2.3668" stroke-miterlimit="10" points="253.735,133.184 253.386,133.184 
			251.16,133.184 248.586,133.184 247.303,133.184 246.009,133.184 243.434,133.184 241.215,133.184 240.859,133.184 
			238.289,133.184 235.715,133.184 235.009,133.184 233.277,133.184 230.703,133.184 228.554,133.184 228.133,133.184 
			225.559,133.184 222.983,133.184 221.703,133.184 220.408,133.184 217.834,133.184 215.26,133.184 214.27,133.184 
			212.825,133.184 210.25,133.184 207.676,133.184 206.009,133.184 205.102,133.184 196.584,133.184 185.501,133.184 
			172.004,133.184 154.819,133.184 140.868,133.184 140.267,133.184 139.962,130.889 132.987,117.918 124.396,102.594 
			117.644,90.677 112.104,80.968 107.394,72.753 103.263,65.575 99.545,59.121 96.122,53.183 92.893,47.59 89.79,42.213 
			86.749,36.939 83.705,31.668 80.604,26.296 77.374,20.708 73.949,14.774 70.233,8.337 68.335,5.049 68.335,5.049 70.233,8.337 
			73.949,14.778 77.374,20.711 80.604,26.298 83.705,31.671 86.749,36.944 87.392,38.057 89.79,42.213 92.893,47.587 96.122,53.175 
			99.545,59.112 103.263,65.548 107.394,72.701 112.106,80.862 117.644,90.459 124.396,102.151 132.985,117.032 139.962,130.889 
			140.267,133.184 140.868,133.184 154.82,133.184 172.004,133.184 185.506,133.184 196.588,133.184 206.014,133.184 
			210.25,133.184 212.825,133.184 214.27,133.184 215.402,133.184 217.973,133.184 220.408,133.184 221.705,133.184 
			222.983,133.184 225.559,133.184 228.133,133.184 228.554,133.184 230.703,133.184 233.277,133.184 235.009,133.184 
			235.855,133.184 238.433,133.184 240.859,133.184 241.215,133.184 243.434,133.184 246.009,133.184 247.303,133.184 
			248.586,133.184 251.16,133.184 253.386,133.184 253.735,133.184 256.31,133.184 258.526,133.184 258.526,133.184 
			256.168,133.184 		"/>
		<polygon fill="none" stroke="#FFFFFF" stroke-width="2.3668" stroke-miterlimit="10" points="253.735,133.184 253.386,133.184 
			256.293,181.836 256.293,133.184 256.31,133.184 		"/>
		<polygon fill="none" stroke="#FFFFFF" stroke-width="2.3668" stroke-miterlimit="10" points="256.293,7.746 244.46,7.746 
			244.46,67.842 244.46,133.184 248.586,133.184 251.16,133.184 253.386,133.184 256.293,77.437 		"/>
		<polygon fill="none" stroke="#FFFFFF" stroke-width="2.3668" stroke-miterlimit="10" points="253.386,133.184 251.16,133.184 
			246.827,133.184 246.827,253.228 246.827,258.622 256.293,258.622 256.293,181.836 		"/>
		<polygon fill="none" stroke="#FFFFFF" stroke-width="2.3668" stroke-miterlimit="10" points="241.215,133.184 240.859,133.184 
			238.433,133.184 235.855,133.184 235.009,133.184 208.958,252.474 208.958,252.081 214.016,258.622 228.632,258.622 		"/>
		<polygon fill="none" stroke="#FFFFFF" stroke-width="2.3668" stroke-miterlimit="10" points="86.749,222.954 86.749,222.954 
			86.104,223.754 83.705,228.381 83.705,228.381 125.253,258.622 147.443,258.622 		"/>
		<polygon fill="none" stroke="#FFFFFF" stroke-width="2.3668" stroke-miterlimit="10" points="89.79,217.685 87.392,222.15 
			150.025,258.622 178.769,258.622 		"/>
		<polygon fill="none" stroke="#FFFFFF" stroke-width="2.3668" stroke-miterlimit="10" points="244.46,191.428 244.46,133.184 
			246.009,133.184 243.434,133.184 241.215,133.184 228.632,258.622 244.46,258.622 		"/>
		<polygon fill="none" stroke="#FFFFFF" stroke-width="2.3668" stroke-miterlimit="10" points="83.979,228.224 81.153,233.369 
			81.153,233.96 108.421,258.622 125.253,258.622 		"/>
		<polygon fill="none" stroke="#FFFFFF" stroke-width="2.3668" stroke-miterlimit="10" points="210.735,252.312 93.306,211.999 
			90.62,217.254 90.62,217.948 178.769,258.622 214.016,258.622 		"/>
		<polygon fill="none" stroke="#FFFFFF" stroke-width="2.3668" stroke-miterlimit="10" points="76.98,20.711 73.359,14.778 
			5.417,23.695 5.417,37.305 		"/>
		<polygon fill="none" stroke="#FFFFFF" stroke-width="2.3668" stroke-miterlimit="10" points="107.147,133.184 107.147,133.184 
			119.857,133.184 124.396,103.926 117.644,93.12 		"/>
		<polygon fill="none" stroke="#FFFFFF" stroke-width="2.3668" stroke-miterlimit="10" points="92.987,130.422 92.987,133.184 
			107.147,133.184 117.644,92.234 111.727,82.145 		"/>
		<polygon fill="none" stroke="#FFFFFF" stroke-width="2.3668" stroke-miterlimit="10" points="132.161,133.184 139.641,133.184 
			139.962,130.889 132.985,119.693 		"/>
		<polygon fill="none" stroke="#FFFFFF" stroke-width="2.3668" stroke-miterlimit="10" points="119.857,133.184 119.857,133.184 
			132.161,133.184 132.985,118.805 124.396,104.812 		"/>
		<polygon fill="none" stroke="#FFFFFF" stroke-width="2.3668" stroke-miterlimit="10" points="63.412,133.184 63.412,133.184 
			79.317,133.184 107.394,74.476 103.263,68.209 		"/>
		<polygon fill="none" stroke="#FFFFFF" stroke-width="2.3668" stroke-miterlimit="10" points="81.153,130.422 81.153,133.184 
			93.744,133.184 112.106,82.637 108.312,73.983 		"/>
		<polygon fill="none" stroke="#FFFFFF" stroke-width="2.3668" stroke-miterlimit="10" points="139.967,130.157 139.967,130.157 
			140.267,129.636 139.643,129.636 		"/>
		<polygon fill="none" stroke="#FFFFFF" stroke-width="2.3668" stroke-miterlimit="10" points="139.763,131.953 142.689,137.046 
			142.689,137.64 154.82,133.184 140.868,133.184 		"/>
		<polygon fill="none" stroke="#FFFFFF" stroke-width="2.3668" stroke-miterlimit="10" points="144.316,138.431 150.467,149.968 
			150.467,149.968 172.004,133.184 154.82,133.184 		"/>
		<polygon fill="none" stroke="#FFFFFF" stroke-width="2.3668" stroke-miterlimit="10" points="140.576,130.181 140.868,129.636 
			140.267,129.636 140.576,130.176 		"/>
		<polygon fill="none" stroke="#FFFFFF" stroke-width="2.3668" stroke-miterlimit="10" points="45.433,133.184 63.412,133.184 
			103.263,67.321 99.545,61.772 		"/>
		<polygon fill="none" stroke="#FFFFFF" stroke-width="2.3668" stroke-miterlimit="10" points="139.641,129.636 139.643,129.636 
			140.267,129.636 139.962,129.116 		"/>
		<polygon fill="none" stroke="#FFFFFF" stroke-width="2.3668" stroke-miterlimit="10" points="140.576,130.176 140.267,129.636 
			139.967,130.157 		"/>
		<polygon fill="none" stroke="#FFFFFF" stroke-width="2.3668" stroke-miterlimit="10" points="69.837,9.684 68.335,7.746 
			5.417,7.746 5.417,10.431 		"/>
		<polygon fill="none" stroke="#FFFFFF" stroke-width="2.3668" stroke-miterlimit="10" points="83.312,31.671 80.013,26.298 
			5.417,51.552 5.417,66.786 		"/>
		<polygon fill="none" stroke="#FFFFFF" stroke-width="2.3668" stroke-miterlimit="10" points="86.353,36.944 83.113,31.671 
			5.417,66.786 5.417,83.446 		"/>
		<polygon fill="none" stroke="#FFFFFF" stroke-width="2.3668" stroke-miterlimit="10" points="92.498,47.587 89.196,42.213 
			5.417,102.108 5.417,123.608 		"/>
		<polygon fill="none" stroke="#FFFFFF" stroke-width="2.3668" stroke-miterlimit="10" points="24.351,130.422 24.351,133.184 
			45.433,133.184 45.365,133.184 99.514,60.884 96.031,54.455 		"/>
		<polygon fill="none" stroke="#FFFFFF" stroke-width="2.3668" stroke-miterlimit="10" points="89.396,42.213 86.798,38.057 
			5.417,84.928 5.417,102.108 		"/>
		<polygon fill="none" stroke="#FFFFFF" stroke-width="2.3668" stroke-miterlimit="10" points="80.209,26.298 76.784,20.711 
			5.417,37.305 5.417,51.552 		"/>
		<polygon fill="none" stroke="#FFFFFF" stroke-width="2.3668" stroke-miterlimit="10" points="150.496,149.08 156.89,158.71 
			156.89,159.301 185.506,133.184 172.004,133.184 		"/>
		<polygon fill="none" stroke="#FFFFFF" stroke-width="2.3668" stroke-miterlimit="10" points="73.556,14.778 69.639,8.337 
			5.417,10.431 5.417,23.695 		"/>
		<polygon fill="none" stroke="#FFFFFF" stroke-width="2.3668" stroke-miterlimit="10" points="24.505,133.184 96.122,54.947 
			92.498,48.475 5.417,123.608 5.417,133.184 		"/>
		<polygon fill="none" stroke="#FFFFFF" stroke-width="2.3668" stroke-miterlimit="10" points="85.709,222.654 86.353,220.754 
			85.761,220.754 5.417,175.827 5.417,177.315 		"/>
		<polygon fill="none" stroke="#FFFFFF" stroke-width="2.3668" stroke-miterlimit="10" points="86.996,38.057 86.154,36.944 
			5.417,83.446 5.417,84.928 		"/>
		<polygon fill="none" stroke="#FFFFFF" stroke-width="2.3668" stroke-miterlimit="10" points="246.827,129.633 246.827,129.633 
			246.827,67.842 246.827,6.628 246.827,6.628 246.827,6.042 		"/>
		<polygon fill="none" stroke="#FFFFFF" stroke-width="2.3668" stroke-miterlimit="10" points="246.827,129.633 246.827,129.633 
			246.827,191.428 246.827,258.95 246.827,258.95 246.827,253.228 		"/>
		<polygon fill="none" stroke="#FFFFFF" stroke-width="2.3668" stroke-miterlimit="10" points="87.392,221.836 86.959,222.279 
			86.749,223.111 147.443,258.622 150.025,258.622 		"/>
	</g>
</g>
</svg>
