<?xml version="1.0" encoding="utf-8"?>
<!-- Generator: Adobe Illustrator 16.0.0, SVG Export Plug-In . SVG Version: 6.00 Build 0)  -->
<!DOCTYPE svg PUBLIC "-//W3C//DTD SVG 1.1//EN" "http://www.w3.org/Graphics/SVG/1.1/DTD/svg11.dtd">
<svg version="1.1" id="bcaklogo" xmlns="http://www.w3.org/2000/svg" xmlns:xlink="http://www.w3.org/1999/xlink" x="0px" y="0px"
	 width="936px" height="792px" viewBox="0 0 936 792" enable-background="new 0 0 936 792" xml:space="preserve">
<g>
	<path d="M275.85,204.167c51.373-51.374,119.679-79.917,192.333-79.917s140.958,28.168,192.333,79.542
		c51.375,51.374,79.667,120.117,79.667,192.771c0,27.52-4.067,54.438-11.902,80.438h16.633c7.33-26,11.27-52.739,11.27-80.5
		c0-159.058-128.942-287.75-288-287.75C348.085,108.75,245.174,182,201.956,287h17.305C232.668,256,251.709,228.308,275.85,204.167z
		"/>
	<path d="M660.516,588.833c-51.375,51.375-119.68,79.417-192.333,79.417s-140.96-28.417-192.333-79.792
		c-51.374-51.374-79.667-119.242-79.667-191.896c0-27.52,4.067-54.562,11.903-79.562h-16.633c-7.33,25-11.27,51.739-11.27,79.5
		c0,159.058,128.941,288.25,288,288.25c120.097,0,223.009-73.75,266.227-177.75h-17.304
		C703.698,537,684.656,564.692,660.516,588.833z"/>
	<polygon points="673,294 216.293,294 199.17,294 95.897,294 68.184,310 193.571,310 210.34,310 645.437,310 673.149,294 	"/>
	<polygon points="742.794,484 726.025,484 290.563,484 262.851,500 720.073,500 737.195,500 840.104,500 867.815,484 	"/>
	<polygon points="570.218,365 529.516,405.201 529.516,405.201 488.627,364.25 488.627,364.25 447.738,404.827 447.738,404.827 
		406.849,364.063 406.849,364.063 365.773,405.421 342.662,429 365.773,429 366.146,429 406.849,387.798 406.849,387.798 
		447.738,428.25 447.738,428.25 488.627,387.423 488.627,387.423 529.516,428.062 529.516,428.062 570.218,388.016 593.701,365 	"/>
</g>
</svg>
