<?xml version="1.0" encoding="utf-8"?>
<!-- Generator: Adobe Illustrator 16.0.0, SVG Export Plug-In . SVG Version: 6.00 Build 0)  -->
<!DOCTYPE svg PUBLIC "-//W3C//DTD SVG 1.1//EN" "http://www.w3.org/Graphics/SVG/1.1/DTD/svg11.dtd">
<svg version="1.1" id="Layer_1" xmlns="http://www.w3.org/2000/svg" xmlns:xlink="http://www.w3.org/1999/xlink" x="0px" y="0px"
	 width="200px" height="206.049px" viewBox="0 0 200 206.049" enable-background="new 0 0 200 206.049" xml:space="preserve">
<circle display="none" fill="#DEA583" cx="100.004" cy="103.024" r="276.25"/>
<path fill="#FFFFFF" d="M199.788,105.201c0.552-4.658-0.022-9.834-1.167-14.928c-0.152-1.783-0.129-1.448-0.021-0.092
	c-0.03-0.137-0.062-0.273-0.094-0.41c-0.089-1.024-0.081-0.883-0.016-0.064c-1.199-5.146-2.955-10.182-4.689-14.484
	c-0.01-0.025-0.021-0.05-0.03-0.076c-0.023-0.057-0.047-0.116-0.069-0.173c-0.112-0.276-0.231-0.549-0.346-0.823
	c-0.13-0.311-0.258-0.623-0.392-0.932c-0.112-0.26-0.23-0.517-0.346-0.776c-0.159-0.359-0.317-0.718-0.481-1.074
	c-0.082-0.178-0.169-0.353-0.252-0.53c-0.205-0.436-0.41-0.872-0.623-1.304c-0.037-0.076-0.076-0.15-0.114-0.226
	c-2.639-5.321-5.828-10.319-9.497-14.919c-0.018-0.023-0.037-0.045-0.055-0.068c-0.391-0.488-0.785-0.973-1.187-1.452
	c-0.1-0.119-0.202-0.235-0.302-0.354c-0.323-0.381-0.646-0.762-0.976-1.138c-0.167-0.19-0.338-0.377-0.507-0.566
	c-0.27-0.301-0.538-0.604-0.812-0.901c-0.202-0.22-0.409-0.436-0.613-0.654c-0.249-0.264-0.496-0.53-0.748-0.791
	c-0.024-0.025-0.048-0.051-0.072-0.076c-0.141-0.146-0.287-0.289-0.43-0.434c-0.318-0.324-0.636-0.647-0.959-0.966
	c-0.14-0.138-0.282-0.273-0.423-0.41c-0.371-0.36-0.744-0.719-1.121-1.073c-0.071-0.066-0.143-0.131-0.214-0.197
	c-4.02-3.741-8.409-7.087-13.109-9.98c-10.474-6.916-22.08-12.25-33.627-16.867c-6.217-2.485-30.696-7.94-19.911-18.31
	c-0.026,0-0.051,0.002-0.077,0.002c0.049-0.002,0.077-0.002,0.077-0.002S97.979-1.33,94.397,4.9
	c-3.582,6.23-0.809,11.545-0.809,11.545S86.382,6.313,76.92,9.036c-9.463,2.722-9.791,7.41-9.791,7.41s7.51-4.622,12.825,1.271
	c5.22,5.787,13.346,7.312,19.158,7.158c-16.971,3.627-32.021,12.428-43.423,24.674c-4.191-2.855-9.166-5.498-14.433-6.731
	c2.007-4.091,3.328-8.519,3.689-12.969c-2.932,3.342-7.247,5.095-11.554,5.793c-1.292,0.209-2.604,0.335-3.913,0.347
	c-1.78,0.017-4.019,3.795-5.124,5.108c-2.993,3.558-5.76,7.252-8.277,11.093c-0.392,0.488-0.781,0.994-1.167,1.523
	c-4.005,6.463-7.29,13.419-9.749,20.753c-0.009,0.028-0.02,0.055-0.029,0.083c-0.008,0.025-0.016,0.051-0.024,0.076
	C1.796,84.555,0,95.178,0,106.222c0,11.512,1.955,22.567,5.541,32.857c0.153,0.44,0.305,0.881,0.464,1.318
	c0.098,0.271,0.201,0.537,0.302,0.806c0.137,0.366,0.271,0.734,0.412,1.1c0.039,0.1,0.08,0.198,0.119,0.298
	c0.089,0.228,0.181,0.454,0.271,0.681c0.181,0.451,0.364,0.9,0.551,1.348c0.118,0.283,0.238,0.566,0.358,0.849
	c0.149,0.347,0.301,0.692,0.454,1.037c14.949,33.845,48.148,57.814,87.126,59.439c0.32,0.015,0.641,0.026,0.961,0.036
	c0.346,0.012,0.692,0.023,1.04,0.031c0.742,0.017,1.484,0.028,2.228,0.028c0.725,0,1.448-0.009,2.171-0.025
	c0.528-0.012,1.055-0.031,1.582-0.051c0.146-0.006,0.294-0.009,0.44-0.016c42.44-1.754,78.038-30.002,90.692-68.644
	c0.019-0.055,0.036-0.108,0.055-0.162c0.153-0.472,0.301-0.944,0.446-1.418c0.076-0.244,0.152-0.487,0.226-0.731
	c0.119-0.396,0.233-0.792,0.348-1.19c0.056-0.193,0.115-0.385,0.17-0.58c-0.021,0.066-0.041,0.132-0.062,0.197
	c1.325-4.688,2.321-9.512,2.952-14.452c0.102-0.659,0.195-1.32,0.281-1.984c0.212-1.976,0.367-3.969,0.462-5.978
	c0.065-1.366,0.106-2.741,0.116-4.122c0.026,0.002,0.049,0.003,0.049,0.003c0-0.002,0-0.004,0-0.006
	c0,0.003,0.065,0.006,0.065,0.006C199.821,106.324,199.805,105.76,199.788,105.201z M75.102,74.056
	c0.051-0.104,0.105-0.208,0.157-0.313c0.732,1.654,1.849,2.8,3.128,3.563c-0.272,1.705-0.419,3.449-0.419,5.229
	c0,30.156,30.85,27.275,30.85,27.275c-7.343,0-13.748-12.918-11.826-27.405c0.924,0.055,1.879-0.101,2.835-0.505
	c6.009-2.542,4.507-6.066,4.507-6.066c-2.438,0-4.246-0.465-5.576-1.222c5.219-16.15,16.148-13.74,16.148-13.74
	c4.043,0.347,7.131,3.592,9.243,7.164c3.874,6.553,2.772,13.691,2.491,14.326c-0.157-0.153-0.316-0.302-0.481-0.448l-3.066-2.062
	c-1.841-0.906-3.912-1.418-6.103-1.418c-7.64,0-13.833,6.193-13.833,13.833c0,0.664,0.05,1.315,0.141,1.954
	c0.688,4.862,3.9,8.911,8.271,10.775c1.089,0.465,2.251,0.792,3.463,0.963c0.939,0.196,1.527,0.264,1.527,0.264
	s0.001-0.05,0.005-0.134c0.033-0.649,0.295-3.609,2.223-5.786c0.848-0.958,2.021-1.761,3.639-2.147
	c0.663-0.159,1.398-0.252,2.221-0.252c1.843,0,3.28,0.447,4.407,1.13c3.751,2.273,4.028,7.189,4.028,7.189s0.021,11.309-5.35,23.162
	c-0.579,0.956-1.101,2.001-1.551,3.14c-0.001,0.001-0.001,0.002-0.002,0.004c-0.018,0.028-0.229,0.376-2.844,4.656
	c-1.683,2.43-3.654,4.779-5.968,6.948c-7.385,6.922-18.241,12.004-34.201,12.004c-25.198,0-37.674-12.669-43.853-25.242
	c0.113-1.722,0.291-3.331,0.53-4.833c0.546,0.734,1.122,1.444,1.726,2.131c0.114,0.131,0.229,0.262,0.347,0.392
	c0.115,0.127,0.23,0.254,0.347,0.379c0.267,0.286,0.542,0.569,0.823,0.85c0.02,0.021,0.038,0.041,0.058,0.061
	c-0.556-0.531-0.793-0.815-0.793-0.815c3.583,4.568,16.471,19.049,37.469,19.854c2.933,0.748,6.609,2.977,3.023,5.891
	c0,0,0.056,0.008,0.152,0.018c0.14,0.018,0.274,0.027,0.403,0.029c1.306,0.067,4.471-0.056,4.471-2.813
	c0-3.474-4.613-3.114-4.613-3.114s0.003,0.002,0.009,0.006c-0.009-0.003-0.019-0.007-0.028-0.01
	c6.668-0.218,14.082-1.821,22.214-5.489c0,0-2.099-2.777-6.177-5.535c-0.161-0.111-0.324-0.223-0.491-0.332
	c5.838-2.96,2.431-8.152,2.431-8.152c-0.103-0.02-0.199-0.034-0.3-0.052c-0.004-0.002-0.008-0.004-0.012-0.006
	c-1.999-0.636-6.691-0.636-8.081,0.058c0,0-1.691,1.668-0.312,2.927c0.366,0.334,0.976,0.493,1.674,0.58
	c-0.296,1.065-1.21,1.697-1.344,1.785c-2.334-0.702-4.863-0.949-7.471-0.381c3.018-2.064,5.597-4.793,7.496-8.235
	c7.597-13.52-9.674-19.861-9.674-19.861s0,8.319-8.319,8.319c-8.319,0-8.348-8.319-8.319-8.319c0.003,0,0.037-0.966,0.204-2.663
	c1.529,4.049,9.848,7.861,11.928,1.16S74.43,94.067,74.43,94.067s1.862,3.313,2.069,5.43c-0.01,0.015-1.168,1.713-2.592,1.117
	c-1.178-1.334-0.84-4.629-0.938-7.3c0-0.027-0.001-0.055-0.003-0.083c-0.012-0.304-0.03-0.601-0.058-0.883
	c-0.107-2.312-0.482-4.468-0.839-6.198c-0.093-1.349-0.285-2.324-0.653-2.686c0,0,0,0,0,0c-0.022,0-0.043-0.256-0.068-0.321
	C72.367,80.237,73.603,77.089,75.102,74.056z M66.792,103.198c0.001,0,0.002,0,0.003-0.001c0.023,0.027,0.047,0.055,0.071,0.083
	c-0.072,0.179-0.111,0.279-0.111,0.279C66.767,103.442,66.779,103.322,66.792,103.198z M71.306,83.129
	c0.014-0.038,0.027-0.076,0.04-0.114c0,0,0.018,0.063,0.05,0.178C71.364,83.166,71.335,83.145,71.306,83.129z M50.779,135.52
	c-0.434-0.206-0.827-0.425-1.173-0.655c-0.038-0.025-0.074-0.05-0.112-0.075C49.917,135.042,50.345,135.286,50.779,135.52z
	 M170.262,60.717c6.329,5.218-3.326,19.314-3.326,19.314s3.536-11.049-4.516-22.121c-3.154-4.336-8.091-8.675-15.711-12.356
	c-0.146-0.083-0.298-0.159-0.455-0.223c-3.714-1.756-7.665-2.907-11.72-3.52c-1.387-0.247-2.729-0.404-3.963-0.43
	c-0.037-0.001-0.071-0.001-0.108-0.002c-1.355-0.085-2.718-0.114-4.082-0.086c-0.67-0.014-0.672-0.014-0.672-0.014
	s0.073,0.008,0.198,0.026c-6.828,0.199-13.692,1.769-20.01,4.46c0.004-0.002,0.01-0.006,0.014-0.008c0,0-0.021,0.01-0.051,0.023
	c-3.102,1.324-6.07,2.918-8.837,4.752c-1.103,0.704-2.15,1.436-3.026,2.162c-0.013,0.011-0.025,0.024-0.039,0.036
	c-0.591,0.457-1.173,0.923-1.74,1.403c-0.233,0.19-0.515,0.428-0.832,0.723c-4.422,3.923-8.012,8.565-10.363,13.746
	c-0.601-0.617-1.115-1.442-1.432-2.349c9.417-14.132,25.624-26.584,53.512-26.584c43.189,0,58.38,29.865,63.702,49.583
	c-7.508-20.612-26.473-28.535-26.473-28.535c0.163,0.077,0.323,0.163,0.483,0.25C170.46,60.8,170.262,60.717,170.262,60.717z
	 M39.189,136.845c6.239,15.749,17.149,29.137,31.02,38.461c-0.267,0.52-4.101,8.271,0.81,15.415
	C76.1,198.111,39.982,175.443,39.189,136.845z M116.581,23.032c-0.617,0-1.232,0.009-1.848,0.022
	c-0.336,0.007-0.671,0.02-1.006,0.031c-0.228,0.008-0.457,0.016-0.685,0.025c-1.41,0.059-2.812,0.153-4.203,0.281
	C110.958,23.06,113.384,22.852,116.581,23.032z M40.809,71.846c-17.617,4.762-6.817-9.937,8.152-14.086
	C45.806,62.155,43.07,66.87,40.809,71.846z M155.057,182.556c-47.296,29.271-68.786,2.927-68.786,2.927s-0.154,4.082,4.16,8.704
	c4.311,4.619-22.046,2.218-20.208-18.583c13.244,8.899,29.183,14.386,46.338,14.386c0.012,0,0.024,0,0.036,0s0.023,0,0.035,0
	c41.582,0,76.035-30.797,82.204-70.649C196.46,135.274,187.577,162.429,155.057,182.556z"/>
</svg>
