<?xml version="1.0" encoding="utf-8"?>
<!-- Generator: Adobe Illustrator 16.0.0, SVG Export Plug-In . SVG Version: 6.00 Build 0)  -->
<!DOCTYPE svg PUBLIC "-//W3C//DTD SVG 1.1//EN" "http://www.w3.org/Graphics/SVG/1.1/DTD/svg11.dtd">
<svg version="1.1" xmlns="http://www.w3.org/2000/svg" xmlns:xlink="http://www.w3.org/1999/xlink" x="0px" y="0px" width="720px"
	 height="720px" viewBox="0 0 720 720" enable-background="new 0 0 720 720" xml:space="preserve">
<g id="Layer_1">
	<path fill="#FFFFFF" stroke="#000000" stroke-miterlimit="10" d="M952.281,441.034c-22.271-4.625-45.172-7.532-68.557-8.583
		c-5.714-0.116-11.434-0.173-17.153-0.188c-0.857-0.002-1.714-0.013-2.571-0.013v143.916c43.259,0,86.516,1.925,128.039,5.771
		C982.81,512.983,969.558,461.069,952.281,441.034z"/>
	<g display="none">
		<circle display="inline" fill="#FFFFFF" stroke="#000000" stroke-miterlimit="10" cx="864" cy="863.5" r="432"/>
		<g display="inline">
			<path fill="none" stroke="#000000" stroke-miterlimit="10" d="M432,431.5c-575.334,0-575.334,864,0,864"/>
			<path fill="none" stroke="#000000" stroke-miterlimit="10" d="M504,431.5c-479.445,0-479.445,864,0,864"/>
			<path fill="none" stroke="#000000" stroke-miterlimit="10" d="M576,431.5c-383.556,0-383.556,864,0,864"/>
			<path fill="none" stroke="#000000" stroke-miterlimit="10" d="M648,431.5c-287.667,0-287.667,864,0,864"/>
			<path fill="none" stroke="#000000" stroke-miterlimit="10" d="M720,431.5c-191.778,0-191.778,864,0,864"/>
			<path fill="none" stroke="#000000" stroke-miterlimit="10" d="M792,431.5c-95.889,0-95.889,864,0,864"/>
			<line fill="none" stroke="#000000" stroke-miterlimit="10" x1="864" y1="431.5" x2="864" y2="1295.5"/>
			<path fill="none" stroke="#000000" stroke-miterlimit="10" d="M936,431.5c95.889,0,95.889,864,0,864"/>
			<path fill="none" stroke="#000000" stroke-miterlimit="10" d="M1008,431.5c191.778,0,191.778,864,0,864"/>
			<path fill="none" stroke="#000000" stroke-miterlimit="10" d="M1080,431.5c287.667,0,287.667,864,0,864"/>
			<path fill="none" stroke="#000000" stroke-miterlimit="10" d="M1152,431.5c383.556,0,383.556,864,0,864"/>
			<path fill="none" stroke="#000000" stroke-miterlimit="10" d="M1224,431.5c479.445,0,479.445,864,0,864"/>
			<path fill="none" stroke="#000000" stroke-miterlimit="10" d="M1296,431.5c575.334,0,575.334,864,0,864"/>
		</g>
		<g display="inline">
			<path fill="none" stroke="#000000" stroke-miterlimit="10" d="M432,1295.5c0,575.334,864,575.334,864,0"/>
			<path fill="none" stroke="#000000" stroke-miterlimit="10" d="M432,1223.5c0,479.445,864,479.445,864,0"/>
			<path fill="none" stroke="#000000" stroke-miterlimit="10" d="M432,1151.5c0,383.557,864,383.557,864,0"/>
			<path fill="none" stroke="#000000" stroke-miterlimit="10" d="M432,1079.5c0,287.668,864,287.668,864,0"/>
			<path fill="none" stroke="#000000" stroke-miterlimit="10" d="M432,1007.5c0,191.779,864,191.779,864,0"/>
			<path fill="none" stroke="#000000" stroke-miterlimit="10" d="M432,935.5c0,95.889,864,95.889,864,0"/>
			<line fill="none" stroke="#000000" stroke-miterlimit="10" x1="432" y1="863.5" x2="1296" y2="863.5"/>
			<path fill="none" stroke="#000000" stroke-miterlimit="10" d="M432,791.5c0-95.889,864-95.889,864,0"/>
			<path fill="none" stroke="#000000" stroke-miterlimit="10" d="M432,719.5c0-191.778,864-191.778,864,0"/>
			<path fill="none" stroke="#000000" stroke-miterlimit="10" d="M432,647.5c0-287.667,864-287.667,864,0"/>
			<path fill="none" stroke="#000000" stroke-miterlimit="10" d="M432,575.5c0-383.556,864-383.556,864,0"/>
			<path fill="none" stroke="#000000" stroke-miterlimit="10" d="M432,503.5c0-479.445,864-479.445,864,0"/>
			<path fill="none" stroke="#000000" stroke-miterlimit="10" d="M432,431.5c0-575.334,864-575.334,864,0"/>
		</g>
	</g>
	<path fill="#FFFFFF" stroke="#000000" stroke-miterlimit="10" d="M720.083,864H576.167c0,43.259,1.925,86.516,5.771,128.039
		c42.009,5.622,90.34,9.752,141.636,12.388C721.247,959.156,720.083,911.579,720.083,864z"/>
	<path fill="#FFFFFF" stroke="#000000" stroke-miterlimit="10" d="M1125.282,1125.282c42.854-10.024,80.209-22.888,108.964-38.589
		c24.641-40.88,42.702-86.171,52.72-134.412c-20.035,17.276-71.949,30.528-140.903,39.758
		C1141.658,1039.598,1134.732,1084.882,1125.282,1125.282z"/>
	<path fill="#FFFFFF" stroke="#000000" stroke-miterlimit="10" d="M1086.693,1234.246c60.392-36.402,111.15-87.161,147.553-147.553
		c-28.755,15.701-66.11,28.564-108.964,38.589C1115.258,1168.136,1102.395,1205.491,1086.693,1234.246z"/>
	<path fill="#FFFFFF" stroke="#000000" stroke-miterlimit="10" d="M992.039,1146.062c-9.229,68.954-22.481,120.868-39.758,140.903
		c48.241-10.018,93.532-28.079,134.412-52.72c15.701-28.755,28.564-66.11,38.589-108.964
		C1084.882,1134.732,1039.598,1141.658,992.039,1146.062z"/>
	<path fill="#FFFFFF" stroke="#000000" stroke-miterlimit="10" d="M493.755,1086.694c36.402,60.392,87.16,111.149,147.551,147.551
		c-15.701-28.754-28.564-66.109-38.588-108.963C559.865,1115.258,522.509,1102.395,493.755,1086.694z"/>
	<path fill="#FFFFFF" stroke="#000000" stroke-miterlimit="10" d="M723.573,1004.427c2.636,51.296,6.765,99.626,12.388,141.636
		c41.523,3.846,84.78,5.771,128.039,5.771v-143.918C816.421,1007.916,768.844,1006.753,723.573,1004.427z"/>
	<path fill="#FFFFFF" stroke="#000000" stroke-miterlimit="10" d="M581.938,992.039c4.405,47.559,11.331,92.843,20.781,133.243
		c40.4,9.45,85.684,16.376,133.243,20.78c-5.623-42.01-9.752-90.34-12.388-141.636
		C672.278,1001.791,623.947,997.661,581.938,992.039z"/>
	<path fill="#FFFFFF" stroke="#000000" stroke-miterlimit="10" d="M581.938,992.039c-68.953-9.229-120.867-22.481-140.903-39.757
		c10.017,48.24,28.08,93.532,52.721,134.412c28.754,15.7,66.11,28.563,108.963,38.588
		C593.268,1084.882,586.343,1039.598,581.938,992.039z"/>
	<path fill="#FFFFFF" stroke="#000000" stroke-miterlimit="10" d="M602.718,1125.282c10.024,42.854,22.887,80.209,38.588,108.963
		c40.88,24.642,86.171,42.703,134.412,52.721c-17.276-20.035-30.528-71.949-39.757-140.903
		C688.402,1141.658,643.118,1134.732,602.718,1125.282z"/>
	<path fill="#FFFFFF" stroke="#000000" stroke-miterlimit="10" d="M864,1007.916v143.918c43.259,0,86.516-1.925,128.039-5.771
		c5.622-42.009,9.752-90.34,12.388-141.636C959.156,1006.753,911.579,1007.916,864,1007.916z"/>
	<path fill="#FFFFFF" stroke="#000000" stroke-miterlimit="10" d="M735.961,581.938c-47.559,4.405-92.843,11.33-133.243,20.78
		c-9.45,40.4-16.375,85.685-20.781,133.243c42.009-5.623,90.34-9.752,141.636-12.388
		C726.209,672.277,730.338,623.947,735.961,581.938z"/>
	<path fill="#FFFFFF" stroke="#000000" stroke-miterlimit="10" d="M723.573,723.573c-51.295,2.636-99.626,6.765-141.636,12.388
		c-3.846,41.523-5.771,84.78-5.771,128.039h143.917C720.083,816.421,721.247,768.844,723.573,723.573z"/>
	<path fill="#FFFFFF" stroke="#000000" stroke-miterlimit="10" d="M864,1007.916c47.579,0,95.156-1.163,140.427-3.489
		c2.326-45.271,3.489-92.848,3.489-140.427H864V1007.916z"/>
	<path fill="#FFFFFF" stroke="#000000" stroke-miterlimit="10" d="M1004.427,723.573c-2.636-51.296-6.766-99.626-12.388-141.636
		c-41.523-3.846-84.78-5.771-128.039-5.771v143.917C911.579,720.083,959.156,721.247,1004.427,723.573z"/>
	<path fill="#FFFFFF" stroke="#000000" stroke-miterlimit="10" d="M720.083,864c0,47.579,1.164,95.156,3.49,140.427
		c45.271,2.326,92.848,3.489,140.427,3.489V864H720.083z"/>
	<path fill="#FFFFFF" stroke="#000000" stroke-miterlimit="10" d="M864,720.083c-47.579,0-95.156,1.164-140.427,3.49
		c-2.326,45.271-3.49,92.848-3.49,140.427H864V720.083z"/>
	<path fill="#FFFFFF" stroke="#000000" stroke-miterlimit="10" d="M602.718,602.718c-42.853,10.024-80.209,22.888-108.963,38.588
		c-24.641,40.88-42.704,86.171-52.721,134.412c20.036-17.275,71.95-30.528,140.903-39.757
		C586.343,688.402,593.268,643.118,602.718,602.718z"/>
	<path fill="#FFFFFF" stroke="#000000" stroke-miterlimit="10" d="M992.039,1146.062c47.559-4.404,92.843-11.33,133.243-20.78
		c9.45-40.4,16.376-85.685,20.78-133.243c-42.009,5.622-90.34,9.752-141.636,12.388
		C1001.791,1055.723,997.661,1104.054,992.039,1146.062z"/>
	<path fill="#FFFFFF" stroke="#000000" stroke-miterlimit="10" d="M864,720.083V576.166c-43.259,0-86.516,1.925-128.039,5.771
		c-5.623,42.009-9.752,90.34-12.388,141.636C768.844,721.247,816.421,720.083,864,720.083z"/>
	<path fill="#FFFFFF" stroke="#000000" stroke-miterlimit="10" d="M641.306,493.755c-60.391,36.402-111.149,87.16-147.551,147.551
		c28.754-15.7,66.11-28.563,108.963-38.588C612.742,559.865,625.606,522.509,641.306,493.755z"/>
	<path fill="#FFFFFF" stroke="#000000" stroke-miterlimit="10" d="M735.961,581.938c9.229-68.954,22.481-120.868,39.757-140.903
		c-48.241,10.018-93.532,28.079-134.412,52.721c-15.7,28.754-28.564,66.11-38.588,108.963
		C643.118,593.268,688.402,586.342,735.961,581.938z"/>
	<path fill="#FFFFFF" stroke="#000000" stroke-miterlimit="10" d="M1151.834,864c0,43.259-1.925,86.516-5.771,128.039
		c68.954-9.229,120.868-22.481,140.903-39.758c4.625-22.271,7.532-45.172,8.583-68.557c0.134-6.571,0.201-13.147,0.201-19.725
		H1151.834z"/>
	<path fill="#FFFFFF" stroke="#000000" stroke-miterlimit="10" d="M864,1296c6.611,0,13.186-0.157,19.725-0.451
		c-6.57,0.134-13.147,0.201-19.725,0.201V1296z"/>
	<path fill="#FFFFFF" stroke="#000000" stroke-miterlimit="10" d="M844.275,1295.549c6.539,0.294,13.113,0.451,19.725,0.451v-0.25
		C857.423,1295.75,850.846,1295.683,844.275,1295.549z"/>
	<path fill="#FFFFFF" stroke="#000000" stroke-miterlimit="10" d="M864,1151.834c-43.259,0-86.516-1.926-128.039-5.771
		c9.229,68.954,22.481,120.868,39.757,140.903c22.272,4.625,45.173,7.532,68.557,8.583c6.571,0.134,13.147,0.201,19.725,0.201
		V1151.834z"/>
	<path fill="#FFFFFF" stroke="#000000" stroke-miterlimit="10" d="M432,864c0,6.605,0.157,13.173,0.45,19.706
		c-0.133-6.564-0.201-13.136-0.201-19.706H432z"/>
	<path fill="#FFFFFF" stroke="#000000" stroke-miterlimit="10" d="M432.451,844.294C432.157,850.827,432,857.395,432,864h0.25
		C432.25,857.429,432.317,850.859,432.451,844.294z"/>
	<path fill="#FFFFFF" stroke="#000000" stroke-miterlimit="10" d="M576.167,864H432.25c0,6.57,0.067,13.142,0.201,19.706
		c1.05,23.391,3.958,46.298,8.584,68.576c20.036,17.275,71.95,30.528,140.903,39.757C578.092,950.516,576.167,907.259,576.167,864z"
		/>
	<path fill="#FFFFFF" stroke="#000000" stroke-miterlimit="10" d="M1004.427,1004.427c51.296-2.636,99.627-6.766,141.636-12.388
		c3.847-41.523,5.771-84.78,5.771-128.039h-143.918C1007.916,911.579,1006.753,959.156,1004.427,1004.427z"/>
	<path fill="#FFFFFF" stroke="#000000" stroke-miterlimit="10" d="M1295.75,864c0,6.577-0.067,13.153-0.201,19.725
		c0.294-6.539,0.451-13.113,0.451-19.725H1295.75z"/>
	<path fill="#FFFFFF" stroke="#000000" stroke-miterlimit="10" d="M864,1151.834v143.916c6.577,0,13.154-0.067,19.725-0.201
		c23.385-1.051,46.285-3.958,68.557-8.583c17.276-20.035,30.528-71.949,39.758-140.903
		C950.516,1149.909,907.259,1151.834,864,1151.834z"/>
	<path fill="#FFFFFF" stroke="#000000" stroke-miterlimit="10" d="M1296,864c0-6.611-0.157-13.186-0.451-19.725
		c0.134,6.571,0.201,13.147,0.201,19.725H1296z"/>
	<path fill="#FFFFFF" stroke="#000000" stroke-miterlimit="10" d="M864,576.166V432.25c-6.577,0-13.154,0.067-19.725,0.201
		c-23.384,1.051-46.285,3.958-68.557,8.583c-17.276,20.035-30.528,71.949-39.757,140.903
		C777.484,578.091,820.741,576.166,864,576.166z"/>
	<path fill="#FFFFFF" stroke="#000000" stroke-miterlimit="10" d="M864,432c-6.611,0-13.186,0.157-19.725,0.451
		c6.571-0.134,13.147-0.201,19.725-0.201V432z"/>
	<path fill="#FFFFFF" stroke="#000000" stroke-miterlimit="10" d="M576.167,864c0-43.259,1.925-86.516,5.771-128.039
		c-68.953,9.229-120.867,22.481-140.903,39.757c-4.626,22.278-7.534,45.186-8.584,68.576c-0.133,6.565-0.201,13.135-0.201,19.706
		H576.167z"/>
	<path fill="#FFFFFF" stroke="#000000" stroke-miterlimit="10" d="M883.725,432.451C877.186,432.157,870.611,432,864,432v0.25
		C870.577,432.25,877.154,432.317,883.725,432.451z"/>
	<path fill="#FFFFFF" stroke="#000000" stroke-miterlimit="10" d="M1125.282,602.718c-10.024-42.853-22.888-80.209-38.589-108.963
		c-40.88-24.641-86.171-42.703-134.412-52.72c17.276,20.035,30.528,71.949,39.758,140.903
		C1039.598,586.342,1084.882,593.268,1125.282,602.718z"/>
	<path fill="#FFFFFF" stroke="#000000" stroke-miterlimit="10" d="M1234.246,641.306c-36.402-60.392-87.161-111.15-147.553-147.552
		c15.701,28.754,28.564,66.11,38.589,108.963C1168.136,612.742,1205.491,625.605,1234.246,641.306z"/>
	<path fill="#FFFFFF" stroke="#000000" stroke-miterlimit="10" d="M1146.062,735.961c-4.404-47.559-11.33-92.843-20.78-133.243
		c-40.4-9.45-85.685-16.375-133.243-20.78c5.622,42.009,9.752,90.34,12.388,141.636
		C1055.723,726.209,1104.053,730.338,1146.062,735.961z"/>
	<path fill="#FFFFFF" stroke="#000000" stroke-miterlimit="10" d="M1146.062,735.961c68.954,9.229,120.868,22.481,140.903,39.757
		c-10.017-48.241-28.079-93.532-52.72-134.412c-28.755-15.701-66.11-28.564-108.964-38.588
		C1134.732,643.118,1141.658,688.402,1146.062,735.961z"/>
	<path fill="#FFFFFF" stroke="#000000" stroke-miterlimit="10" d="M864,864h143.916c0-47.579-1.163-95.156-3.489-140.427
		c-45.271-2.326-92.848-3.49-140.427-3.49V864z"/>
	<path fill="#FFFFFF" stroke="#000000" stroke-miterlimit="10" d="M1004.427,723.573c2.326,45.271,3.489,92.848,3.489,140.427
		h143.918c0-43.259-1.926-86.516-5.771-128.039C1104.053,730.338,1055.723,726.209,1004.427,723.573z"/>
	<path fill="#FFFFFF" stroke="#000000" stroke-miterlimit="10" d="M1151.834,864h143.916c0-6.577-0.067-13.154-0.201-19.725
		c-1.051-23.384-3.958-46.285-8.583-68.557c-20.035-17.276-71.949-30.528-140.903-39.757
		C1149.908,777.484,1151.834,820.741,1151.834,864z"/>
</g>
<g id="Layer_3">
	<rect x="-12.253" stroke="#FFFFFF" stroke-width="0.2917" stroke-miterlimit="10" width="744.506" height="720"/>
</g>
<g id="Layer_2">
	<g display="none">
		<g display="inline">
			<g>
				<path fill="#F8D3BD" d="M864,432v0.25c0.857,0,1.714,0.011,2.571,0.013L864,432z"/>
				<path fill="#61C5BB" d="M864,576.166v143.917l128.039-138.146C950.516,578.091,907.259,576.166,864,576.166z"/>
				<path fill="#F8D3BD" d="M952.281,441.034c-22.271-4.625-45.172-7.532-68.557-8.583c-5.714-0.116-11.434-0.173-17.153-0.188
					c-0.857-0.002-1.714-0.013-2.571-0.013v143.916c43.259,0,86.516,1.925,128.039,5.771
					C982.81,512.983,969.558,461.069,952.281,441.034z"/>
			</g>
			<g>
				<path fill="#B9BDE0" d="M952.281,441.034l-87.773,277.442l127.531-136.539C982.81,512.983,969.558,461.069,952.281,441.034z"/>
				<path fill="#61C5BB" d="M1125.282,602.718c-40.4-9.45-85.685-16.375-133.243-20.78L864.508,718.477L864,720.083
					L1125.282,602.718z"/>
				<path fill="#F8D3BD" d="M1086.693,493.754c-40.88-24.641-86.171-42.703-134.412-52.72
					c17.276,20.035,30.528,71.949,39.758,140.903c47.559,4.405,92.843,11.33,133.243,20.78
					C1115.258,559.865,1102.395,522.508,1086.693,493.754z"/>
			</g>
			<g>
				<path fill="#B9BDE0" d="M1086.693,493.754L864,864l4.947-2.976l256.335-258.306
					C1115.258,559.865,1102.395,522.508,1086.693,493.754z"/>
				<path fill="#61C5BB" d="M1125.282,602.718L868.947,861.024l365.299-219.718C1205.491,625.605,1168.136,612.742,1125.282,602.718
					z"/>
				<path fill="#F8D3BD" d="M1086.693,493.754c15.701,28.754,28.564,66.11,38.589,108.963
					c42.854,10.024,80.209,22.888,108.964,38.588C1197.844,580.915,1147.085,530.156,1086.693,493.754z"/>
			</g>
			<g>
				<path fill="#61C5BB" d="M864,720.083V864l140.427-140.427C959.156,721.247,911.579,720.083,864,720.083z"/>
				<path fill="#F8D3BD" d="M992.039,581.938c-41.523-3.846-84.78-5.771-128.039-5.771v143.917c47.579,0,95.156,1.164,140.427,3.49
					C1001.791,672.277,997.661,623.947,992.039,581.938z"/>
			</g>
			<g>
				<path fill="#B9BDE0" d="M992.039,581.938L864,864l4.231-1.921l136.195-138.506
					C1001.791,672.277,997.661,623.947,992.039,581.938z"/>
				<path fill="#61C5BB" d="M1004.427,723.573L868.231,862.079l277.831-126.118C1104.053,730.338,1055.723,726.209,1004.427,723.573
					z"/>
				<path fill="#F8D3BD" d="M1125.282,602.718c-40.4-9.45-85.685-16.375-133.243-20.78c5.622,42.009,9.752,90.34,12.388,141.636
					c51.296,2.636,99.626,6.765,141.636,12.388C1141.658,688.402,1134.732,643.118,1125.282,602.718z"/>
			</g>
			<g>
				<path fill="#B9BDE0" d="M1125.282,602.718L864,864l5.787-1.208l276.275-126.831
					C1141.658,688.402,1134.732,643.118,1125.282,602.718z"/>
				<path fill="#61C5BB" d="M1146.062,735.961L869.787,862.792l417.179-87.074C1266.931,758.442,1215.017,745.19,1146.062,735.961z"
					/>
				<path fill="#F8D3BD" d="M1234.246,641.306c-28.755-15.701-66.11-28.564-108.964-38.588c9.45,40.4,16.376,85.685,20.78,133.243
					c68.954,9.229,120.868,22.481,140.903,39.757C1276.949,727.478,1258.887,682.186,1234.246,641.306z"/>
			</g>
			<path fill="#F8D3BD" d="M1004.427,723.573c-45.271-2.326-92.848-3.49-140.427-3.49V864h143.916
				C1007.916,816.421,1006.753,768.844,1004.427,723.573z"/>
			<g>
				<path fill="#B9BDE0" d="M864,864h143.916c0-47.579-1.163-95.156-3.489-140.427L864,864z"/>
				<path fill="#F8D3BD" d="M1146.062,735.961c-42.01-5.623-90.34-9.752-141.636-12.388c2.326,45.271,3.489,92.848,3.489,140.427
					h143.918C1151.834,820.741,1149.908,777.484,1146.062,735.961z"/>
			</g>
			<g>
				<path fill="#B9BDE0" d="M864,864h287.834c0-43.259-1.926-86.516-5.771-128.039L864,864z"/>
				<path fill="#F8D3BD" d="M1295.749,863.786c-0.002-6.506-0.067-13.011-0.2-19.51c-1.051-23.384-3.958-46.285-8.583-68.557
					c-20.035-17.276-71.949-30.528-140.903-39.757c3.846,41.523,5.771,84.78,5.771,128.039h143.916h0.25L1295.749,863.786z"/>
			</g>
		</g>
		<g display="inline">
			<g>
				<path fill="#F8D3BD" d="M863.87,432v0.25c-0.857,0-1.714,0.011-2.571,0.013L863.87,432z"/>
				<path fill="#61C5BB" d="M863.87,576.166v143.917L735.831,581.938C777.354,578.091,820.611,576.166,863.87,576.166z"/>
				<path fill="#F8D3BD" d="M775.589,441.034c22.271-4.625,45.172-7.532,68.557-8.583c5.714-0.116,11.434-0.173,17.153-0.188
					c0.857-0.002,1.714-0.013,2.571-0.013v143.916c-43.259,0-86.516,1.925-128.039,5.771
					C745.061,512.983,758.312,461.069,775.589,441.034z"/>
			</g>
			<g>
				<path fill="#B9BDE0" d="M775.589,441.034l87.773,277.442L735.831,581.938C745.061,512.983,758.312,461.069,775.589,441.034z"/>
				<path fill="#61C5BB" d="M602.588,602.718c40.4-9.45,85.685-16.375,133.243-20.78l127.531,136.539l0.508,1.606L602.588,602.718z"
					/>
				<path fill="#F8D3BD" d="M641.177,493.754c40.88-24.641,86.171-42.703,134.412-52.72
					c-17.276,20.035-30.528,71.949-39.758,140.903c-47.559,4.405-92.843,11.33-133.243,20.78
					C612.612,559.865,625.476,522.508,641.177,493.754z"/>
			</g>
			<g>
				<path fill="#B9BDE0" d="M641.177,493.754L863.87,864l-4.947-2.976L602.588,602.718
					C612.612,559.865,625.476,522.508,641.177,493.754z"/>
				<path fill="#61C5BB" d="M602.588,602.718l256.335,258.306L493.624,641.306C522.379,625.605,559.734,612.742,602.588,602.718z"/>
				<path fill="#F8D3BD" d="M641.177,493.754c-15.701,28.754-28.564,66.11-38.589,108.963
					c-42.854,10.024-80.209,22.888-108.964,38.588C530.026,580.915,580.785,530.156,641.177,493.754z"/>
			</g>
			<g>
				<path fill="#61C5BB" d="M863.87,720.083V864L723.443,723.573C768.714,721.247,816.291,720.083,863.87,720.083z"/>
				<path fill="#F8D3BD" d="M735.831,581.938c41.523-3.846,84.78-5.771,128.039-5.771v143.917c-47.579,0-95.156,1.164-140.427,3.49
					C726.079,672.277,730.209,623.947,735.831,581.938z"/>
			</g>
			<g>
				<path fill="#B9BDE0" d="M735.831,581.938L863.87,864l-4.231-1.921L723.443,723.573
					C726.079,672.277,730.209,623.947,735.831,581.938z"/>
				<path fill="#61C5BB" d="M723.443,723.573l136.195,138.506L581.808,735.961C623.817,730.338,672.147,726.209,723.443,723.573z"/>
				<path fill="#F8D3BD" d="M602.588,602.718c40.4-9.45,85.685-16.375,133.243-20.78c-5.622,42.009-9.752,90.34-12.388,141.636
					c-51.296,2.636-99.626,6.765-141.636,12.388C586.212,688.402,593.138,643.118,602.588,602.718z"/>
			</g>
			<g>
				<path fill="#B9BDE0" d="M602.588,602.718L863.87,864l-5.787-1.208L581.808,735.961
					C586.212,688.402,593.138,643.118,602.588,602.718z"/>
				<path fill="#61C5BB" d="M581.808,735.961l276.275,126.831l-417.179-87.074C460.939,758.442,512.854,745.19,581.808,735.961z"/>
				<path fill="#F8D3BD" d="M493.624,641.306c28.755-15.701,66.11-28.564,108.964-38.588c-9.45,40.4-16.376,85.685-20.78,133.243
					c-68.954,9.229-120.868,22.481-140.903,39.757C450.921,727.478,468.983,682.186,493.624,641.306z"/>
			</g>
			<path fill="#F8D3BD" d="M723.443,723.573c45.271-2.326,92.848-3.49,140.427-3.49V864H719.954
				C719.954,816.421,721.117,768.844,723.443,723.573z"/>
			<g>
				<path fill="#B9BDE0" d="M863.87,864H719.954c0-47.579,1.163-95.156,3.489-140.427L863.87,864z"/>
				<path fill="#F8D3BD" d="M581.808,735.961c42.01-5.623,90.34-9.752,141.636-12.388c-2.326,45.271-3.489,92.848-3.489,140.427
					H576.036C576.036,820.741,577.962,777.484,581.808,735.961z"/>
			</g>
			<g>
				<path fill="#B9BDE0" d="M863.87,864H576.036c0-43.259,1.926-86.516,5.771-128.039L863.87,864z"/>
				<path fill="#F8D3BD" d="M432.121,863.786c0.002-6.506,0.067-13.011,0.2-19.51c1.051-23.384,3.958-46.285,8.583-68.557
					c20.035-17.276,71.949-30.528,140.903-39.757c-3.846,41.523-5.771,84.78-5.771,128.039H432.12h-0.25L432.121,863.786z"/>
			</g>
		</g>
		<g display="inline">
			<g>
				<path fill="#F8D3BD" d="M864,1296v-0.25c0.857,0,1.714-0.011,2.571-0.013L864,1296z"/>
				<path fill="#61C5BB" d="M864,1151.834v-143.917l128.039,138.146C950.516,1149.909,907.259,1151.834,864,1151.834z"/>
				<path fill="#F8D3BD" d="M952.281,1286.966c-22.271,4.625-45.172,7.532-68.557,8.583c-5.714,0.116-11.434,0.173-17.153,0.188
					c-0.857,0.002-1.714,0.013-2.571,0.013v-143.916c43.259,0,86.516-1.925,128.039-5.771
					C982.81,1215.017,969.558,1266.931,952.281,1286.966z"/>
			</g>
			<g>
				<path fill="#B9BDE0" d="M952.281,1286.966l-87.773-277.442l127.531,136.539C982.81,1215.017,969.558,1266.931,952.281,1286.966z
					"/>
				<path fill="#61C5BB" d="M1125.282,1125.282c-40.4,9.45-85.685,16.375-133.243,20.78l-127.531-136.539l-0.508-1.606
					L1125.282,1125.282z"/>
				<path fill="#F8D3BD" d="M1086.693,1234.245c-40.88,24.642-86.171,42.703-134.412,52.721
					c17.276-20.035,30.528-71.949,39.758-140.903c47.559-4.405,92.843-11.33,133.243-20.78
					C1115.258,1168.136,1102.395,1205.491,1086.693,1234.245z"/>
			</g>
			<g>
				<path fill="#B9BDE0" d="M1086.693,1234.245L864,864l4.947,2.976l256.335,258.307
					C1115.258,1168.136,1102.395,1205.491,1086.693,1234.245z"/>
				<path fill="#61C5BB" d="M1125.282,1125.282L868.947,866.976l365.299,219.719
					C1205.491,1102.395,1168.136,1115.258,1125.282,1125.282z"/>
				<path fill="#F8D3BD" d="M1086.693,1234.245c15.701-28.754,28.564-66.109,38.589-108.963
					c42.854-10.024,80.209-22.888,108.964-38.588C1197.844,1147.085,1147.085,1197.844,1086.693,1234.245z"/>
			</g>
			<g>
				<path fill="#61C5BB" d="M864,1007.917V864l140.427,140.427C959.156,1006.753,911.579,1007.917,864,1007.917z"/>
				<path fill="#F8D3BD" d="M992.039,1146.062c-41.523,3.847-84.78,5.771-128.039,5.771v-143.917
					c47.579,0,95.156-1.164,140.427-3.49C1001.791,1055.723,997.661,1104.054,992.039,1146.062z"/>
			</g>
			<g>
				<path fill="#B9BDE0" d="M992.039,1146.062L864,864l4.231,1.921l136.195,138.506
					C1001.791,1055.723,997.661,1104.054,992.039,1146.062z"/>
				<path fill="#61C5BB" d="M1004.427,1004.427L868.231,865.921l277.831,126.118
					C1104.053,997.661,1055.723,1001.791,1004.427,1004.427z"/>
				<path fill="#F8D3BD" d="M1125.282,1125.282c-40.4,9.45-85.685,16.375-133.243,20.78c5.622-42.009,9.752-90.34,12.388-141.636
					c51.296-2.636,99.626-6.766,141.636-12.388C1141.658,1039.598,1134.732,1084.882,1125.282,1125.282z"/>
			</g>
			<g>
				<path fill="#B9BDE0" d="M1125.282,1125.282L864,864l5.787,1.208l276.275,126.831
					C1141.658,1039.598,1134.732,1084.882,1125.282,1125.282z"/>
				<path fill="#61C5BB" d="M1146.062,992.039L869.787,865.208l417.179,87.074C1266.931,969.558,1215.017,982.81,1146.062,992.039z"
					/>
				<path fill="#F8D3BD" d="M1234.246,1086.694c-28.755,15.7-66.11,28.563-108.964,38.588c9.45-40.4,16.376-85.685,20.78-133.243
					c68.954-9.229,120.868-22.481,140.903-39.757C1276.949,1000.522,1258.887,1045.813,1234.246,1086.694z"/>
			</g>
			<path fill="#F8D3BD" d="M1004.427,1004.427c-45.271,2.326-92.848,3.49-140.427,3.49V864h143.916
				C1007.916,911.579,1006.753,959.156,1004.427,1004.427z"/>
			<g>
				<path fill="#B9BDE0" d="M864,864h143.916c0,47.579-1.163,95.156-3.489,140.427L864,864z"/>
				<path fill="#F8D3BD" d="M1146.062,992.039c-42.01,5.622-90.34,9.752-141.636,12.388c2.326-45.271,3.489-92.848,3.489-140.427
					h143.918C1151.834,907.259,1149.908,950.516,1146.062,992.039z"/>
			</g>
			<g>
				<path fill="#B9BDE0" d="M864,864h287.834c0,43.259-1.926,86.516-5.771,128.039L864,864z"/>
				<path fill="#F8D3BD" d="M1295.749,864.214c-0.002,6.506-0.067,13.012-0.2,19.511c-1.051,23.384-3.958,46.285-8.583,68.558
					c-20.035,17.275-71.949,30.527-140.903,39.757c3.846-41.523,5.771-84.78,5.771-128.039h143.916h0.25L1295.749,864.214z"/>
			</g>
		</g>
		<g display="inline">
			<g>
				<path fill="#F8D3BD" d="M863.87,1296v-0.25c-0.857,0-1.714-0.011-2.571-0.013L863.87,1296z"/>
				<path fill="#61C5BB" d="M863.87,1151.834v-143.917l-128.039,138.146C777.354,1149.909,820.611,1151.834,863.87,1151.834z"/>
				<path fill="#F8D3BD" d="M775.589,1286.966c22.271,4.625,45.172,7.532,68.557,8.583c5.714,0.116,11.434,0.173,17.153,0.188
					c0.857,0.002,1.714,0.013,2.571,0.013v-143.916c-43.259,0-86.516-1.925-128.039-5.771
					C745.061,1215.017,758.312,1266.931,775.589,1286.966z"/>
			</g>
			<g>
				<path fill="#B9BDE0" d="M775.589,1286.966l87.773-277.442l-127.531,136.539C745.061,1215.017,758.312,1266.931,775.589,1286.966
					z"/>
				<path fill="#61C5BB" d="M602.588,1125.282c40.4,9.45,85.685,16.375,133.243,20.78l127.531-136.539l0.508-1.606L602.588,1125.282
					z"/>
				<path fill="#F8D3BD" d="M641.177,1234.245c40.88,24.642,86.171,42.703,134.412,52.721
					c-17.276-20.035-30.528-71.949-39.758-140.903c-47.559-4.405-92.843-11.33-133.243-20.78
					C612.612,1168.136,625.476,1205.491,641.177,1234.245z"/>
			</g>
			<g>
				<path fill="#B9BDE0" d="M641.177,1234.245L863.87,864l-4.947,2.976l-256.335,258.307
					C612.612,1168.136,625.476,1205.491,641.177,1234.245z"/>
				<path fill="#61C5BB" d="M602.588,1125.282l256.335-258.307l-365.299,219.719
					C522.379,1102.395,559.734,1115.258,602.588,1125.282z"/>
				<path fill="#F8D3BD" d="M641.177,1234.245c-15.701-28.754-28.564-66.109-38.589-108.963
					c-42.854-10.024-80.209-22.888-108.964-38.588C530.026,1147.085,580.785,1197.844,641.177,1234.245z"/>
			</g>
			<g>
				<path fill="#61C5BB" d="M863.87,1007.917V864l-140.427,140.427C768.714,1006.753,816.291,1007.917,863.87,1007.917z"/>
				<path fill="#F8D3BD" d="M735.831,1146.062c41.523,3.847,84.78,5.771,128.039,5.771v-143.917
					c-47.579,0-95.156-1.164-140.427-3.49C726.079,1055.723,730.209,1104.054,735.831,1146.062z"/>
			</g>
			<g>
				<path fill="#B9BDE0" d="M735.831,1146.062L863.87,864l-4.231,1.921l-136.195,138.506
					C726.079,1055.723,730.209,1104.054,735.831,1146.062z"/>
				<path fill="#61C5BB" d="M723.443,1004.427l136.195-138.506L581.808,992.039C623.817,997.661,672.147,1001.791,723.443,1004.427z
					"/>
				<path fill="#F8D3BD" d="M602.588,1125.282c40.4,9.45,85.685,16.375,133.243,20.78c-5.622-42.009-9.752-90.34-12.388-141.636
					c-51.296-2.636-99.626-6.766-141.636-12.388C586.212,1039.598,593.138,1084.882,602.588,1125.282z"/>
			</g>
			<g>
				<path fill="#B9BDE0" d="M602.588,1125.282L863.87,864l-5.787,1.208L581.808,992.039
					C586.212,1039.598,593.138,1084.882,602.588,1125.282z"/>
				<path fill="#61C5BB" d="M581.808,992.039l276.275-126.831l-417.179,87.074C460.939,969.558,512.854,982.81,581.808,992.039z"/>
				<path fill="#F8D3BD" d="M493.624,1086.694c28.755,15.7,66.11,28.563,108.964,38.588c-9.45-40.4-16.376-85.685-20.78-133.243
					c-68.954-9.229-120.868-22.481-140.903-39.757C450.921,1000.522,468.983,1045.813,493.624,1086.694z"/>
			</g>
			<path fill="#F8D3BD" d="M723.443,1004.427c45.271,2.326,92.848,3.49,140.427,3.49V864H719.954
				C719.954,911.579,721.117,959.156,723.443,1004.427z"/>
			<g>
				<path fill="#B9BDE0" d="M863.87,864H719.954c0,47.579,1.163,95.156,3.489,140.427L863.87,864z"/>
				<path fill="#F8D3BD" d="M581.808,992.039c42.01,5.622,90.34,9.752,141.636,12.388c-2.326-45.271-3.489-92.848-3.489-140.427
					H576.036C576.036,907.259,577.962,950.516,581.808,992.039z"/>
			</g>
			<g>
				<path fill="#B9BDE0" d="M863.87,864H576.036c0,43.259,1.926,86.516,5.771,128.039L863.87,864z"/>
				<path fill="#F8D3BD" d="M432.121,864.214c0.002,6.506,0.067,13.012,0.2,19.511c1.051,23.384,3.958,46.285,8.583,68.558
					c20.035,17.275,71.949,30.527,140.903,39.757c-3.846-41.523-5.771-84.78-5.771-128.039H432.12h-0.25L432.121,864.214z"/>
			</g>
		</g>
	</g>
	<g>
		<g>
			<path d="M487.863,126.821L328.874,391.149l3.529-2.125l183.006-184.411C508.256,174.02,499.072,147.35,487.863,126.821z"/>
			<path d="M515.409,204.613L332.403,389.024l260.801-156.861C572.675,220.952,546.005,211.771,515.409,204.613z"/>
			<path fill="#FFFFFF" d="M487.863,126.821c11.209,20.528,20.393,47.198,27.546,77.792c30.596,7.157,57.266,16.339,77.795,27.55
				C567.216,189.047,530.975,152.81,487.863,126.821z"/>
		</g>
		<g>
			<path d="M478.085,241.938L328.874,391.149l3.305-0.688l157.772-72.432C487.438,290.87,483.481,265.009,478.085,241.938z"/>
			<path d="M489.951,318.029l-157.772,72.432l238.24-49.727C558.979,330.868,529.329,323.3,489.951,318.029z"/>
			<path fill="#FFFFFF" d="M540.313,263.975c-16.424-8.966-37.756-16.312-62.229-22.036c5.396,23.07,9.354,48.932,11.866,76.091
				c39.378,5.271,69.027,12.839,80.468,22.705C564.7,313.187,554.385,287.32,540.313,263.975z"/>
		</g>
		<g>
			<path d="M388.157,147.929l-58.942,186.303l85.637-91.687C408.654,196.241,399.755,161.382,388.157,147.929z"/>
			<path d="M504.325,256.498c-27.13-6.346-57.539-10.995-89.474-13.953l-85.637,91.687l-0.341,1.078L504.325,256.498z"/>
			<path fill="#FFFFFF" d="M478.412,183.329c-27.447-16.546-57.861-28.674-90.255-35.4c11.598,13.453,20.497,48.312,26.694,94.616
				c31.935,2.958,62.344,7.607,89.474,13.953C497.592,227.723,488.956,202.638,478.412,183.329z"/>
		</g>
		<g>
			<path fill="#FFFFFF" d="M328.874,188.639v0.127c0.436,0,0.875,0.005,1.31,0.006L328.874,188.639z"/>
			<path d="M328.874,262.037v73.272l65.19-70.333C372.923,263.017,350.898,262.037,328.874,262.037z"/>
			<path fill="#FFFFFF" d="M373.821,193.238c-11.34-2.355-23.001-3.836-34.906-4.371c-2.909-0.058-5.819-0.086-8.731-0.096
				c-0.435-0.001-0.874-0.006-1.31-0.006v73.271c22.024,0,44.049,0.979,65.19,2.939
				C389.361,229.869,382.616,203.438,373.821,193.238z"/>
		</g>
		<g>
			<path d="M388.963,258.779l-60.089,132.37l1.984-0.899l63.918-65.002C393.536,301.176,391.6,278.495,388.963,258.779z"/>
			<path d="M394.776,325.248l-63.918,65.002l130.387-59.188C441.528,328.424,418.847,326.485,394.776,325.248z"/>
			<path fill="#FFFFFF" d="M451.493,268.531c-18.963-4.435-40.213-7.683-62.53-9.752c2.637,19.716,4.573,42.396,5.813,66.469
				c24.07,1.237,46.752,3.176,66.469,5.813C459.178,308.743,455.925,287.49,451.493,268.531z"/>
		</g>
		<g>
			<path d="M328.874,335.31v55.84l54.484-54.487C365.798,335.762,347.336,335.31,328.874,335.31z"/>
			<path fill="#FFFFFF" d="M378.555,281.708c-16.112-1.492-32.896-2.24-49.681-2.24v55.842c18.462,0,36.924,0.452,54.484,1.353
				C382.34,316.76,380.733,298.007,378.555,281.708z"/>
		</g>
		<g>
			<g>
				<g>
					<path fill="#FFFFFF" d="M328.824,223.529v0.1c-0.332,0-0.664,0.004-0.996,0.004L328.824,223.529z"/>
					<path d="M328.824,279.468v55.842l-49.681-53.602C295.256,280.216,312.04,279.468,328.824,279.468z"/>
					<path fill="#FFFFFF" d="M294.568,227.036c8.642-1.796,17.528-2.923,26.604-3.33c2.216-0.045,4.434-0.068,6.656-0.073
						c0.332,0,0.664-0.004,0.996-0.004v55.839c-16.784,0-33.568,0.748-49.681,2.24C282.724,254.952,287.865,234.811,294.568,227.036
						z"/>
				</g>
				<g>
					<path d="M294.568,227.036l34.06,107.649l-49.484-52.978C282.724,254.952,287.865,234.811,294.568,227.036z"/>
					<path d="M227.443,289.771c15.676-3.668,33.247-6.355,51.7-8.063l49.484,52.978l0.196,0.624L227.443,289.771z"/>
					<path fill="#FFFFFF" d="M242.417,247.492c15.862-9.562,33.436-16.569,52.152-20.456c-6.703,7.774-11.845,27.916-15.425,54.672
						c-18.453,1.708-36.024,4.396-51.7,8.063C231.333,273.143,236.324,258.649,242.417,247.492z"/>
				</g>
				<g>
					<path d="M242.417,247.492l86.408,143.657l-1.92-1.153l-99.461-100.225C231.333,273.143,236.324,258.649,242.417,247.492z"/>
					<path d="M227.443,289.771l99.461,100.225l-141.74-85.254C196.321,298.65,210.816,293.661,227.443,289.771z"/>
					<path fill="#FFFFFF" d="M242.417,247.492c-6.092,11.157-11.083,25.65-14.973,42.279c-16.627,3.89-31.122,8.879-42.279,14.971
						C199.29,281.312,218.983,261.615,242.417,247.492z"/>
				</g>
				<g>
					<path d="M328.824,335.31v55.84l-54.484-54.487C291.901,335.762,310.362,335.31,328.824,335.31z"/>
					<path fill="#FFFFFF" d="M279.144,281.708c16.112-1.492,32.896-2.24,49.681-2.24v55.842c-18.462,0-36.923,0.452-54.484,1.353
						C275.357,316.76,276.965,298.007,279.144,281.708z"/>
				</g>
				<g>
					<path d="M279.144,281.708l49.681,109.441l-1.642-0.745l-52.843-53.742C275.357,316.76,276.965,298.007,279.144,281.708z"/>
					<path d="M274.34,336.662l52.843,53.742l-107.802-48.933C235.682,339.287,254.435,337.686,274.34,336.662z"/>
					<path fill="#FFFFFF" d="M227.443,289.771c15.676-3.668,33.247-6.355,51.7-8.063c-2.179,16.299-3.786,35.052-4.804,54.954
						c-19.905,1.023-38.658,2.625-54.959,4.81C221.09,323.017,223.777,305.444,227.443,289.771z"/>
				</g>
				<g>
					<path d="M227.443,289.771l101.381,101.378l-2.246-0.469l-107.197-49.209C221.09,323.017,223.777,305.444,227.443,289.771z"/>
					<path d="M219.381,341.472l107.197,49.209l-161.869-33.783C172.483,350.193,192.627,345.051,219.381,341.472z"/>
					<path fill="#FFFFFF" d="M185.164,304.742c11.157-6.092,25.652-11.081,42.279-14.971c-3.666,15.673-6.354,33.245-8.062,51.7
						c-26.754,3.579-46.898,8.722-54.671,15.426C168.596,338.178,175.604,320.604,185.164,304.742z"/>
				</g>
				<path fill="#FFFFFF" d="M274.34,336.662c17.562-0.9,36.022-1.353,54.484-1.353v55.84h-55.84
					C272.984,372.69,273.434,354.229,274.34,336.662z"/>
				<g>
					<path d="M328.824,391.149h-55.84c0-18.459,0.449-36.92,1.355-54.487L328.824,391.149z"/>
					<path fill="#FFFFFF" d="M219.381,341.472c16.301-2.185,35.054-3.786,54.959-4.81c-0.906,17.567-1.355,36.028-1.355,54.487
						h-55.842C217.143,374.365,217.889,357.582,219.381,341.472z"/>
				</g>
				<g>
					<path d="M328.824,391.149H217.143c0-16.784,0.747-33.567,2.238-49.678L328.824,391.149z"/>
					<path fill="#FFFFFF" d="M161.301,391.067c0.001-2.524,0.026-5.049,0.078-7.569c0.408-9.073,1.536-17.961,3.331-26.601
						c7.773-6.704,27.917-11.847,54.671-15.426c-1.492,16.11-2.238,32.894-2.238,49.678h-55.842h-0.097L161.301,391.067z"/>
				</g>
			</g>
			<g>
				<g>
					<path fill="#FFFFFF" d="M328.874,558.771v-0.1c0.332,0,0.664-0.003,0.997-0.005L328.874,558.771z"/>
					<path d="M328.874,502.832v-55.84l49.681,53.599C362.442,502.084,345.659,502.832,328.874,502.832z"/>
					<path fill="#FFFFFF" d="M363.13,555.267c-8.646,1.792-17.528,2.921-26.604,3.329c-2.216,0.046-4.434,0.065-6.655,0.07
						c-0.333,0.002-0.665,0.005-0.997,0.005v-55.839c16.785,0,33.568-0.748,49.681-2.241
						C374.972,527.348,369.833,547.49,363.13,555.267z"/>
				</g>
				<g>
					<path d="M363.13,555.267l-34.06-107.652l49.484,52.977C374.972,527.348,369.833,547.49,363.13,555.267z"/>
					<path d="M430.255,492.527c-15.679,3.67-33.249,6.357-51.7,8.063l-49.484-52.977l-0.196-0.622L430.255,492.527z"/>
					<path fill="#FFFFFF" d="M415.279,534.807c-15.86,9.562-33.434,16.572-52.149,20.46c6.703-7.776,11.842-27.919,15.425-54.676
						c18.451-1.706,36.021-4.394,51.7-8.063C426.365,509.157,421.372,523.65,415.279,534.807z"/>
				</g>
				<g>
					<path d="M415.279,534.807l-86.405-143.657l1.92,1.154l99.461,100.224C426.365,509.157,421.372,523.65,415.279,534.807z"/>
					<path d="M430.255,492.527l-99.461-100.224l141.74,85.254C461.378,483.65,446.88,488.639,430.255,492.527z"/>
					<path fill="#FFFFFF" d="M415.279,534.807c6.093-11.156,11.086-25.649,14.976-42.279c16.625-3.889,31.123-8.877,42.279-14.97
						C458.406,500.99,438.713,520.685,415.279,534.807z"/>
				</g>
				<g>
					<path d="M328.874,446.992v-55.843l54.484,54.488C365.798,446.539,347.336,446.992,328.874,446.992z"/>
					<path fill="#FFFFFF" d="M378.555,500.591c-16.112,1.493-32.896,2.241-49.681,2.241v-55.84c18.462,0,36.924-0.453,54.484-1.354
						C382.34,465.542,380.733,484.294,378.555,500.591z"/>
				</g>
				<g>
					<path d="M378.555,500.591l-49.681-109.441l1.642,0.746l52.843,53.742C382.34,465.542,380.733,484.294,378.555,500.591z"/>
					<path d="M383.358,445.638l-52.843-53.742l107.802,48.936C422.017,443.013,403.264,444.614,383.358,445.638z"/>
					<path fill="#FFFFFF" d="M430.255,492.527c-15.679,3.67-33.249,6.357-51.7,8.063c2.179-16.297,3.785-35.049,4.804-54.953
						c19.905-1.023,38.658-2.625,54.959-4.807C436.606,459.283,433.921,476.854,430.255,492.527z"/>
				</g>
				<g>
					<path d="M430.255,492.527L328.874,391.149l2.246,0.469l107.197,49.213C436.606,459.283,433.921,476.854,430.255,492.527z"/>
					<path d="M438.317,440.831L331.12,391.618l161.868,33.787C485.214,432.108,465.068,437.249,438.317,440.831z"/>
					<path fill="#FFFFFF" d="M472.534,477.558c-11.156,6.093-25.654,11.081-42.279,14.97c3.666-15.673,6.352-33.244,8.062-51.696
						c26.751-3.582,46.896-8.723,54.671-15.426C489.102,444.122,482.095,461.696,472.534,477.558z"/>
				</g>
				<path fill="#FFFFFF" d="M383.358,445.638c-17.561,0.901-36.022,1.354-54.484,1.354v-55.843h55.84
					C384.714,409.612,384.266,428.07,383.358,445.638z"/>
				<g>
					<path d="M328.874,391.149h55.84c0,18.463-0.448,36.921-1.355,54.488L328.874,391.149z"/>
					<path fill="#FFFFFF" d="M438.317,440.831c-16.301,2.182-35.054,3.783-54.959,4.807c0.907-17.567,1.355-36.025,1.355-54.488
						h55.845C440.559,407.935,439.81,424.718,438.317,440.831z"/>
				</g>
				<g>
					<path d="M328.874,391.149h111.685c0,16.785-0.749,33.568-2.241,49.682L328.874,391.149z"/>
					<path fill="#FFFFFF" d="M496.397,391.234c-0.001,2.522-0.028,5.048-0.079,7.57c-0.409,9.072-1.537,17.958-3.33,26.601
						c-7.774,6.703-27.92,11.844-54.671,15.426c1.492-16.113,2.241-32.896,2.241-49.682h55.839h0.098L496.397,391.234z"/>
				</g>
			</g>
			<g>
				<g>
					<path fill="#FFFFFF" d="M328.824,558.771v-0.1c-0.332,0-0.664-0.003-0.996-0.005L328.824,558.771z"/>
					<path d="M328.824,502.832v-55.84l-49.681,53.599C295.256,502.084,312.04,502.832,328.824,502.832z"/>
					<path fill="#FFFFFF" d="M294.568,555.267c8.642,1.792,17.528,2.921,26.604,3.329c2.216,0.046,4.434,0.065,6.656,0.07
						c0.332,0.002,0.664,0.005,0.996,0.005v-55.839c-16.784,0-33.568-0.748-49.681-2.241
						C282.724,527.348,287.865,547.49,294.568,555.267z"/>
				</g>
				<g>
					<path d="M294.568,555.267l34.06-107.652l-49.484,52.977C282.724,527.348,287.865,547.49,294.568,555.267z"/>
					<path d="M227.443,492.527c15.676,3.67,33.247,6.357,51.7,8.063l49.484-52.977l0.196-0.622L227.443,492.527z"/>
					<path fill="#FFFFFF" d="M242.417,534.807c15.862,9.562,33.436,16.572,52.152,20.46c-6.703-7.776-11.845-27.919-15.425-54.676
						c-18.453-1.706-36.024-4.394-51.7-8.063C231.333,509.157,236.324,523.65,242.417,534.807z"/>
				</g>
				<g>
					<path d="M242.417,534.807l86.408-143.657l-1.92,1.154l-99.461,100.224C231.333,509.157,236.324,523.65,242.417,534.807z"/>
					<path d="M227.443,492.527l99.461-100.224l-141.74,85.254C196.321,483.65,210.816,488.639,227.443,492.527z"/>
					<path fill="#FFFFFF" d="M242.417,534.807c-6.092-11.156-11.083-25.649-14.973-42.279c-16.627-3.889-31.122-8.877-42.279-14.97
						C199.29,500.99,218.983,520.685,242.417,534.807z"/>
				</g>
				<g>
					<path d="M328.824,446.992v-55.843l-54.484,54.488C291.901,446.539,310.362,446.992,328.824,446.992z"/>
					<path fill="#FFFFFF" d="M279.144,500.591c16.112,1.493,32.896,2.241,49.681,2.241v-55.84c-18.462,0-36.923-0.453-54.484-1.354
						C275.357,465.542,276.965,484.294,279.144,500.591z"/>
				</g>
				<g>
					<path d="M279.144,500.591l49.681-109.441l-1.642,0.746l-52.843,53.742C275.357,465.542,276.965,484.294,279.144,500.591z"/>
					<path d="M274.34,445.638l52.843-53.742l-107.802,48.936C235.682,443.013,254.435,444.614,274.34,445.638z"/>
					<path fill="#FFFFFF" d="M227.443,492.527c15.676,3.67,33.247,6.357,51.7,8.063c-2.179-16.297-3.786-35.049-4.804-54.953
						c-19.905-1.023-38.658-2.625-54.959-4.807C221.09,459.283,223.777,476.854,227.443,492.527z"/>
				</g>
				<g>
					<path d="M227.443,492.527l101.381-101.378l-2.246,0.469l-107.197,49.213C221.09,459.283,223.777,476.854,227.443,492.527z"/>
					<path d="M219.381,440.831l107.197-49.213l-161.869,33.787C172.483,432.108,192.627,437.249,219.381,440.831z"/>
					<path fill="#FFFFFF" d="M185.164,477.558c11.157,6.093,25.652,11.081,42.279,14.97c-3.666-15.673-6.354-33.244-8.062-51.696
						c-26.754-3.582-46.898-8.723-54.671-15.426C168.596,444.122,175.604,461.696,185.164,477.558z"/>
				</g>
				<path fill="#FFFFFF" d="M274.34,445.638c17.562,0.901,36.022,1.354,54.484,1.354v-55.843h-55.84
					C272.984,409.612,273.434,428.07,274.34,445.638z"/>
				<g>
					<path d="M328.824,391.149h-55.84c0,18.463,0.449,36.921,1.355,54.488L328.824,391.149z"/>
					<path fill="#FFFFFF" d="M219.381,440.831c16.301,2.182,35.054,3.783,54.959,4.807c-0.906-17.567-1.355-36.025-1.355-54.488
						h-55.842C217.143,407.935,217.889,424.718,219.381,440.831z"/>
				</g>
				<g>
					<path d="M328.824,391.149H217.143c0,16.785,0.747,33.568,2.238,49.682L328.824,391.149z"/>
					<path fill="#FFFFFF" d="M161.301,391.234c0.001,2.522,0.026,5.048,0.078,7.57c0.408,9.072,1.536,17.958,3.331,26.601
						c7.773,6.703,27.917,11.844,54.671,15.426c-1.492-16.113-2.238-32.896-2.238-49.682h-55.842h-0.097L161.301,391.234z"/>
				</g>
			</g>
		</g>
		<g>
			<path d="M328.874,391.149h122.807c0-18.455-0.824-36.912-2.465-54.629L328.874,391.149z"/>
			<path fill="#FFFFFF" d="M513.083,391.059c0-2.775-0.03-5.552-0.086-8.324c-0.451-9.978-1.688-19.746-3.661-29.25
				c-8.552-7.37-30.698-13.026-60.12-16.964c1.641,17.717,2.465,36.174,2.465,54.629h61.402h0.106L513.083,391.059z"/>
		</g>
		<g>
			<path d="M328.874,391.149h51.155c0-16.91-0.408-33.824-1.237-49.918L328.874,391.149z"/>
			<path fill="#FFFFFF" d="M429.138,345.636c-14.935-1.998-32.111-3.467-50.346-4.404c0.829,16.094,1.237,33.008,1.237,49.918
				h51.162C431.191,375.773,430.505,360.396,429.138,345.636z"/>
		</g>
		<path fill="#FFFFFF" d="M354.528,365.495c-8.269-0.426-16.963-0.639-25.654-0.639v26.293h26.294
			C355.168,382.457,354.952,373.765,354.528,365.495z"/>
	</g>
</g>
</svg>
