<?xml version="1.0" encoding="utf-8"?>
<!-- Generator: Adobe Illustrator 16.0.0, SVG Export Plug-In . SVG Version: 6.00 Build 0)  -->
<!DOCTYPE svg PUBLIC "-//W3C//DTD SVG 1.1//EN" "http://www.w3.org/Graphics/SVG/1.1/DTD/svg11.dtd">
<svg version="1.1" id="Layer_1" xmlns="http://www.w3.org/2000/svg" xmlns:xlink="http://www.w3.org/1999/xlink" x="0px" y="0px"
	 width="192.24px" height="365.477px" viewBox="0 0 192.24 365.477" enable-background="new 0 0 192.24 365.477"
	 xml:space="preserve">
<path d="M152.584,103.766l-37.029-9.479l10.507-82.404L117.952,0l-8.304,5.196l-9.862,84.075l-0.075,0.02l-0.294,2.441h-0.008
	l-78.908,0.962L0,265.496l76.29,99.98l94.08-52.662l21.87-171.511L152.584,103.766z M84.52,213.4
	c-3.033,1.973-6.36,2.716-9.985,2.227c-4.08-0.546-7.315-2.206-9.711-4.984c-2.393-2.772-3.334-6.076-2.82-9.901
	c0.15,0.021,0.215,0.103,0.195,0.243c0.708-6.399,1.503-12.855,2.379-19.375c2.328-17.289,5.792-39.736,9.643-68.365l26.463,1.618
	l1.935,1.744l-11.954,88.854C89.599,208.782,87.556,211.428,84.52,213.4z M86.255,241.661c-0.517,3.825-2.389,6.896-5.621,9.199
	c-2.326,1.658-4.871,2.565-7.633,2.747c-1.138,0.271-2.32,0.428-3.541,0.428c-8.465,0-15.325-6.861-15.325-15.327
	c0-8.465,6.86-15.326,15.325-15.326c5.234,0,9.851,2.627,12.616,6.63c0.412,0.406,0.813,0.829,1.189,1.291
	C85.772,234.382,86.768,237.836,86.255,241.661z M72.688,113.152l0.549,0.033l-1.229-0.075L72.688,113.152z"/>
</svg>
