<?xml version="1.0" encoding="utf-8"?>
<!-- Generator: Adobe Illustrator 16.0.0, SVG Export Plug-In . SVG Version: 6.00 Build 0)  -->
<!DOCTYPE svg PUBLIC "-//W3C//DTD SVG 1.1//EN" "http://www.w3.org/Graphics/SVG/1.1/DTD/svg11.dtd">
<svg version="1.1" id="Layer_1" xmlns="http://www.w3.org/2000/svg" xmlns:xlink="http://www.w3.org/1999/xlink" x="0px" y="0px"
	 width="200px" height="200px" viewBox="-3.88 82.739 200 200" enable-background="new -3.88 82.739 200 200" xml:space="preserve">
<path d="M127.019,139.522l-20.263-5.187l5.749-45.095l-4.438-6.502l-4.545,2.843l-5.396,46.008l-0.041,0.011l-0.161,1.335H97.92
	l-43.181,0.526L43.52,228.026l41.749,54.713l51.483-28.819l11.968-93.856L127.019,139.522z M89.772,199.517
	c-1.66,1.08-3.48,1.487-5.464,1.219c-2.233-0.298-4.003-1.207-5.314-2.728c-1.31-1.517-1.825-3.324-1.543-5.417
	c0.082,0.011,0.118,0.056,0.107,0.132c0.387-3.501,0.822-7.034,1.302-10.603c1.274-9.461,3.169-21.744,5.277-37.411l14.482,0.886
	l1.059,0.954l-6.542,48.624C92.552,196.99,91.434,198.438,89.772,199.517z M90.722,214.983c-0.283,2.093-1.307,3.773-3.076,5.033
	c-1.272,0.908-2.666,1.404-4.177,1.504c-0.623,0.148-1.27,0.234-1.938,0.234c-4.632,0-8.386-3.755-8.386-8.388
	c0-4.632,3.754-8.387,8.386-8.387c2.864,0,5.391,1.438,6.904,3.628c0.226,0.223,0.445,0.454,0.651,0.707
	C90.457,210.999,91.002,212.89,90.722,214.983z M83.297,144.658l0.3,0.019l-0.672-0.042L83.297,144.658z"/>
</svg>
